<?xml version="1.0" encoding="utf-8"?>
<!-- Generator: Adobe Illustrator 20.1.0, SVG Export Plug-In . SVG Version: 6.00 Build 0)  -->
<svg version="1.1" id="Calque_1" xmlns="http://www.w3.org/2000/svg" xmlns:xlink="http://www.w3.org/1999/xlink" x="0px" y="0px"
	 viewBox="0 0 841.9 595.3" enable-background="new 0 0 841.9 595.3" xml:space="preserve">
<g>
	<defs>
		<rect id="SVGID_1_" x="-9" y="67" width="421" height="528"/>
	</defs>
	<clipPath id="SVGID_2_">
		<use xlink:href="#SVGID_1_"  overflow="visible"/>
	</clipPath>
	<g clip-path="url(#SVGID_2_)">
		<circle cx="157" cy="220" r="2.9"/>
		<path fill="none" stroke="#000000" stroke-width="4" stroke-linecap="round" stroke-miterlimit="10" d="M172.3,222.6
			c0,0-2.7-10.5-14.4-10.5s-17.9,8.8-17.9,8.8s6.2,5.7,16.9,6.7S172.3,222.6,172.3,222.6z"/>
		<path fill="none" stroke="#000000" stroke-width="4" stroke-linecap="round" stroke-miterlimit="10" d="M175.6,235.3
			c-0.7,7-0.3,9.2,0.5,11.3c0.7,1.7,5.7,5.4,6.7-1.6"/>
		<path d="M167.5,200.6c3.4,1.8,6,1.3,5.8-1.1c-0.2-3.7-6.2-6-14.5-6.2c-13.7-0.3-19.7,8.4-19,10.1c0.8,1.7,3.8-6.6,17.8-6
			C161.7,197.6,165.1,199.4,167.5,200.6z"/>
		<path fill="none" stroke="#000000" stroke-width="4" stroke-linecap="round" stroke-miterlimit="10" d="M133.6,221.7
			c0,0-7.7-6.3-7.7-0.2s1,20.5,3.3,22.8c2.3,2.3,6.7,4.7,6.7,4.7"/>
		<path fill="none" stroke="#000000" stroke-width="4" stroke-linecap="round" stroke-miterlimit="10" d="M225,248.7
			c0,0,4.5-1.5,6.2-9.2c0.7-3,4-19.3,2-21c-2.1-1.7-6.2,2.5-6.2,2.5"/>
		<path fill="none" stroke="#000000" stroke-width="4" stroke-linecap="round" stroke-miterlimit="10" d="M160.5,287.5
			c0,0,1.6,10.7-4,17.3c-4.3,5.1-50.2,23-62.2,39.5c-5.9,8.2-10.6,32.8-13.2,72.8c-4,63-4,209.3-4,209.3l27.3-0.7
			c0,0,3.7-243.2,11.3-244c7.7-0.8,4.5,220,4.5,220"/>
		<path fill="none" stroke="#000000" stroke-width="4" stroke-linecap="round" stroke-miterlimit="10" d="M281.3,333.3
			c-36.6-21.6-71.9-22.2-75.5-33.8c-2.8-9.1-1.7-13.4-1.7-13.4"/>
		<path fill="none" stroke="#000000" stroke-width="4" stroke-linecap="round" stroke-miterlimit="10" d="M322.1,408.8
			c0.2,9,1.1,9.1-1.5,14.5c-12.5,26.2-86.3,57-86.3,57s-21,2.3-20.2-3.8c0.7-5.3,1.3-4-3.6-2.2c-3.2,1.2-10.3,3.6-11.4,8.2
			c-1.2,5.2,0.4,17.3,4.7,26.3c1.6,3.3,14.2,4.1,16.8,3.2c4.8-1.5,20.8-8.7,20.8-8.7s34.1-7.8,72.8-30.2
			c29-16.8,30.8-43.2,26.4-59.2c-3.8-14.1-11.5-28.3-17.5-39.5"/>
		
			<line fill="none" stroke="#000000" stroke-width="4" stroke-linecap="round" stroke-miterlimit="10" x1="140.3" y1="210.8" x2="143.5" y2="216"/>
		<path fill="none" stroke="#000000" stroke-width="4" stroke-linecap="round" stroke-miterlimit="10" d="M147.6,206.2
			c0,0.7,2.3,6.3,2.3,6.3"/>
		
			<line fill="none" stroke="#000000" stroke-width="4" stroke-linecap="round" stroke-miterlimit="10" x1="156.8" y1="204.8" x2="157.9" y2="212.1"/>
		
			<line fill="none" stroke="#000000" stroke-width="4" stroke-linecap="round" stroke-miterlimit="10" x1="166.8" y1="207.2" x2="165.8" y2="212.5"/>
		<circle cx="201" cy="219.3" r="2.9"/>
		<path fill="none" stroke="#000000" stroke-width="4" stroke-linecap="round" stroke-miterlimit="10" d="M185.7,221.9
			c0,0,2.7-10.5,14.4-10.5s17.9,8.8,17.9,8.8s-6.2,5.7-16.9,6.7S185.7,221.9,185.7,221.9z"/>
		
			<line fill="none" stroke="#000000" stroke-width="4" stroke-linecap="round" stroke-miterlimit="10" x1="217.7" y1="210.1" x2="214.5" y2="215.3"/>
		<path fill="none" stroke="#000000" stroke-width="4" stroke-linecap="round" stroke-miterlimit="10" d="M210.4,205.4
			c0,0.7-2.3,6.3-2.3,6.3"/>
		
			<line fill="none" stroke="#000000" stroke-width="4" stroke-linecap="round" stroke-miterlimit="10" x1="201.2" y1="204.1" x2="200.1" y2="211.3"/>
		
			<line fill="none" stroke="#000000" stroke-width="4" stroke-linecap="round" stroke-miterlimit="10" x1="191.2" y1="206.4" x2="192.2" y2="211.7"/>
		<path d="M191.6,200.4c-3.4,1.8-6,1.3-5.8-1.1c0.2-3.7,6.2-6,14.5-6.2c13.7-0.3,19.7,8.4,19,10.1c-0.8,1.7-3.8-6.6-17.8-6
			C197.4,197.3,194,199.1,191.6,200.4z"/>
		<path fill="none" stroke="#000000" stroke-width="4" stroke-linecap="round" stroke-miterlimit="10" d="M166.1,262.5
			c0,0,9.7,2.2,13.8,2c4.5-0.2,10-1,13.2-2.3"/>
		<path fill="none" stroke="#000000" stroke-width="4" stroke-linecap="round" stroke-miterlimit="10" d="M173.3,262.8
			c0,0,0.5-3.3,2.3-3.5c3.8-0.5,4.2,4.3,4.2,4.3"/>
		<path fill="none" stroke="#000000" stroke-width="4" stroke-linecap="round" stroke-miterlimit="10" d="M178.5,264.5
			c0,0,3.2-5.5,5.2-5.5s3.2,3.8,3.2,3.8"/>
		<path fill="none" stroke="#000000" stroke-width="4" stroke-linecap="round" stroke-miterlimit="10" d="M171.5,263.3
			c0,0,1.3,9.8,8.3,9.5c7.5-0.3,8.3-8.7,8.3-8.7"/>
		<g>
			
				<polyline fill="none" stroke="#000000" stroke-width="4" stroke-linecap="round" stroke-linejoin="round" stroke-miterlimit="10" points="
				217.1,479.1 206.8,337.3 224.3,332.3 227.6,380.8 234.3,480.3 253.8,470.3 248.5,325.2 224.8,327.8 226.8,365.2 			"/>
			
				<polyline fill="none" stroke="#000000" stroke-width="4" stroke-linecap="round" stroke-linejoin="round" stroke-miterlimit="10" points="
				249.1,333.5 264.8,333.8 267.6,464.3 255.1,470.1 			"/>
			
				<polyline fill="none" stroke="#000000" stroke-width="4" stroke-linecap="round" stroke-linejoin="round" stroke-miterlimit="10" points="
				264.8,337.3 281.3,333.3 282.6,455.3 270.1,462.6 			"/>
			
				<polygon fill="none" stroke="#000000" stroke-width="4" stroke-linecap="round" stroke-linejoin="round" stroke-miterlimit="10" points="
				282.6,455.3 295.3,446.8 296.8,329.3 283.3,327.3 			"/>
			<path fill="none" stroke="#000000" stroke-width="4" stroke-linecap="round" stroke-linejoin="round" stroke-miterlimit="10" d="
				M298.5,339.8l23,2.3c0,0,2.3,74-0.8,81.2c-3.2,7.2-14.6,15.2-14.6,15.2l-9.8,6.5L298.5,339.8z"/>
			
				<line fill="none" stroke="#000000" stroke-width="4" stroke-linecap="round" stroke-linejoin="round" stroke-miterlimit="10" x1="214.8" y1="335.8" x2="224.3" y2="480.3"/>
			
				<line fill="none" stroke="#000000" stroke-width="4" stroke-linecap="round" stroke-linejoin="round" stroke-miterlimit="10" x1="220.3" y1="334.3" x2="229.3" y2="479.3"/>
			<path fill="none" stroke="#000000" stroke-width="4" stroke-linecap="round" stroke-linejoin="round" stroke-miterlimit="10" d="
				M231.8,329.3l10,145c0,0-4.5-145-4.5-147"/>
			
				<line fill="none" stroke="#000000" stroke-width="4" stroke-linecap="round" stroke-linejoin="round" stroke-miterlimit="10" x1="256.8" y1="334.8" x2="260.3" y2="466.3"/>
			
				<line fill="none" stroke="#000000" stroke-width="4" stroke-linecap="round" stroke-linejoin="round" stroke-miterlimit="10" x1="274.8" y1="335.8" x2="276.8" y2="456.8"/>
			
				<line fill="none" stroke="#000000" stroke-width="4" stroke-linecap="round" stroke-linejoin="round" stroke-miterlimit="10" x1="290.8" y1="329.8" x2="287.8" y2="449.8"/>
			
				<text transform="matrix(-2.320000e-02 0.9997 -0.9997 -2.320000e-02 307.1484 350.2974)" font-family="'SourceCodePro-Bold'" font-size="12.5432px">brief</text>
		</g>
		
			<polygon fill="none" stroke="#000000" stroke-width="4" stroke-linecap="round" stroke-linejoin="round" stroke-miterlimit="10" points="
			156.5,304.8 177.8,327.3 145.8,335.8 		"/>
		
			<polygon fill="none" stroke="#000000" stroke-width="4" stroke-linecap="round" stroke-linejoin="round" stroke-miterlimit="10" points="
			208.8,304.3 189.8,326.8 220.3,334.3 		"/>
		<polyline fill="none" stroke="#000000" stroke-width="4" stroke-linecap="round" stroke-miterlimit="10" points="236.8,479.6 
			240.1,503.2 251.8,499.5 248.1,472.8 		"/>
		<polyline fill="none" stroke="#000000" stroke-width="4" stroke-linecap="round" stroke-miterlimit="10" points="189.8,326.8 
			184.5,341.2 177.8,327.3 		"/>
		<path fill="none" stroke="#000000" stroke-width="4" stroke-linecap="round" stroke-miterlimit="10" d="M160.6,331.8
			c0,0,5,19.7,24.3,19c19.3-0.7,20.7-19.8,20.7-19.8"/>
		<circle cx="160.6" cy="341.8" r="3.5"/>
		<circle cx="168.8" cy="350.3" r="3.5"/>
		<circle cx="179.9" cy="355" r="3.5"/>
		<circle cx="193.2" cy="354.7" r="3.5"/>
		<circle cx="203.3" cy="347.1" r="3.5"/>
		<polygon points="236.3,506.1 237.8,640.5 260.3,643.8 260.3,497.8 		"/>
		<path fill="none" stroke="#000000" stroke-width="4" stroke-linecap="round" stroke-miterlimit="10" d="M152.5,540.5
			c0,0,28,9.3,84-0.7"/>
		<polygon points="210.3,306.3 220.6,332.1 224.3,332.3 224.8,327.8 248.5,325.2 250.1,332.7 265.3,333 266,337.2 279.1,332.3 
			245.6,317.6 		"/>
		<path d="M321.5,406.5l-0.8,16.8l-14.6,15.2l-60.9,36.9l5.7,25.8c0,0,32.5-12.8,34.5-13.5c10.5-3.8,37.8-20,37.8-20l7.8-10l12-21.7
			l-2-18.3l-8-23.3l-11.7-24.3L321.5,406.5z"/>
		<path fill="none" stroke="#000000" stroke-width="2" stroke-linecap="round" stroke-miterlimit="10" d="M197.9,166.3
			c0.8-0.8,4.5-6.2,13.1-1.5c3.5,1.9,9.6,0.8,11-4.2c1.2-4.4-1.2-13.8,0.5-17.2c1.8-3.5,7-4.1,9-0.1s0,7.4-2.5,6.9"/>
		<path fill="none" stroke="#000000" stroke-width="2" stroke-linecap="round" stroke-miterlimit="10" d="M204.2,171.6
			c1.8-1.5,9.4-6,10.9-9.2s1.5-13.5-1.8-20.2c-2.5-5.3-5.4-7.5-9.9-4.8"/>
		<path fill="none" stroke="#000000" stroke-width="2" stroke-linecap="round" stroke-miterlimit="10" d="M139.8,171.3
			c-2.5-2.5-5-2.6-5.2-6.1s2.4-5.8,3.6-9.9c1.6-5.2,0.4-7.1-2.4-7.5c-3.6-0.5-21.8,3.8-19.8-5.5"/>
		<path fill="none" stroke="#000000" stroke-width="2" stroke-linecap="round" stroke-miterlimit="10" d="M138.3,175.8
			c0,0-4.2-5-8.8-3.1c-3.8,1.5-1.1,5.9-3.1,8.2c-2.5,3-4.9,3-8.5,0.8c-3.1-1.9-6.6-1.4-6.9,3.1"/>
		<path d="M127.3,198.1c0,0-4.5,15.5-1,18.8l8,2l-1-25.5L127.3,198.1z"/>
		<path fill="none" stroke="#000000" stroke-width="2" stroke-linecap="round" stroke-miterlimit="10" d="M164.8,154.6
			c-2.8-3.5-9.5-8.4-7.2-12.9s7.8-5.1,7.2-9.1"/>
		<circle cx="187.9" cy="165.7" r="0.9"/>
		<ellipse transform="matrix(0.866 -0.5 0.5 0.866 -58.5583 119.4609)" cx="193.6" cy="169" rx="0.9" ry="0.9"/>
		<ellipse transform="matrix(0.866 -0.5 0.5 0.866 -56.0909 119.3357)" cx="194.6" cy="164.3" rx="0.9" ry="0.9"/>
		<ellipse transform="matrix(0.866 -0.5 0.5 0.866 -59.5935 122.5211)" cx="198.8" cy="172.5" rx="0.9" ry="0.9"/>
		<ellipse transform="matrix(0.866 -0.5 0.5 0.866 -56.3295 123.8934)" cx="203" cy="167.1" rx="0.9" ry="0.9"/>
		<ellipse transform="matrix(0.866 -0.5 0.5 0.866 -60.2922 127.5607)" cx="207.9" cy="176.3" rx="0.9" ry="0.9"/>
		<ellipse transform="matrix(0.866 -0.5 0.5 0.866 -55.3936 132.415)" cx="219.4" cy="169.6" rx="0.9" ry="0.9"/>
		<ellipse transform="matrix(0.866 -0.5 0.5 0.866 -57.5453 134.6801)" cx="222.5" cy="174.7" rx="0.9" ry="0.9"/>
		<ellipse transform="matrix(0.866 -0.5 0.5 0.866 -52.6916 127.5657)" cx="211.7" cy="162.1" rx="0.9" ry="0.9"/>
		<ellipse transform="matrix(0.866 -0.5 0.5 0.866 -60.0332 125.2214)" cx="203.6" cy="174.6" rx="0.9" ry="0.9"/>
		<ellipse transform="matrix(0.8307 -0.5567 0.5567 0.8307 -65.6845 117.9337)" cx="161.1" cy="167" rx="0.9" ry="0.9"/>
		<ellipse transform="matrix(0.8307 -0.5567 0.5567 0.8307 -59.5116 119.1483)" cx="166.1" cy="157.4" rx="0.9" ry="0.9"/>
		<ellipse transform="matrix(0.8307 -0.5567 0.5567 0.8307 -69.437 107.7393)" cx="142.4" cy="168" rx="0.9" ry="0.9"/>
		<ellipse transform="matrix(0.8307 -0.5567 0.5567 0.8307 -76.3478 106.7121)" cx="137.3" cy="178.9" rx="0.9" ry="0.9"/>
		<ellipse transform="matrix(0.8307 -0.5567 0.5567 0.8307 -66.5023 114.5409)" cx="155.1" cy="166.6" rx="0.9" ry="0.9"/>
		<ellipse transform="matrix(0.8307 -0.5567 0.5567 0.8307 -72.1872 114.1796)" cx="151.6" cy="175.8" rx="0.9" ry="0.9"/>
		<ellipse transform="matrix(0.8307 -0.5567 0.5567 0.8307 -68.6005 115.4948)" cx="155.6" cy="170.5" rx="0.9" ry="0.9"/>
		<ellipse transform="matrix(0.8307 -0.5567 0.5567 0.8307 -67.8763 119.3099)" cx="162.2" cy="171.3" rx="0.9" ry="0.9"/>
		<path d="M136.7,434.5l13.3-35.9l-14-20l11.5-41.8c0.1-0.5,0.7-0.8,1.2-0.7c0.5,0.1,0.8,0.7,0.7,1.2l-11.2,40.9l14,20l-13.4,36.1
			l17.2,43.4l-0.9-143.8l-9.3,1.7l10.7-31l-22.7,12.3l-28,16l-11.5,11.2l-9,26l-4.5,53.5l-4,119l0.3,83.7l27.3-0.7l2.3-81l4.5-126.5
			l1.5-30l3-6.5c0,0,4,18.7,4,21.3s-1.3,55.3-1.3,55.3l-0.7,116l-2,82.7l41.3-3.3l-1.1-170.4L136.7,434.5z"/>
		<path d="M244.6,279.6c-7.2-6.2-2.5-26.8-3-43.2c-0.1-1.9-0.1-3.7-0.1-5.3c2.9-1.3,6.7-3.8,9.9-8c1.8-2.4,2.7-7.7-0.2-11
			c-2.2-2.6-4.2-4.2-6.1-5.2c-0.5-2-1.8-5.4-3.5-8.9c-2.2-4.5,0.5-5.8,0.8-9s0.2-8.8-2.8-15.5c-2.3-5.1-6.3-8.1-9-9.7c0,0,0,0,0,0
			c5.2-0.2,7.5-2.6,10-4c2.2-1.2,3.5-3.8,2.8-5.8s-6.2,1-9.5,1.5s-8,0.5-12.8-1.5s-11.8-8.2-16.2-11s-17.5-4.2-26-1.5
			s-10.8,12.8-10.8,12.8s-1,4,0,6.5c0,0.1,0.1,0.2,0.2,0.3c-0.1,0-0.1,0.1-0.2,0.1c-2.7-2.4-7.3-5.7-12.6-5.5
			c-8.3,0.3-11.7,13-14,18.7c-2.3,5.7-3.6,7.1-12.9,14.4c-5.1,4-7.1,8.1-7.7,12.4c0,0.1,0,0.2-0.1,0.3c-1.3,8.2-1.3,18.2-0.7,34.7
			c0.7,16.3,5.3,39.1-2,45.3s-8,8.5-7.2,13c0.6,3.8,4.2,7.8,15.2,8s29.5,0,30.7-1s4.2-11.5,3.8-12.5s-9.3-8.2-9.3-8.2
			s-11-15.8-11.2-17L136,249l-6.7-4.7l-3.2-10l1.5-18.2c0,0,0,0,0,0c1.8-3.1,4.2-3.5,3.5-5.2c-1-2.7-2.2-0.9-0.2-7.2s0.3-5.4,6-8.8
			s11-15.3,12.7-21.3c1.7-6,5-10,9-10.3c2.9-0.2,5.5,2.2,6.7,3.5c-0.4,4.2,2.5,6.7,6.2,9.2c4.5,3,11,4,15,4s13.5,0,16,2
			s7.5-0.5,3.5-3.5s-8.5-2.5-14.5-6s-8-4.5-11.5-8.5c4.5-1.8,9-1.5,14.2-2.2s13.5,0.2,21,0.8c1.6,0.1,2.9,0.2,4.2,0.4l1.6,2.1
			c0,0,5.2,11,5.5,12c0.2,0.8,0.6,8.4,0.7,10.8c-2.2-4-3.4-7.5-4.9-10.5c-2.1-4.3-4.7-6.7-11.5-5.8c-5.8,0.8,13.8,26.6,14.8,35.2
			c1.6,13.7,3.8,11.6,7.7,11.2l-0.6,12.8l-3.8,14.2l-4.5-0.2l-3,16c-0.2,1.2-9.5,20.5-9.5,20.5s-9.2,5-9.8,6s2.5,12.8,3.8,13.8
			s19,1.5,30,1.2s15.4-5.7,16-9.5C252.6,288.1,251.8,285.8,244.6,279.6z M128.6,283.4c0.1-0.2,0.4-0.3,0.7-0.2
			c0.2,0.1,0.3,0.4,0.2,0.7c0,0-2.1,3.6-1,6.8c1.2,3.3,4.3,5.2,4.3,5.2c0.2,0.1,0.3,0.5,0.2,0.7c-0.1,0.2-0.3,0.2-0.4,0.2
			c-0.1,0-0.2,0-0.3-0.1c-0.1-0.1-3.4-2.1-4.7-5.8C126.2,287.4,128.5,283.6,128.6,283.4z M123.5,297.5c-0.1,0.2-0.3,0.4-0.5,0.4
			c0,0-0.1,0-0.1,0c-0.1,0-2.7-0.7-4.8-4.5c-2.9-5.2,3.8-10.7,4-10.9c0.2-0.2,0.5-0.1,0.7,0.1s0.1,0.5-0.1,0.7
			c-0.1,0.1-6.3,5.1-3.8,9.6c1.9,3.4,4.2,4,4.2,4C123.4,297,123.6,297.3,123.5,297.5z M141.7,184.2c-0.7,1.1-2.8,2.6-5.4,4.5
			c-2.2,1.6-4.7,3.4-6.9,5.4c-4.5,4-4.1,14.7-4.1,14.9c0,0.3-0.2,0.5-0.5,0.5c0,0,0,0,0,0c-0.3,0-0.5-0.2-0.5-0.5
			c0-0.5-0.5-11.3,4.4-15.6c2.2-2,4.8-3.8,7-5.4c2.4-1.7,4.5-3.2,5.1-4.2c0.1-0.2,0.5-0.3,0.7-0.2
			C141.8,183.6,141.9,183.9,141.7,184.2z M174.3,153.5c-0.1,0-0.2,0-0.3-0.1c-0.2-0.1-0.3-0.5-0.2-0.7c0.1-0.2,2.6-4.2,5.9-6.5
			c4.8-3.3,9.4-2.4,9.6-2.3c0.3,0.1,0.4,0.3,0.4,0.6c-0.1,0.3-0.3,0.4-0.6,0.4c0,0-4.5-0.9-8.9,2.2c-3.1,2.2-5.6,6.2-5.6,6.2
			C174.6,153.5,174.5,153.5,174.3,153.5z M206.9,153.8c-0.1,0.2-0.4,0.3-0.7,0.2c-0.6-0.3-1.2-0.7-1.9-1.1c-2.8-1.7-7-4.2-13.2-4.5
			c-7.7-0.3-14.2,7.4-14.3,7.4c-0.1,0.1-0.2,0.2-0.4,0.2c-0.1,0-0.2,0-0.3-0.1c-0.2-0.2-0.2-0.5-0.1-0.7c0.3-0.3,6.7-7.8,14.6-7.8
			c0.2,0,0.3,0,0.5,0c6.5,0.3,10.8,2.9,13.7,4.7c0.7,0.4,1.3,0.8,1.8,1.1C206.9,153.3,207,153.6,206.9,153.8z M241.3,227.6
			c-0.1-3.5-0.1-6.1-0.1-8.1c1.6,0.7,2.2,1.7,2.2,3.5C243.5,224.7,242.5,226.2,241.3,227.6z M230.8,194.1c0.3-0.1,0.5,0.1,0.6,0.3
			c0,0.1,2,6,6.3,8.9c0.2,0.2,0.3,0.5,0.1,0.7c-0.1,0.1-0.3,0.2-0.4,0.2c-0.1,0-0.2,0-0.3-0.1c-4.6-3.1-6.6-9.2-6.7-9.4
			C230.4,194.5,230.5,194.2,230.8,194.1z M229.2,298.3c-0.1,0-0.2,0.1-0.3,0.1c-0.2,0-0.3-0.1-0.4-0.2c-0.1-0.2-0.1-0.5,0.2-0.7
			c1.2-0.7,4.6-4.1,4.8-7.4c0.2-3.2-3.7-6.8-3.8-6.8c-0.2-0.2-0.2-0.5,0-0.7c0.2-0.2,0.5-0.2,0.7,0c0.2,0.2,4.3,4,4.1,7.7
			C234.3,293.8,230.6,297.5,229.2,298.3z M234.7,208.3c-6.3-4.8-11.5-19.1-11.7-19.7c-0.1-0.3,0-0.5,0.3-0.6c0.3-0.1,0.5,0,0.6,0.3
			c0.1,0.1,5.3,14.7,11.3,19.3c3,2.3,5.8,3.7,8.1,4.8c2.5,1.3,4.5,2.3,5.5,3.8c0.1,0.2,0.1,0.5-0.2,0.7c-0.1,0.1-0.2,0.1-0.3,0.1
			c-0.2,0-0.3-0.1-0.4-0.2c-0.8-1.3-2.7-2.3-5.1-3.4C240.7,212.1,237.8,210.6,234.7,208.3z M240.5,298.6c-0.1,0-0.2,0.1-0.2,0.1
			c-0.2,0-0.3-0.1-0.4-0.3c-0.1-0.2,0-0.5,0.2-0.7c0.1,0,5.4-3.1,5.2-7c-0.2-4.8-4.1-6.6-8.2-8.1c-0.3-0.1-0.4-0.4-0.3-0.6
			s0.4-0.4,0.6-0.3c3.2,1.2,8.6,3.2,8.8,9C246.4,295.2,240.8,298.5,240.5,298.6z"/>
		<g>
			<path d="M204.8,152.1c0.7,0.4,1.3,0.8,1.8,1.1c0.2,0.1,0.3,0.4,0.2,0.7c-0.1,0.2-0.4,0.3-0.7,0.2c-0.6-0.3-1.2-0.7-1.9-1.1
				c-1.7-1.1-4.1-2.5-7.1-3.4c-1.3-0.3-2.7-0.6-4.1-0.9c-0.6-0.1-1.3-0.1-2-0.2c-3.5-0.1-6.7,1.3-9.2,3c10,0.4,28.2,3.1,38.3,16.3
				c5.9,7.8,6.4,19.3,6.1,26.1c0.9,2.1,2.1,4.4,3.4,6.7c0-0.2,0-0.3,0-0.5c0.4-2.2,3.2-22.1-6.3-34.7c-4.5-6-11.2-10.6-19.3-13.7
				C204.3,151.8,204.6,151.9,204.8,152.1z"/>
			<path d="M176,151.4c0.9-0.1,1.9-0.1,2.8-0.1c0.4,0,0.9,0,1.4,0c1.9-1.4,4.4-2.9,7.2-3.6c-2.4-0.3-5-0.4-7.5-0.4
				C178.4,148.6,177,150.2,176,151.4z"/>
			<path d="M134.5,188.7c0.2-6.6,1.3-13.9,4.5-18.8c6.3-9.7,21.2-17.2,35.7-18.4c0.8-1.1,2.1-2.8,3.7-4.2
				c-17.2,0.1-35.1,8.7-42.8,20.4c-4.2,6.5-5.2,16.3-5.2,24.1C131.8,190.7,133.2,189.7,134.5,188.7z"/>
			<path d="M226.1,195.9c-0.2,2.2-0.4,3.5-0.4,3.6l0,0.3c0,6.9-1.3,30.5-2.6,41.5c-1,8.4-3.7,21.2-8,29.3
				c-6.9,13-18.3,19.7-33.8,19.7c-24.9,0-35.7-19.9-37.6-23.8c-2.7-5.5-6.5-19.9-6.7-27c-0.3-7.7-1.6-35.7-1.6-36l0-0.2
				c0-0.1-0.9-6.1-0.8-13.3c-1.3,1-2.7,2-4,3.1c0.1,5.6,0.7,9.9,0.8,10.7c0.1,1.8,1.3,28.3,1.6,35.8c0.3,7.7,4.3,22.6,7.1,28.6
				c2.1,4.4,14,26.1,41.2,26.1c11.8,0,27.8-3.8,37.3-21.8c4.6-8.6,7.4-21.9,8.5-30.7c1.2-10,2.4-30.4,2.6-39.5
				C228.3,200.3,227.1,198,226.1,195.9z"/>
		</g>
	</g>
</g>
</svg>
