<svg id="Calque_1" data-name="Calque 1" xmlns="http://www.w3.org/2000/svg" viewBox="0 0 269.31 525.3"><defs><style>.cls-1,.cls-2,.cls-4{fill:none;stroke:#000;stroke-linecap:round;}.cls-1,.cls-4{stroke-miterlimit:10;}.cls-1,.cls-2{stroke-width:4px;}.cls-2{stroke-linejoin:round;}.cls-3{isolation:isolate;font-size:12.54px;font-family:ArialMT, Arial;}.cls-4{stroke-width:2px;}</style></defs><title>AgoisseBrief-01-2</title><circle cx="81.9" cy="88.4" r="2.9"/><path class="cls-1" d="M172.3,222.6a14.66,14.66,0,0,0-14.4-10.5,23,23,0,0,0-17.9,8.8,30.74,30.74,0,0,0,16.9,6.7C167.6,228.6,172.3,222.6,172.3,222.6Z" transform="translate(-75.1 -131.6)"/><path class="cls-1" d="M175.6,235.3c-.7,7-.3,9.2.5,11.3.7,1.7,5.7,5.4,6.7-1.6" transform="translate(-75.1 -131.6)"/><path d="M167.5,200.6c3.4,1.8,6,1.3,5.8-1.1-.2-3.7-6.2-6-14.5-6.2-13.7-.3-19.7,8.4-19,10.1s3.8-6.6,17.8-6C161.7,197.6,165.1,199.4,167.5,200.6Z" transform="translate(-75.1 -131.6)"/><path class="cls-1" d="M133.6,221.7s-7.7-6.3-7.7-.2,1,20.5,3.3,22.8a36.42,36.42,0,0,0,6.7,4.7" transform="translate(-75.1 -131.6)"/><path class="cls-1" d="M225,248.7s4.5-1.5,6.2-9.2c.7-3,4-19.3,2-21S227,221,227,221" transform="translate(-75.1 -131.6)"/><path class="cls-1" d="M160.5,287.5s1.6,10.7-4,17.3c-4.3,5.1-50.2,23-62.2,39.5-5.9,8.2-10.6,32.8-13.2,72.8-4,63-4,209.3-4,209.3l27.3-.7s3.7-243.2,11.3-244,4.5,220,4.5,220" transform="translate(-75.1 -131.6)"/><path class="cls-1" d="M281.3,333.3c-36.6-21.6-71.9-22.2-75.5-33.8-2.8-9.1-1.7-13.4-1.7-13.4" transform="translate(-75.1 -131.6)"/><path class="cls-1" d="M322.1,408.8c.2,9,1.1,9.1-1.5,14.5-12.5,26.2-86.3,57-86.3,57s-21,2.3-20.2-3.8c.7-5.3,1.3-4-3.6-2.2-3.2,1.2-10.3,3.6-11.4,8.2-1.2,5.2.4,17.3,4.7,26.3,1.6,3.3,14.2,4.1,16.8,3.2,4.8-1.5,20.8-8.7,20.8-8.7s34.1-7.8,72.8-30.2c29-16.8,30.8-43.2,26.4-59.2-3.8-14.1-11.5-28.3-17.5-39.5" transform="translate(-75.1 -131.6)"/><line class="cls-1" x1="65.2" y1="79.2" x2="68.4" y2="84.4"/><path class="cls-1" d="M147.6,206.2a62.16,62.16,0,0,0,2.3,6.3" transform="translate(-75.1 -131.6)"/><line class="cls-1" x1="81.7" y1="73.2" x2="82.8" y2="80.5"/><line class="cls-1" x1="91.7" y1="75.6" x2="90.7" y2="80.9"/><circle cx="125.9" cy="87.7" r="2.9"/><path class="cls-1" d="M185.7,221.9a14.66,14.66,0,0,1,14.4-10.5,23,23,0,0,1,17.9,8.8,30.74,30.74,0,0,1-16.9,6.7C190.4,227.9,185.7,221.9,185.7,221.9Z" transform="translate(-75.1 -131.6)"/><line class="cls-1" x1="142.6" y1="78.5" x2="139.4" y2="83.7"/><path class="cls-1" d="M210.4,205.4a62.16,62.16,0,0,1-2.3,6.3" transform="translate(-75.1 -131.6)"/><line class="cls-1" x1="126.1" y1="72.5" x2="125" y2="79.7"/><line class="cls-1" x1="116.1" y1="74.8" x2="117.1" y2="80.1"/><path d="M191.6,200.4c-3.4,1.8-6,1.3-5.8-1.1.2-3.7,6.2-6,14.5-6.2,13.7-.3,19.7,8.4,19,10.1s-3.8-6.6-17.8-6C197.4,197.3,194,199.1,191.6,200.4Z" transform="translate(-75.1 -131.6)"/><path class="cls-1" d="M166.1,262.5s9.7,2.2,13.8,2c4.5-.2,10-1,13.2-2.3" transform="translate(-75.1 -131.6)"/><path class="cls-1" d="M173.3,262.8s.5-3.3,2.3-3.5c3.8-.5,4.2,4.3,4.2,4.3" transform="translate(-75.1 -131.6)"/><path class="cls-1" d="M178.5,264.5s3.2-5.5,5.2-5.5,3.2,3.8,3.2,3.8" transform="translate(-75.1 -131.6)"/><path class="cls-1" d="M171.5,263.3s1.3,9.8,8.3,9.5c7.5-.3,8.3-8.7,8.3-8.7" transform="translate(-75.1 -131.6)"/><polyline class="cls-2" points="142 347.5 131.7 205.7 149.2 200.7 152.5 249.2 159.2 348.7 178.7 338.7 173.4 193.6 149.7 196.2 151.7 233.6"/><polyline class="cls-2" points="174 201.9 189.7 202.2 192.5 332.7 180 338.5"/><polyline class="cls-2" points="189.7 205.7 206.2 201.7 207.5 323.7 195 331"/><polygon class="cls-2" points="207.5 323.7 220.2 315.2 221.7 197.7 208.2 195.7 207.5 323.7"/><path class="cls-2" d="M298.5,339.8l23,2.3s2.3,74-.8,81.2-14.6,15.2-14.6,15.2l-9.8,6.5Z" transform="translate(-75.1 -131.6)"/><line class="cls-2" x1="139.7" y1="204.2" x2="149.2" y2="348.7"/><line class="cls-2" x1="145.2" y1="202.7" x2="154.2" y2="347.7"/><path class="cls-2" d="M231.8,329.3l10,145s-4.5-145-4.5-147" transform="translate(-75.1 -131.6)"/><line class="cls-2" x1="181.7" y1="203.2" x2="185.2" y2="334.7"/><line class="cls-2" x1="199.7" y1="204.2" x2="201.7" y2="325.2"/><line class="cls-2" x1="215.7" y1="198.2" x2="212.7" y2="318.2"/><text class="cls-3" transform="matrix(-0.02, 1, -1, -0.02, 232.05, 218.7)">brief</text><polygon class="cls-2" points="81.4 173.2 102.7 195.7 70.7 204.2 81.4 173.2"/><polygon class="cls-2" points="133.7 172.7 114.7 195.2 145.2 202.7 133.7 172.7"/><polyline class="cls-1" points="161.7 348 165 371.6 176.7 367.9 173 341.2"/><polyline class="cls-1" points="114.7 195.2 109.4 209.6 102.7 195.7"/><path class="cls-1" d="M160.6,331.8s5,19.7,24.3,19S205.6,331,205.6,331" transform="translate(-75.1 -131.6)"/><circle cx="85.5" cy="210.2" r="3.5"/><circle cx="93.7" cy="218.7" r="3.5"/><circle cx="104.8" cy="223.4" r="3.5"/><circle cx="118.1" cy="223.1" r="3.5"/><circle cx="128.2" cy="215.5" r="3.5"/><polygon points="161.2 374.5 162.7 508.9 185.2 512.2 185.2 366.2 161.2 374.5"/><path class="cls-1" d="M152.5,540.5s28,9.3,84-.7" transform="translate(-75.1 -131.6)"/><polygon points="135.2 174.7 145.5 200.5 149.2 200.7 149.7 196.2 173.4 193.6 175 201.1 190.2 201.4 190.9 205.6 204 200.7 170.5 186 135.2 174.7"/><path d="M321.5,406.5l-.8,16.8-14.6,15.2-60.9,36.9,5.7,25.8s32.5-12.8,34.5-13.5c10.5-3.8,37.8-20,37.8-20l7.8-10L343,436l-2-18.3-8-23.3-11.7-24.3Z" transform="translate(-75.1 -131.6)"/><path class="cls-4" d="M197.9,166.3c.8-.8,4.5-6.2,13.1-1.5,3.5,1.9,9.6.8,11-4.2,1.2-4.4-1.2-13.8.5-17.2a5,5,0,0,1,9-.1c2,4,0,7.4-2.5,6.9" transform="translate(-75.1 -131.6)"/><path class="cls-4" d="M204.2,171.6c1.8-1.5,9.4-6,10.9-9.2s1.5-13.5-1.8-20.2c-2.5-5.3-5.4-7.5-9.9-4.8" transform="translate(-75.1 -131.6)"/><path class="cls-4" d="M139.8,171.3c-2.5-2.5-5-2.6-5.2-6.1s2.4-5.8,3.6-9.9c1.6-5.2.4-7.1-2.4-7.5-3.6-.5-21.8,3.8-19.8-5.5" transform="translate(-75.1 -131.6)"/><path class="cls-4" d="M138.3,175.8s-4.2-5-8.8-3.1c-3.8,1.5-1.1,5.9-3.1,8.2-2.5,3-4.9,3-8.5.8-3.1-1.9-6.6-1.4-6.9,3.1" transform="translate(-75.1 -131.6)"/><path d="M127.3,198.1s-4.5,15.5-1,18.8l8,2-1-25.5Z" transform="translate(-75.1 -131.6)"/><path class="cls-4" d="M164.8,154.6c-2.8-3.5-9.5-8.4-7.2-12.9s7.8-5.1,7.2-9.1" transform="translate(-75.1 -131.6)"/><circle cx="112.8" cy="34.1" r="0.9"/><circle cx="118.49" cy="37.4" r="0.9"/><circle cx="119.48" cy="32.69" r="0.9"/><circle cx="123.69" cy="40.91" r="0.9"/><circle cx="127.9" cy="35.51" r="0.9"/><circle cx="132.8" cy="44.7" r="0.9"/><circle cx="144.3" cy="38" r="0.9"/><circle cx="147.38" cy="43.1" r="0.9"/><circle cx="136.6" cy="30.49" r="0.9"/><circle cx="128.48" cy="42.99" r="0.9"/><circle cx="86.01" cy="35.4" r="0.9"/><circle cx="90.98" cy="25.8" r="0.9"/><circle cx="67.28" cy="36.39" r="0.9"/><circle cx="62.2" cy="47.3" r="0.9"/><circle cx="80" cy="34.99" r="0.9"/><circle cx="76.49" cy="44.21" r="0.9"/><circle cx="80.49" cy="38.89" r="0.9"/><circle cx="87.1" cy="39.72" r="0.9"/><path d="M136.7,434.5,150,398.6l-14-20,11.5-41.8a1,1,0,1,1,1.9.5l-11.2,40.9,14,20-13.4,36.1L156,477.7l-.9-143.8-9.3,1.7,10.7-31-22.7,12.3-28,16L94.3,344.1l-9,26-4.5,53.5-4,119,.3,83.7,27.3-.7,2.3-81,4.5-126.5,1.5-30,3-6.5s4,18.7,4,21.3-1.3,55.3-1.3,55.3l-.7,116-2,82.7,41.3-3.3-1.1-170.4Z" transform="translate(-75.1 -131.6)"/><path d="M244.6,279.6c-7.2-6.2-2.5-26.8-3-43.2-.1-1.9-.1-3.7-.1-5.3a26.14,26.14,0,0,0,9.9-8c1.8-2.4,2.7-7.7-.2-11a20.84,20.84,0,0,0-6.1-5.2,52.69,52.69,0,0,0-3.5-8.9c-2.2-4.5.5-5.8.8-9a30.87,30.87,0,0,0-2.8-15.5,22,22,0,0,0-9-9.7h0c5.2-.2,7.5-2.6,10-4,2.2-1.2,3.5-3.8,2.8-5.8s-6.2,1-9.5,1.5a24.17,24.17,0,0,1-12.8-1.5c-4.8-2-11.8-8.2-16.2-11s-17.5-4.2-26-1.5-10.8,12.8-10.8,12.8-1,4,0,6.5c0,.1.1.2.2.3-.1,0-.1.1-.2.1-2.7-2.4-7.3-5.7-12.6-5.5-8.3.3-11.7,13-14,18.7s-3.6,7.1-12.9,14.4c-5.1,4-7.1,8.1-7.7,12.4a.37.37,0,0,1-.1.3c-1.3,8.2-1.3,18.2-.7,34.7.7,16.3,5.3,39.1-2,45.3s-8,8.5-7.2,13c.6,3.8,4.2,7.8,15.2,8s29.5,0,30.7-1S161,290,160.6,289s-9.3-8.2-9.3-8.2-11-15.8-11.2-17L136,249l-6.7-4.7-3.2-10,1.5-18.2h0c1.8-3.1,4.2-3.5,3.5-5.2-1-2.7-2.2-.9-.2-7.2s.3-5.4,6-8.8,11-15.3,12.7-21.3,5-10,9-10.3c2.9-.2,5.5,2.2,6.7,3.5-.4,4.2,2.5,6.7,6.2,9.2,4.5,3,11,4,15,4s13.5,0,16,2,7.5-.5,3.5-3.5-8.5-2.5-14.5-6-8-4.5-11.5-8.5c4.5-1.8,9-1.5,14.2-2.2s13.5.2,21,.8c1.6.1,2.9.2,4.2.4l1.6,2.1s5.2,11,5.5,12c.2.8.6,8.4.7,10.8-2.2-4-3.4-7.5-4.9-10.5-2.1-4.3-4.7-6.7-11.5-5.8-5.8.8,13.8,26.6,14.8,35.2,1.6,13.7,3.8,11.6,7.7,11.2l-.6,12.8L228.9,245l-4.5-.2-3,16c-.2,1.2-9.5,20.5-9.5,20.5s-9.2,5-9.8,6,2.5,12.8,3.8,13.8,19,1.5,30,1.2,15.4-5.7,16-9.5C252.6,288.1,251.8,285.8,244.6,279.6Zm-116,3.8a.51.51,0,1,1,.9.5s-2.1,3.6-1,6.8a11.43,11.43,0,0,0,4.3,5.2.62.62,0,0,1,.2.7.4.4,0,0,1-.4.2.37.37,0,0,1-.3-.1,12.47,12.47,0,0,1-4.7-5.8C126.2,287.4,128.5,283.6,128.6,283.4Zm-5.1,14.1a.66.66,0,0,1-.5.4h-.1c-.1,0-2.7-.7-4.8-4.5-2.9-5.2,3.8-10.7,4-10.9a.5.5,0,1,1,.6.8c-.1.1-6.3,5.1-3.8,9.6,1.9,3.4,4.2,4,4.2,4C123.4,297,123.6,297.3,123.5,297.5Zm18.2-113.3c-.7,1.1-2.8,2.6-5.4,4.5a81.26,81.26,0,0,0-6.9,5.4c-4.5,4-4.1,14.7-4.1,14.9a.47.47,0,0,1-.5.5h0a.47.47,0,0,1-.5-.5c0-.5-.5-11.3,4.4-15.6a82.29,82.29,0,0,1,7-5.4c2.4-1.7,4.5-3.2,5.1-4.2a.62.62,0,0,1,.7-.2C141.8,183.6,141.9,183.9,141.7,184.2Zm32.6-30.7a.37.37,0,0,1-.3-.1.62.62,0,0,1-.2-.7,24.34,24.34,0,0,1,5.9-6.5,12.78,12.78,0,0,1,9.6-2.3.51.51,0,1,1-.2,1,12.44,12.44,0,0,0-8.9,2.2,25.24,25.24,0,0,0-5.6,6.2C174.6,153.5,174.5,153.5,174.3,153.5Zm32.6.3a.57.57,0,0,1-.7.2c-.6-.3-1.2-.7-1.9-1.1a26.65,26.65,0,0,0-13.2-4.5c-7.7-.3-14.2,7.4-14.3,7.4a.52.52,0,0,1-.4.2.37.37,0,0,1-.3-.1.62.62,0,0,1-.1-.7c.3-.3,6.7-7.8,14.6-7.8h.5a26.92,26.92,0,0,1,13.7,4.7c.7.4,1.3.8,1.8,1.1A.45.45,0,0,1,206.9,153.8Zm34.4,73.8c-.1-3.5-.1-6.1-.1-8.1a3.3,3.3,0,0,1,2.2,3.5C243.5,224.7,242.5,226.2,241.3,227.6Zm-10.5-33.5a.49.49,0,0,1,.6.3c0,.1,2,6,6.3,8.9a.49.49,0,0,1,.1.7.76.76,0,0,1-.4.2.37.37,0,0,1-.3-.1c-4.6-3.1-6.6-9.2-6.7-9.4A.62.62,0,0,1,230.8,194.1Zm-1.6,104.2c-.1,0-.2.1-.3.1a.52.52,0,0,1-.4-.2.53.53,0,0,1,.2-.7c1.2-.7,4.6-4.1,4.8-7.4s-3.7-6.8-3.8-6.8a.49.49,0,0,1,.7-.7c.2.2,4.3,4,4.1,7.7C234.3,293.8,230.6,297.5,229.2,298.3Zm5.5-90c-6.3-4.8-11.5-19.1-11.7-19.7a.47.47,0,0,1,.9-.3c.1.1,5.3,14.7,11.3,19.3a43.47,43.47,0,0,0,8.1,4.8c2.5,1.3,4.5,2.3,5.5,3.8a.53.53,0,0,1-.2.7.37.37,0,0,1-.3.1.52.52,0,0,1-.4-.2c-.8-1.3-2.7-2.3-5.1-3.4C240.7,212.1,237.8,210.6,234.7,208.3Zm5.8,90.3a.35.35,0,0,0-.2.1c-.2,0-.3-.1-.4-.3a.66.66,0,0,1,.2-.7c.1,0,5.4-3.1,5.2-7-.2-4.8-4.1-6.6-8.2-8.1a.45.45,0,0,1-.3-.6c.1-.2.4-.4.6-.3,3.2,1.2,8.6,3.2,8.8,9C246.4,295.2,240.8,298.5,240.5,298.6Z" transform="translate(-75.1 -131.6)"/><path d="M204.8,152.1c.7.4,1.3.8,1.8,1.1a.51.51,0,0,1-.5.9c-.6-.3-1.2-.7-1.9-1.1a27.69,27.69,0,0,0-7.1-3.4c-1.3-.3-2.7-.6-4.1-.9-.6-.1-1.3-.1-2-.2a15.81,15.81,0,0,0-9.2,3c10,.4,28.2,3.1,38.3,16.3,5.9,7.8,6.4,19.3,6.1,26.1a70.65,70.65,0,0,0,3.4,6.7v-.5c.4-2.2,3.2-22.1-6.3-34.7-4.5-6-11.2-10.6-19.3-13.7A2,2,0,0,1,204.8,152.1Z" transform="translate(-75.1 -131.6)"/><path d="M176,151.4a26.2,26.2,0,0,1,2.8-.1h1.4a21.15,21.15,0,0,1,7.2-3.6,61.72,61.72,0,0,0-7.5-.4A36.33,36.33,0,0,0,176,151.4Z" transform="translate(-75.1 -131.6)"/><path d="M134.5,188.7c.2-6.6,1.3-13.9,4.5-18.8,6.3-9.7,21.2-17.2,35.7-18.4a25.79,25.79,0,0,1,3.7-4.2c-17.2.1-35.1,8.7-42.8,20.4-4.2,6.5-5.2,16.3-5.2,24.1C131.8,190.7,133.2,189.7,134.5,188.7Z" transform="translate(-75.1 -131.6)"/><path d="M226.1,195.9c-.2,2.2-.4,3.5-.4,3.6v.3c0,6.9-1.3,30.5-2.6,41.5-1,8.4-3.7,21.2-8,29.3-6.9,13-18.3,19.7-33.8,19.7-24.9,0-35.7-19.9-37.6-23.8-2.7-5.5-6.5-19.9-6.7-27-.3-7.7-1.6-35.7-1.6-36v-.2a94.74,94.74,0,0,1-.8-13.3c-1.3,1-2.7,2-4,3.1a95.31,95.31,0,0,0,.8,10.7c.1,1.8,1.3,28.3,1.6,35.8.3,7.7,4.3,22.6,7.1,28.6,2.1,4.4,14,26.1,41.2,26.1,11.8,0,27.8-3.8,37.3-21.8,4.6-8.6,7.4-21.9,8.5-30.7,1.2-10,2.4-30.4,2.6-39.5A45.27,45.27,0,0,1,226.1,195.9Z" transform="translate(-75.1 -131.6)"/></svg>