<?xml version="1.0" encoding="utf-8"?>
<!-- Generator: Adobe Illustrator 21.0.0, SVG Export Plug-In . SVG Version: 6.00 Build 0)  -->
<svg version="1.1" id="Calque_1" xmlns="http://www.w3.org/2000/svg" xmlns:xlink="http://www.w3.org/1999/xlink" x="0px" y="0px"
	 viewBox="0 0 841.9 595.3" style="enable-background:new 0 0 841.9 595.3;" xml:space="preserve">
<style type="text/css">
	.st0{fill:none;stroke:#000000;stroke-width:4;stroke-linecap:round;stroke-miterlimit:10;}
	.st1{fill:none;stroke:#000000;stroke-width:4;stroke-linecap:round;stroke-linejoin:round;stroke-miterlimit:10;}
	.st2{font-family:'HelveticaNeue-Black';}
	.st3{font-size:7.5052px;}
	.st4{font-size:3.7526px;}
	.st5{font-family:'Helvetica';}
	.st6{font-size:6.2766px;}
	.st7{fill:#FFFFFF;}
	.st8{fill:none;stroke:#000000;stroke-miterlimit:10;}
</style>
<g>
	<g>
		<g>
			<polygon points="255.4,360.4 321.3,359.4 320.6,364.9 255.7,364.9 			"/>
			<polygon points="218.6,259.4 324.6,258.4 323.6,263.9 219.1,263.9 			"/>
			<polygon points="218.6,279.9 317.1,278.9 316.1,284.4 219.1,284.4 			"/>
			<polygon points="229.2,300.9 314.7,299.9 313.9,305.3 229.6,305.3 			"/>
			<polygon points="234.8,321.4 304.1,320.4 303.4,325.9 235.1,325.9 			"/>
			<polygon points="245.4,340.4 296.1,339.4 295.6,344.9 245.7,344.9 			"/>
			<path d="M333.9,417.3l-4-4.7l-1.4-0.4v9.5c0,5.5-4.5,10-10,10h-45.9l-0.3,20.8l1.2,1.4l-1.3,2.6l-0.7,48.2l2.4,3.2l-2.2,10.7
				h-0.4v2.6l87.3-8l1.1-11.4l-1.2-81.2L333.9,417.3z M307.1,433.9l12,19l-9.5,19l-14.5-20L307.1,433.9z M284.6,504.4l-12-20
				l11.5-22l14,24L284.6,504.4z M318.6,515.4l-12.2,1.8l-4.2-9.2c2.2-2.8,9-16.5,9-16.5l10.2,14.8L318.6,515.4z M332.6,498.4l-13-19
				l9-19.5l14.5,19.5L332.6,498.4z M333.6,437.4l10-17l11,18.5l-10.5,15.5L333.6,437.4z M355.3,510.9l-6.5,0.8l-3-9.5
				c0.8-0.8,6.5-16.2,6.5-16.2l5.5,13.8L355.3,510.9z"/>
			<path d="M272.6,484.4l3.1-6l-0.4-46.7h-1.1c-6,0-10.9-4.9-10.9-10.9v-47.4c-7.3-17.4-16.2-39.4-21.8-54.9
				c-8.3-23.4-32.3-88.1-32.3-88.1l-29.7,8.6l13.2-1.4l-10.1,16.3l-3.1-14.9l-20.5,8.5L147,269l-18,68l-11,68l6,40l19.5,66.5
				L168,572l7.8,11.4l13.7-52.9l-1-10l-17.5-69l-2.5-41.5l6-52c0,0,12-55.5,14.6-56.5s3.9,43,3.9,43V512l18.8,3.4l-1.2-11.4
				l8.3-11.7c0,0,7.7,13,7.7,14.7c0,1.4-2.5,8.5-3.2,10.5h0.1L276,522l-0.3-32.1L272.6,484.4z M171.4,255.6l7.3,21.3l-14,20.7
				l-6.7-25.3L171.4,255.6z M159.6,346.8l-16,17l-4.5-20.5l12-16.5L159.6,346.8z M162.8,365.9l4.7,16.7l-6,27.3l-11.3-23.3
				L162.8,365.9z M145.4,284.6l5.3,22.7l-15.3,20C135.4,327.3,140.8,295.9,145.4,284.6z M119.9,400.6c0,0,6.2-32,10.9-42.7l4,19.3
				L119.9,400.6z M138.1,475.3c0,0-10.7-24.7-12-35.3l12.7,8L138.1,475.3z M137.4,433.3L126.1,414l9.3-15.3l14,16L137.4,433.3z
				 M158.8,539.3c0,0-11.3-27.3-12.7-37.3l12.7,9.3V539.3z M157.4,494.6l-12.7-14.7l3.3-19.3l14.7,13.3L157.4,494.6z M180.8,559.9
				l-16-18l2.7-18l14,12L180.8,559.9z M171.4,487.3l8,10l2,24l-14.7-16L171.4,487.3z M169.4,437.9l-6,28l-14.7-23.3l8.7-15.3
				L169.4,437.9z M172.8,342.6l-9.3-24l19.3-20L172.8,342.6z M273.4,453.9l-11.3,23.3l-12.7-22l10-18L273.4,453.9z M263.1,393.4
				l-10.5,21l-11-20.5l10-19L263.1,393.4z M236.1,413.3l10.7,17.3l-9.3,20.7l-8.7-21.3L236.1,413.3z M222.1,414.6l-11.3-19.3l8-21.3
				l11.3,19.3L222.1,414.6z M247.4,357.9l-10.7,18l-11.3-17.3l10-20L247.4,357.9z M228.1,312.6l-10,24.7l-13.3-22.7l11.3-25.3
				L228.1,312.6z M189.4,265.9l10.7-21.3l11.3,20l-10.7,18.7L189.4,265.9z M200.8,336.6l12,19.3l-9.3,26l-9.3-18L200.8,336.6z
				 M202.8,405.3l10,16.7l-8,19.3l-8.7-21.3L202.8,405.3z M198.8,508.6c0,0-0.7-17.3,1.3-32.7l8,14.7L198.8,508.6z M218.8,480.6
				l-10-19.3l9.3-17.3l10.7,18.7L218.8,480.6z M238.8,510.6l-10-22.7l10.7-17.3l12,18L238.8,510.6z M271.6,518.7l-13.2,0.2
				l-3.2-10.5l7.8-15l11,14.5L271.6,518.7z"/>
			<circle cx="244.7" cy="131.6" r="2.9"/>
			<circle cx="286.5" cy="131.8" r="2.9"/>
			<path class="st0" d="M257.8,132.5c0,0-2.6-7.6-12.8-7.7s-14.8,7-14.8,7s5.5,5.3,14.8,6.2C254.4,138.9,257.8,132.5,257.8,132.5z"
				/>
			<path class="st0" d="M274.6,133.1c0,0,2.6-7.6,12.7-7.7s14.7,7,14.7,7s-5.4,5.3-14.7,6.2S274.6,133.1,274.6,133.1z"/>
			<path class="st0" d="M310.5,113.8c0,6.8,0.4,32.8-0.9,44.1c-1.1,9.4-6.2,20.5-10.2,28.5c-3.5,6.9-9.2,25.8-32.5,25.8
				c-23.9,0-36.1-28.8-39.7-34c-3.6-5.2-3.8-18-4-25.5c-0.3-7.8-1.6-35.9-1.6-35.9"/>
			<path d="M256.5,122.7c3.6,1.6,4.7,0.5,4.7-2.3s-5.7-7.6-12.9-7.8c-7.2-0.2-16.8,2.5-20.7,8.5c-3.5,5.3-1.4,4.4,1,2.8
				c2.5-1.6,10.9-3.1,15.5-3.4C248.8,120.1,253.9,121.5,256.5,122.7z"/>
			<path d="M276,123c-3.6,1.6-4.7,0.5-4.7-2.3s5.7-7.6,12.9-7.8c7.2-0.2,16.8,2.5,20.7,8.5c3.5,5.3,1.4,4.4-1,2.8
				c-2.5-1.6-10.9-3.1-15.5-3.4C283.7,120.4,278.6,121.9,276,123z"/>
			<path class="st0" d="M259.9,176.9c3.2,1.1,8.3,0.8,10.5,0"/>
			<path class="st0" d="M262.9,186.7c1.8,0.6,4.7,0.5,5.9,0"/>
			<path class="st0" d="M221.6,134.9c0,0-6.1-3.1-6.1,3.1s0.8,18,3.1,20.3s2.3,2.3,2.3,2.3"/>
			<path class="st0" d="M311.5,131.6c0,0,5-1.9,5,0.8s0.5,17.2-1.4,19.9s-4.6,6.8-4.6,6.8"/>
			<path class="st0" d="M355.2,367.8c-2.2-52.9-3.2-71.2-0.5-77.1c1.6-3.5,73.9,30.9,84.6,59.2c6.3,16.5-51,25.5-51,25.5
				s1.8,33.2,8.5,45c0,0,27.8-2,57-13c32-12,48-34,36-65.5c-19-50-84.6-91.8-103.7-101c-9.3-4.5-24.5-9.2-32.9-11.5
				s-31.4-6.1-38.3-8.4c-6.9-2.3-13.2-5-14.7-10.4s-0.8-24.2-0.8-24.2"/>
			<path class="st0" d="M264.6,135.7c0,0-3.5,27.2-2,29s4,2.5,4.5,0.5"/>
			<path class="st1" d="M223.4,223.7c0,0,20,16.2,43,16.2s36.2-9.8,44.2-19.8"/>
			<path class="st1" d="M216.6,227.7c0.8,0.5,19.2,20.2,52.2,19.5c33.2-0.8,50.2-24.4,50.2-24.4"/>
			<g>
				<text transform="matrix(1 0 0 1 273.9058 414.7858)" class="st2 st3">pantone</text>
				<text transform="matrix(1 0 0 1 312.3058 412.2858)" class="st2 st4">®</text>
				<text transform="matrix(1 0 0 1 273.9058 421.0944)" class="st5 st6">563</text>
				<path d="M268.3,404.5v-42.3c0-4,3.2-7.2,7.2-7.2h41.1c4,0,7.2,3.2,7.2,7.2v42.3H268.3z"/>
				<path class="st0" d="M316.7,426.9h-41.6c-4,0-7.2-3.2-7.2-7.2v-57.9c0-4,3.2-7.2,7.2-7.2h41.6c4,0,7.2,3.2,7.2,7.2v57.9
					C323.9,423.7,320.7,426.9,316.7,426.9z"/>
			</g>
			<g>
				<path class="st1" d="M388.4,383.6c-4.4,0.3-6.3,0.8-8.7-2.2c-4.6-5.9-4.2-6.1-10.4-9.5c-3.3-1.8-7.1-3.1-13.8-3.3
					c-8.1-0.2-18.3,0-19.6,0.5c-1.4,0.6-5.3,2-5.5,6.9c-0.2,5,0.6,5.9,4.8,5.8c4.2,0,17.8,1,17.8,1s-19.7-2.3-21.5-0.1
					c-1.7,2.2-2.2,6.5-1.4,8.1s2.6,3.1,3.7,3.3c1.2,0.2,17.6,1.8,17.6,1.8s-16.2-2.7-19.9,0c-1.9,1.4-2.9,7.8-0.5,9
					c2.4,1.3,15.1,1.6,18.7,2.4c3.6,0.7-15.4-1.1-16.9,0c-2.1,1.6-3.4,8.3,1.7,10.1c5.1,1.8,19.7,2.3,23,2.8s8.6,0.3,12.5-0.2
					s10-1.6,13.6-3.3c4.7-2.2,9.3-3.8,9.3-3.8"/>
				<path class="st0" d="M330.7,372.4c0,0-3.3-3.4-1.1-5.2s7.1-3.4,8.6-4.9c1.6-1.5,5.6-3.2,8.4-1.3c2.7,2,7.3,5.7,8.6,6.8"/>
			</g>
			<path class="st0" d="M324.7,379.1c0,0,4.2-4.7,4.7-5s-1.5-4.8-1.5-4.8l-5.3,1.3"/>
			<polyline class="st0" points="325,403.8 330.7,405.7 330.9,411.3 324,409.3 			"/>
			<path class="st1" d="M357.7,420.4l0.8,92.9c0,0-56,8-87.3,8s-64.3-4.9-78.1-9.3c0,0,3.8-211.3-3.9-210.5
				c-3.8,0.4-14.8,45.9-20.7,103.8c-4,39.3,22,118.7,22,118.7s-11.1,59.1-14.7,59.3c-3.5,0.3-61.3-130.7-56-182.7
				c4.6-44.6,10.7-68.7,18-101.5c6.7-30,17.4-47.8,25.8-53.4c8.4-5.6,39.3-13.3,45.6-15.4c6.3-2.1,22.5-11.1,24.6-17.4
				c2.1-6.3-0.5-23.5-0.5-23.5"/>
			<polyline class="st1" points="193.1,511.9 190.6,527.2 198.1,542.4 185.9,585.9 177.9,579.3 			"/>
			<line class="st1" x1="199.9" y1="535.9" x2="182.4" y2="600.9"/>
			<line class="st1" x1="179.4" y1="582.9" x2="177.4" y2="656.9"/>
			<path class="st1" d="M190.6,527.2c0,0,30.4,10.9,79.9,11.9s87.8-10.2,87.8-10.2"/>
			<path class="st0" d="M358.5,513.3c3.3,15.3,13.3,94.7,14.7,132.7"/>
			<path d="M295.9,79.4c0,0-3,3.1,6.2,14.2c9.8,11.8,6.2,29.8,6.2,34.5c0,4.7,1,4.3,5.5-8.2c7-19.5-4.7-39-10-43
				C298.5,72.9,295.9,79.4,295.9,79.4z"/>
			<path class="st0" d="M263.2,171.1c-1.3-0.2-3.8-1.5-5.7,0.3c-1.8,1.8-3.3,4.5-5,5s-5.3-0.3-4-3.2"/>
			<path class="st0" d="M268.6,171.1c1.3-0.2,3.8-1.5,5.7,0.3c1.8,1.8,3.3,4.5,5,5s5.3-0.3,4-3.2"/>
			<path d="M303.9,76.9c-2.7-4.2-14-11.3-22.7-14c-8.7-2.7-14.2-1.8-18.2-2c-2.7-0.1-9-1.3-14.2-2.5c-5.1-1.2-9.7-2.3-14.5-2.7
				c-3.3-0.2-7.9-1.5-12.5,3.8c-3.9,4.5-3.2,16.5-1,21c4.8,10,12.5,11.5,12.5,11.5c4.1-3.4,7.6-4.8,15-4.3
				c5.5,0.3,10.3,4.2,16.8,4.2c7.3,0,8.4-1.7,12.5-3.2c5.7-2,11.4-1.9,17.7,0.7c9.7,4,13.5,25.5,13.5,25.5S315.9,95.6,303.9,76.9z
				 M237.8,81c-0.1,0.2-0.3,0.3-0.5,0.3c-0.1,0-0.1,0-0.2,0c-10.6-4.6-12-13.1-12-13.5c0-0.3,0.1-0.5,0.4-0.6c0.3,0,0.5,0.1,0.6,0.4
				c0,0.1,1.4,8.4,11.5,12.7C237.8,80.4,237.9,80.7,237.8,81z M246.5,80.4c-0.1,0.2-0.3,0.3-0.4,0.3c-0.1,0-0.2,0-0.2-0.1
				c-13.7-7.5-16.3-16.1-16.4-16.5c-0.1-0.3,0.1-0.5,0.3-0.6c0.3-0.1,0.5,0.1,0.6,0.3c0,0.1,2.6,8.6,15.9,15.9
				C246.5,79.8,246.6,80.1,246.5,80.4z M257.8,79.1c-0.1,0.2-0.3,0.3-0.5,0.3c-0.1,0-0.1,0-0.2,0c-18.7-7.7-21.8-16.6-22-17
				c-0.1-0.3,0.1-0.5,0.3-0.6c0.3-0.1,0.5,0.1,0.6,0.3c0,0.1,3.2,8.9,21.4,16.4C257.8,78.6,257.9,78.9,257.8,79.1z"/>
			<path d="M239.6,76.6c-0.8-0.2-1.6-0.3-2.4,0.1c-1.2,0.5-2.8,0.7-4.5,0.9c1.3,1,2.9,2,4.8,2.8c0.3,0.1,0.4,0.4,0.3,0.7
				c-0.1,0.2-0.3,0.3-0.5,0.3c-0.1,0-0.1,0-0.2,0c-2.4-1-4.3-2.2-5.8-3.5c-5.3,0.9-11.9,3.3-16.5,16.7c-3.2,9.4,6.7,40.5,6.7,40.5
				s1.5,13.8,4.5-26.2c0.8-10.2,3.2-13.5,8.5-17.5s11.9-5.2,11.9-5.2s-1.7-4.7-4.3-7.5C241.3,77.8,240.4,77.2,239.6,76.6z
				 M218.7,96.4L218.7,96.4c-0.3,0-0.5-0.2-0.5-0.5c0.2-3.6,3.8-8.7,3.9-8.9c0.2-0.2,0.5-0.3,0.7-0.1c0.2,0.2,0.3,0.5,0.1,0.7
				c0,0.1-3.6,5.1-3.7,8.4C219.2,96.2,219,96.4,218.7,96.4z M225.2,89.2c0,0-3.7,3.5-3.7,13.8c0,0.3-0.2,0.5-0.5,0.5
				s-0.5-0.2-0.5-0.5c0-10.8,3.8-14.4,4-14.5c0.2-0.2,0.5-0.2,0.7,0C225.4,88.6,225.4,89,225.2,89.2z"/>
			<line class="st1" x1="257.4" y1="521.6" x2="256.4" y2="537.9"/>
			<line class="st1" x1="242.8" y1="520.9" x2="240.8" y2="536.6"/>
			<path class="st1" d="M227.1,535.3l2.3-16L227.1,535.3z"/>
			<line class="st1" x1="217.8" y1="518.6" x2="214.8" y2="532.9"/>
			<line class="st1" x1="205.1" y1="516.3" x2="202.1" y2="529.9"/>
			<line class="st1" x1="295.4" y1="520.3" x2="296.8" y2="537.9"/>
			<line class="st1" x1="306.1" y1="519.9" x2="307.4" y2="537.3"/>
			<line class="st1" x1="316.1" y1="518.9" x2="317.8" y2="536.6"/>
			<line class="st1" x1="325.6" y1="518.2" x2="327.8" y2="535.3"/>
			<line class="st1" x1="337.1" y1="516.6" x2="339.1" y2="532.3"/>
			<line class="st1" x1="348.8" y1="515.3" x2="351.1" y2="530.3"/>
			<line class="st1" x1="271.2" y1="521.3" x2="270.5" y2="539.1"/>
			<line class="st1" x1="283.1" y1="522.6" x2="283.8" y2="537.6"/>
			<line class="st0" x1="230.4" y1="228.9" x2="226.1" y2="233.9"/>
			<line class="st0" x1="241.1" y1="234.6" x2="237.4" y2="240.6"/>
			<line class="st0" x1="253.8" y1="239.3" x2="251.6" y2="244.7"/>
			<line class="st0" x1="266.4" y1="239.9" x2="266.3" y2="247.2"/>
			<line class="st0" x1="279.4" y1="239.3" x2="281.3" y2="244.7"/>
			<line class="st0" x1="290.8" y1="236.6" x2="293.8" y2="241.3"/>
			<line class="st0" x1="300.8" y1="230.3" x2="307.4" y2="234.3"/>
			<line class="st0" x1="310.1" y1="223.9" x2="315.4" y2="225.9"/>
			<path class="st8" d="M214.3,540.9c0,0-8.5,91.5-9.5,117.5"/>
			<path class="st8" d="M216.9,541.3c0,0-8.5,91.5-9.5,117.5"/>
			<path class="st8" d="M241.3,544.9c0,0-8.5,91.5-9.5,117.5"/>
			<path class="st8" d="M243.9,545.3c0,0-8.5,91.5-9.5,117.5"/>
			<path class="st8" d="M273.4,545.2c0,0-1.4,91.9-3.2,117.8"/>
			<path class="st8" d="M270.8,545.3c0,0-1.4,91.9-3.2,117.8"/>
			<path class="st8" d="M303.1,544.2c0,0,1.8,91.9,0.9,117.9"/>
			<path class="st8" d="M300.4,544.3c0,0,1.8,91.9,0.9,117.9"/>
			<path class="st8" d="M327.1,543.3c0,0,9,91.5,10.1,117.5"/>
			<path class="st8" d="M324.5,543.6c0,0,9,91.5,10.1,117.5"/>
			<path class="st8" d="M352.5,539.6c0,0,9,91.5,10.1,117.5"/>
			<path class="st8" d="M349.8,539.9c0,0,9,91.5,10.1,117.5"/>
			<path class="st1" d="M292.9,347.3c-2.4-4.2-7.6-7.9-3.8-13c4.5-5.8,9-11.1,7.7-17c-1.5-6.7-8.4-6.7-9.5-14.3
				c-0.8-5.8,4.2-9.5,8.1-9.5"/>
			<g>
				<path d="M297.5,340.4l-0.1-0.7c-0.2-2.3-0.4-4.6,1.6-8.6c1.2-2.5,2.9-4.1,4.5-5.6s3.1-3,4-5.2c0.8-2,0.6-3.8-0.6-5.1
					c-1.1-1.2-2.8-1.7-4.4-1.3l-12.8,35.7h10.1C299,347.1,297.6,342.5,297.5,340.4z"/>
				<path d="M489.9,341.9l-14.8-28l-25.8-26.2l4.8,16.7l-16-6.5l-6-18l16.1,6.6l-3.6-3.6l-29.5-24.5l10,13.5l-20-5l-3.5-14.5l13.5,6
					l-29-17.5l-26.5-9.5l-25.5-6l-30.9,86.3c1.9,0,3.8,0.7,5.1,2.1c1.7,1.8,2,4.4,1,7.2c-1,2.7-2.8,4.3-4.5,5.9
					c-1.5,1.5-3,2.9-4.1,5c-1.7,3.5-1.5,5.4-1.4,7.6l0.1,0.8c0.1,2.1,1.7,7.1,2.4,9.3h5.4l-5.6-13.4l13.4-18.9l12.2,17.7l-7.3,14.6
					c4.7,0,8.5,3.8,8.5,8.5v10.8l9.8-6.6l7.2-2.2l9.8,7.7c-0.6-17.7-1.1-37.4-1.1-38.4c0-2.5,0.6-38.7,0.6-38.7l6.9,1.2l42.5,21.5
					c0,0,25.5,23,27,24.5s8.3,12,8.3,12l-2.3,9l-25.5,11.5l-23.2,5l1.7,26.5l6.8,18.5l21.7-4l35.3-9l25.7-14l11.5-14l3-18.5
					L489.9,341.9z M327.3,307.5L317,291l11.6-15.9l7.3,16.5L327.3,307.5z M345,344.1l-11-22.6l11-14.6l7.3,17.7L345,344.1z
					 M344.1,270.9l-10.5-18.5l9-16l13,15.5L344.1,270.9z M384.6,244.4l7.5,18.5l-21.5-3.5l-3.5-16.5L384.6,244.4z M371.6,288.9
					l-4-16.5l19-0.5l7.5,19L371.6,288.9z M401.6,277.4l17.5,5l5,16.5l-18-5L401.6,277.4z M410.1,316.9l-4.5-12l20,4.5l1,18
					L410.1,316.9z M467.6,314.9l12.5,12.5l1.5,17l-16.5-9L467.6,314.9z M464.6,346.9l-1,16.5l-19,5.5l5-15.5L464.6,346.9z
					 M439.1,331.9l-2-19.5l17,9l-1.5,20L439.1,331.9z M420.1,369.9l14,3.5l-9,12.5l-19.5-4.5L420.1,369.9z M414.6,410.9l-16.5-5
					l12-11l15.5,5.5L414.6,410.9z M454.1,394.9l-20-2l13-16.5l20,1.5L454.1,394.9z M480.6,384.4c0,0-10-16-9.5-18s5.5-14.5,5.5-14.5
					l10,13L480.6,384.4z"/>
			</g>
		</g>
	</g>
</g>
</svg>
