<svg id="Calque_1" data-name="Calque 1" xmlns="http://www.w3.org/2000/svg" viewBox="0 0 378.33 607.72"><defs><style>.cls-1,.cls-2,.cls-6{fill:none;stroke:#000;}.cls-1,.cls-2{stroke-linecap:round;stroke-width:4px;}.cls-1,.cls-6{stroke-miterlimit:10;}.cls-2{stroke-linejoin:round;}.cls-3,.cls-4,.cls-5{isolation:isolate;}.cls-3{font-size:7.51px;}.cls-3,.cls-4{font-family:HelveticaNeue, Helvetica Neue;}.cls-4{font-size:3.75px;}.cls-5{font-size:6.28px;font-family:Helvetica, Helvetica;}</style></defs><title>BaroqueMulticolore-01-2</title><polygon points="137.94 304.98 203.84 303.98 203.14 309.48 138.24 309.48 137.94 304.98"/><polygon points="101.14 203.98 207.14 202.98 206.14 208.48 101.64 208.48 101.14 203.98"/><polygon points="101.14 224.48 199.64 223.48 198.64 228.98 101.64 228.98 101.14 224.48"/><polygon points="111.74 245.48 197.24 244.48 196.44 249.88 112.14 249.88 111.74 245.48"/><polygon points="117.34 265.98 186.64 264.98 185.94 270.48 117.64 270.48 117.34 265.98"/><polygon points="127.94 284.98 178.64 283.98 178.14 289.48 128.24 289.48 127.94 284.98"/><path d="M333.9,417.3l-4-4.7-1.4-.4v9.5a10,10,0,0,1-10,10H272.6l-.3,20.8,1.2,1.4-1.3,2.6-.7,48.2,2.4,3.2-2.2,10.7h-.4v2.6l87.3-8,1.1-11.4-1.2-81.2Zm-26.8,16.6,12,19-9.5,19-14.5-20Zm-22.5,70.5-12-20,11.5-22,14,24Zm34,11-12.2,1.8-4.2-9.2c2.2-2.8,9-16.5,9-16.5l10.2,14.8Zm14-17-13-19,9-19.5,14.5,19.5Zm1-61,10-17,11,18.5-10.5,15.5Zm21.7,73.5-6.5.8-3-9.5c.8-.8,6.5-16.2,6.5-16.2l5.5,13.8Z" transform="translate(-117.46 -55.42)"/><path d="M272.6,484.4l3.1-6-.4-46.7h-1.1a10.93,10.93,0,0,1-10.9-10.9V373.4C256,356,247.1,334,241.5,318.5c-8.3-23.4-32.3-88.1-32.3-88.1L179.5,239l13.2-1.4-10.1,16.3L179.5,239,159,247.5,147,269l-18,68-11,68,6,40,19.5,66.5L168,572l7.8,11.4,13.7-52.9-1-10-17.5-69L168.5,410l6-52s12-55.5,14.6-56.5,3.9,43,3.9,43V512l18.8,3.4L210.6,504l8.3-11.7s7.7,13,7.7,14.7c0,1.4-2.5,8.5-3.2,10.5h.1L276,522l-.3-32.1ZM171.4,255.6l7.3,21.3-14,20.7L158,272.3Zm-11.8,91.2-16,17-4.5-20.5,12-16.5Zm3.2,19.1,4.7,16.7-6,27.3-11.3-23.3Zm-17.4-81.3,5.3,22.7-15.3,20S140.8,295.9,145.4,284.6Zm-25.5,116s6.2-32,10.9-42.7l4,19.3Zm18.2,74.7s-10.7-24.7-12-35.3l12.7,8Zm-.7-42L126.1,414l9.3-15.3,14,16Zm21.4,106S147.5,512,146.1,502l12.7,9.3Zm-1.4-44.7-12.7-14.7,3.3-19.3,14.7,13.3Zm23.4,65.3-16-18,2.7-18,14,12Zm-9.4-72.6,8,10,2,24-14.7-16Zm-2-49.4-6,28-14.7-23.3,8.7-15.3Zm3.4-95.3-9.3-24,19.3-20ZM273.4,453.9l-11.3,23.3-12.7-22,10-18Zm-10.3-60.5-10.5,21-11-20.5,10-19Zm-27,19.9,10.7,17.3-9.3,20.7L228.8,430Zm-14,1.3-11.3-19.3,8-21.3,11.3,19.3Zm25.3-56.7-10.7,18-11.3-17.3,10-20Zm-19.3-45.3-10,24.7-13.3-22.7,11.3-25.3Zm-38.7-46.7,10.7-21.3,11.3,20-10.7,18.7Zm11.4,70.7,12,19.3-9.3,26-9.3-18Zm2,68.7,10,16.7-8,19.3L196.1,420Zm-4,103.3a225.43,225.43,0,0,1,1.3-32.7l8,14.7Zm20-28-10-19.3,9.3-17.3,10.7,18.7Zm20,30-10-22.7,10.7-17.3,12,18Zm32.8,8.1-13.2.2-3.2-10.5,7.8-15,11,14.5Z" transform="translate(-117.46 -55.42)"/><circle cx="127.24" cy="76.18" r="2.9"/><circle cx="169.04" cy="76.38" r="2.9"/><path class="cls-1" d="M257.8,132.5s-2.6-7.6-12.8-7.7a17.7,17.7,0,0,0-14.8,7A26.39,26.39,0,0,0,245,138C254.4,138.9,257.8,132.5,257.8,132.5Z" transform="translate(-117.46 -55.42)"/><path class="cls-1" d="M274.6,133.1s2.6-7.6,12.7-7.7a17.61,17.61,0,0,1,14.7,7,25.85,25.85,0,0,1-14.7,6.2C278,139.5,274.6,133.1,274.6,133.1Z" transform="translate(-117.46 -55.42)"/><path class="cls-1" d="M310.5,113.8c0,6.8.4,32.8-.9,44.1-1.1,9.4-6.2,20.5-10.2,28.5-3.5,6.9-9.2,25.8-32.5,25.8-23.9,0-36.1-28.8-39.7-34s-3.8-18-4-25.5c-.3-7.8-1.6-35.9-1.6-35.9" transform="translate(-117.46 -55.42)"/><path d="M256.5,122.7c3.6,1.6,4.7.5,4.7-2.3s-5.7-7.6-12.9-7.8-16.8,2.5-20.7,8.5c-3.5,5.3-1.4,4.4,1,2.8s10.9-3.1,15.5-3.4A27.28,27.28,0,0,1,256.5,122.7Z" transform="translate(-117.46 -55.42)"/><path d="M276,123c-3.6,1.6-4.7.5-4.7-2.3s5.7-7.6,12.9-7.8,16.8,2.5,20.7,8.5c3.5,5.3,1.4,4.4-1,2.8s-10.9-3.1-15.5-3.4A28.7,28.7,0,0,0,276,123Z" transform="translate(-117.46 -55.42)"/><path class="cls-1" d="M259.9,176.9a19.6,19.6,0,0,0,10.5,0" transform="translate(-117.46 -55.42)"/><path class="cls-1" d="M262.9,186.7a10.7,10.7,0,0,0,5.9,0" transform="translate(-117.46 -55.42)"/><path class="cls-1" d="M221.6,134.9s-6.1-3.1-6.1,3.1.8,18,3.1,20.3l2.3,2.3" transform="translate(-117.46 -55.42)"/><path class="cls-1" d="M311.5,131.6s5-1.9,5,.8.5,17.2-1.4,19.9-4.6,6.8-4.6,6.8" transform="translate(-117.46 -55.42)"/><path class="cls-1" d="M355.2,367.8c-2.2-52.9-3.2-71.2-.5-77.1,1.6-3.5,73.9,30.9,84.6,59.2,6.3,16.5-51,25.5-51,25.5s1.8,33.2,8.5,45a228,228,0,0,0,57-13c32-12,48-34,36-65.5-19-50-84.6-91.8-103.7-101-9.3-4.5-24.5-9.2-32.9-11.5s-31.4-6.1-38.3-8.4-13.2-5-14.7-10.4-.8-24.2-.8-24.2" transform="translate(-117.46 -55.42)"/><path class="cls-1" d="M264.6,135.7s-3.5,27.2-2,29,4,2.5,4.5.5" transform="translate(-117.46 -55.42)"/><path class="cls-2" d="M223.4,223.7s20,16.2,43,16.2,36.2-9.8,44.2-19.8" transform="translate(-117.46 -55.42)"/><path class="cls-2" d="M216.6,227.7c.8.5,19.2,20.2,52.2,19.5,33.2-.8,50.2-24.4,50.2-24.4" transform="translate(-117.46 -55.42)"/><text class="cls-3" transform="translate(156.45 359.37)">pantone</text><text class="cls-4" transform="translate(194.85 356.87)">®</text><text class="cls-5" transform="translate(156.45 365.68)">563</text><path d="M268.3,404.5V362.2a7.17,7.17,0,0,1,7.2-7.2h41.1a7.17,7.17,0,0,1,7.2,7.2v42.3Z" transform="translate(-117.46 -55.42)"/><path class="cls-1" d="M316.7,426.9H275.1a7.17,7.17,0,0,1-7.2-7.2V361.8a7.17,7.17,0,0,1,7.2-7.2h41.6a7.17,7.17,0,0,1,7.2,7.2v57.9A7.17,7.17,0,0,1,316.7,426.9Z" transform="translate(-117.46 -55.42)"/><path class="cls-2" d="M388.4,383.6c-4.4.3-6.3.8-8.7-2.2-4.6-5.9-4.2-6.1-10.4-9.5-3.3-1.8-7.1-3.1-13.8-3.3-8.1-.2-18.3,0-19.6.5s-5.3,2-5.5,6.9.6,5.9,4.8,5.8,17.8,1,17.8,1-19.7-2.3-21.5-.1-2.2,6.5-1.4,8.1a6.75,6.75,0,0,0,3.7,3.3c1.2.2,17.6,1.8,17.6,1.8s-16.2-2.7-19.9,0c-1.9,1.4-2.9,7.8-.5,9s15.1,1.6,18.7,2.4-15.4-1.1-16.9,0c-2.1,1.6-3.4,8.3,1.7,10.1s19.7,2.3,23,2.8A52.72,52.72,0,0,0,370,420c3.9-.5,10-1.6,13.6-3.3,4.7-2.2,9.3-3.8,9.3-3.8" transform="translate(-117.46 -55.42)"/><path class="cls-1" d="M330.7,372.4s-3.3-3.4-1.1-5.2,7.1-3.4,8.6-4.9,5.6-3.2,8.4-1.3,7.3,5.7,8.6,6.8" transform="translate(-117.46 -55.42)"/><path class="cls-1" d="M324.7,379.1s4.2-4.7,4.7-5-1.5-4.8-1.5-4.8l-5.3,1.3" transform="translate(-117.46 -55.42)"/><polyline class="cls-1" points="207.54 348.38 213.24 350.28 213.44 355.88 206.54 353.88"/><path class="cls-2" d="M357.7,420.4l.8,92.9s-56,8-87.3,8-64.3-4.9-78.1-9.3c0,0,3.8-211.3-3.9-210.5-3.8.4-14.8,45.9-20.7,103.8-4,39.3,22,118.7,22,118.7s-11.1,59.1-14.7,59.3-61.3-130.7-56-182.7c4.6-44.6,10.7-68.7,18-101.5,6.7-30,17.4-47.8,25.8-53.4s39.3-13.3,45.6-15.4,22.5-11.1,24.6-17.4-.5-23.5-.5-23.5" transform="translate(-117.46 -55.42)"/><polyline class="cls-2" points="75.64 456.48 73.14 471.78 80.64 486.98 68.44 530.48 60.44 523.88"/><line class="cls-2" x1="82.44" y1="480.48" x2="64.94" y2="545.48"/><line class="cls-2" x1="61.94" y1="527.48" x2="59.94" y2="601.48"/><path class="cls-2" d="M190.6,527.2s30.4,10.9,79.9,11.9,87.8-10.2,87.8-10.2" transform="translate(-117.46 -55.42)"/><path class="cls-1" d="M358.5,513.3c3.3,15.3,13.3,94.7,14.7,132.7" transform="translate(-117.46 -55.42)"/><path d="M295.9,79.4s-3,3.1,6.2,14.2c9.8,11.8,6.2,29.8,6.2,34.5s1,4.3,5.5-8.2c7-19.5-4.7-39-10-43S295.9,79.4,295.9,79.4Z" transform="translate(-117.46 -55.42)"/><path class="cls-1" d="M263.2,171.1c-1.3-.2-3.8-1.5-5.7.3s-3.3,4.5-5,5-5.3-.3-4-3.2" transform="translate(-117.46 -55.42)"/><path class="cls-1" d="M268.6,171.1c1.3-.2,3.8-1.5,5.7.3s3.3,4.5,5,5,5.3-.3,4-3.2" transform="translate(-117.46 -55.42)"/><path d="M303.9,76.9c-2.7-4.2-14-11.3-22.7-14s-14.2-1.8-18.2-2a104.73,104.73,0,0,1-14.2-2.5,99.21,99.21,0,0,0-14.5-2.7c-3.3-.2-7.9-1.5-12.5,3.8-3.9,4.5-3.2,16.5-1,21,4.8,10,12.5,11.5,12.5,11.5,4.1-3.4,7.6-4.8,15-4.3,5.5.3,10.3,4.2,16.8,4.2,7.3,0,8.4-1.7,12.5-3.2a23.71,23.71,0,0,1,17.7.7c9.7,4,13.5,25.5,13.5,25.5S315.9,95.6,303.9,76.9ZM237.8,81a.55.55,0,0,1-.5.3h-.2c-10.6-4.6-12-13.1-12-13.5a.51.51,0,0,1,1-.2c0,.1,1.4,8.4,11.5,12.7A.57.57,0,0,1,237.8,81Zm8.7-.6a.54.54,0,0,1-.4.3c-.1,0-.2,0-.2-.1-13.7-7.5-16.3-16.1-16.4-16.5a.47.47,0,1,1,.9-.3c0,.1,2.6,8.6,15.9,15.9A.57.57,0,0,1,246.5,80.4Zm11.3-1.3a.55.55,0,0,1-.5.3h-.2c-18.7-7.7-21.8-16.6-22-17a.47.47,0,1,1,.9-.3c0,.1,3.2,8.9,21.4,16.4C257.8,78.6,257.9,78.9,257.8,79.1Z" transform="translate(-117.46 -55.42)"/><path d="M239.6,76.6a3.32,3.32,0,0,0-2.4.1,17.88,17.88,0,0,1-4.5.9,21.69,21.69,0,0,0,4.8,2.8.52.52,0,0,1,.3.7.55.55,0,0,1-.5.3h-.2a21.23,21.23,0,0,1-5.8-3.5c-5.3.9-11.9,3.3-16.5,16.7-3.2,9.4,6.7,40.5,6.7,40.5s1.5,13.8,4.5-26.2c.8-10.2,3.2-13.5,8.5-17.5a31.74,31.74,0,0,1,11.9-5.2,26.06,26.06,0,0,0-4.3-7.5A15.48,15.48,0,0,0,239.6,76.6ZM218.7,96.4h0a.47.47,0,0,1-.5-.5c.2-3.6,3.8-8.7,3.9-8.9a.5.5,0,1,1,.8.6c0,.1-3.6,5.1-3.7,8.4A.46.46,0,0,1,218.7,96.4Zm6.5-7.2s-3.7,3.5-3.7,13.8a.5.5,0,0,1-1,0c0-10.8,3.8-14.4,4-14.5a.48.48,0,0,1,.7,0C225.4,88.6,225.4,89,225.2,89.2Z" transform="translate(-117.46 -55.42)"/><line class="cls-2" x1="139.94" y1="466.18" x2="138.94" y2="482.48"/><line class="cls-2" x1="125.34" y1="465.48" x2="123.34" y2="481.18"/><path class="cls-2" d="M227.1,535.3l2.3-16Z" transform="translate(-117.46 -55.42)"/><line class="cls-2" x1="100.34" y1="463.18" x2="97.34" y2="477.48"/><line class="cls-2" x1="87.64" y1="460.88" x2="84.64" y2="474.48"/><line class="cls-2" x1="177.94" y1="464.88" x2="179.34" y2="482.48"/><line class="cls-2" x1="188.64" y1="464.48" x2="189.94" y2="481.88"/><line class="cls-2" x1="198.64" y1="463.48" x2="200.34" y2="481.18"/><line class="cls-2" x1="208.14" y1="462.78" x2="210.34" y2="479.88"/><line class="cls-2" x1="219.64" y1="461.18" x2="221.64" y2="476.88"/><line class="cls-2" x1="231.34" y1="459.88" x2="233.64" y2="474.88"/><line class="cls-2" x1="153.74" y1="465.88" x2="153.04" y2="483.68"/><line class="cls-2" x1="165.64" y1="467.18" x2="166.34" y2="482.18"/><line class="cls-1" x1="112.94" y1="173.48" x2="108.64" y2="178.48"/><line class="cls-1" x1="123.64" y1="179.18" x2="119.94" y2="185.18"/><line class="cls-1" x1="136.34" y1="183.88" x2="134.14" y2="189.28"/><line class="cls-1" x1="148.94" y1="184.48" x2="148.84" y2="191.78"/><line class="cls-1" x1="161.94" y1="183.88" x2="163.84" y2="189.28"/><line class="cls-1" x1="173.34" y1="181.18" x2="176.34" y2="185.88"/><line class="cls-1" x1="183.34" y1="174.88" x2="189.94" y2="178.88"/><line class="cls-1" x1="192.64" y1="168.48" x2="197.94" y2="170.48"/><path class="cls-6" d="M214.3,540.9s-8.5,91.5-9.5,117.5" transform="translate(-117.46 -55.42)"/><path class="cls-6" d="M216.9,541.3s-8.5,91.5-9.5,117.5" transform="translate(-117.46 -55.42)"/><path class="cls-6" d="M241.3,544.9s-8.5,91.5-9.5,117.5" transform="translate(-117.46 -55.42)"/><path class="cls-6" d="M243.9,545.3s-8.5,91.5-9.5,117.5" transform="translate(-117.46 -55.42)"/><path class="cls-6" d="M273.4,545.2S272,637.1,270.2,663" transform="translate(-117.46 -55.42)"/><path class="cls-6" d="M270.8,545.3s-1.4,91.9-3.2,117.8" transform="translate(-117.46 -55.42)"/><path class="cls-6" d="M303.1,544.2s1.8,91.9.9,117.9" transform="translate(-117.46 -55.42)"/><path class="cls-6" d="M300.4,544.3s1.8,91.9.9,117.9" transform="translate(-117.46 -55.42)"/><path class="cls-6" d="M327.1,543.3s9,91.5,10.1,117.5" transform="translate(-117.46 -55.42)"/><path class="cls-6" d="M324.5,543.6s9,91.5,10.1,117.5" transform="translate(-117.46 -55.42)"/><path class="cls-6" d="M352.5,539.6s9,91.5,10.1,117.5" transform="translate(-117.46 -55.42)"/><path class="cls-6" d="M349.8,539.9s9,91.5,10.1,117.5" transform="translate(-117.46 -55.42)"/><path class="cls-2" d="M292.9,347.3c-2.4-4.2-7.6-7.9-3.8-13,4.5-5.8,9-11.1,7.7-17-1.5-6.7-8.4-6.7-9.5-14.3a8.42,8.42,0,0,1,8.1-9.5" transform="translate(-117.46 -55.42)"/><path d="M297.5,340.4l-.1-.7a13.71,13.71,0,0,1,1.6-8.6,18.46,18.46,0,0,1,4.5-5.6,14.8,14.8,0,0,0,4-5.2c.8-2,.6-3.8-.6-5.1a4.5,4.5,0,0,0-4.4-1.3l-12.8,35.7h10.1C299,347.1,297.6,342.5,297.5,340.4Z" transform="translate(-117.46 -55.42)"/><path d="M489.9,341.9l-14.8-28-25.8-26.2,4.8,16.7-16-6.5-6-18,16.1,6.6-3.6-3.6-29.5-24.5,10,13.5-20-5-3.5-14.5,13.5,6-29-17.5-26.5-9.5-25.5-6-30.9,86.3a6.94,6.94,0,0,1,5.1,2.1c1.7,1.8,2,4.4,1,7.2s-2.8,4.3-4.5,5.9a20.32,20.32,0,0,0-4.1,5,13,13,0,0,0-1.4,7.6l.1.8c.1,2.1,1.7,7.1,2.4,9.3h5.4l-5.6-13.4L315,317.3,327.2,335l-7.3,14.6a8.49,8.49,0,0,1,8.5,8.5v10.8l9.8-6.6,7.2-2.2,9.8,7.7c-.6-17.7-1.1-37.4-1.1-38.4,0-2.5.6-38.7.6-38.7l6.9,1.2,42.5,21.5s25.5,23,27,24.5,8.3,12,8.3,12l-2.3,9-25.5,11.5-23.2,5,1.7,26.5,6.8,18.5,21.7-4,35.3-9,25.7-14,11.5-14,3-18.5ZM327.3,307.5,317,291l11.6-15.9,7.3,16.5ZM345,344.1l-11-22.6,11-14.6,7.3,17.7Zm-.9-73.2-10.5-18.5,9-16,13,15.5Zm40.5-26.5,7.5,18.5-21.5-3.5-3.5-16.5Zm-13,44.5-4-16.5,19-.5,7.5,19Zm30-11.5,17.5,5,5,16.5-18-5Zm8.5,39.5-4.5-12,20,4.5,1,18Zm57.5-2,12.5,12.5,1.5,17-16.5-9Zm-3,32-1,16.5-19,5.5,5-15.5Zm-25.5-15-2-19.5,17,9-1.5,20Zm-19,38,14,3.5-9,12.5-19.5-4.5Zm-5.5,41-16.5-5,12-11,15.5,5.5Zm39.5-16-20-2,13-16.5,20,1.5Zm26.5-10.5s-10-16-9.5-18,5.5-14.5,5.5-14.5l10,13Z" transform="translate(-117.46 -55.42)"/></svg>