<?xml version="1.0" encoding="utf-8"?>
<!-- Generator: Adobe Illustrator 22.0.1, SVG Export Plug-In . SVG Version: 6.00 Build 0)  -->
<svg version="1.1" id="Calque_1" xmlns="http://www.w3.org/2000/svg" xmlns:xlink="http://www.w3.org/1999/xlink" x="0px" y="0px"
	 viewBox="0 0 354.1 584.1" style="enable-background:new 0 0 354.1 584.1;" xml:space="preserve">
<style type="text/css">
	.st0{fill:none;stroke:#000000;stroke-width:4;stroke-linecap:round;stroke-miterlimit:10;}
	.st1{stroke:#000000;stroke-width:4;stroke-linecap:round;stroke-miterlimit:10;}
</style>
<title>BFF-01</title>
<g>
	<circle cx="123.8" cy="79.8" r="2.9"/>
	<path class="st0" d="M138.4,82.2c0,0-2.4-7.8-14.1-8.4s-16.9,6.1-16.9,6.1s5.8,4.8,16.6,5.3S138.4,82.2,138.4,82.2z"/>
	<path class="st0" d="M140.9,98c-1.7,4.9-2.1,7.5-0.8,9.4s6.8,3.3,7.9-2.4"/>
	<path class="st0" d="M194.3,64c-0.4,6.8-2.9,30.4-4.9,41.6c-1.6,9.3-7.1,20.6-11.8,28.3c-3.6,5.9-11.4,21.2-34.7,20
		c-23.8-1.3-33.1-19.9-36.3-27.3c-2.9-6.7-7.3-20.4-7.1-27.9c0.1-7.8,0.3-36,0.3-36"/>
	<path d="M135.3,63c3.2,2,5.9,1.7,5.9-0.8c0-3.7-5.8-6.4-14.1-7.1c-13.6-1.1-20.5,7.9-19.9,9.6s4.9-5,17.5-4.2
		C128.8,60.8,133,61.6,135.3,63z"/>
	<path class="st0" d="M99.2,80.7c0,0-7.3-6.7-7.6-0.6s-0.1,20.6,2.1,23c1.9,1.9,4.1,3.6,6.4,5"/>
	<path class="st0" d="M192.5,85.1c0,0,4.3-4,6.3-2.2s-2.3,17.9-3.1,20.9c-2.1,7.6-6.7,8.8-6.7,8.8"/>
	<path class="st0" d="M121.4,146.8c0,0,3.7,10.9-1.9,17.5c-4.3,5.1-61.7,25.3-68.7,35S40.8,222,33.5,244c-7.1,21.3-25,52.5-28,65.5
		s-9,45.5,7.8,53.8c0,0,19,6,32.5-14"/>
	<path class="st0" d="M166.2,148.9c0,0,0.1,8.5,1.9,12.4c5.1,11,53,14.8,74.2,32.3s93.2,85.8,104.4,106c6.9,12.4,7,22.3,1,31.8
		c-6.8,10.7-29,16.5-46-7"/>
	<line class="st0" x1="107.5" y1="71.8" x2="110.4" y2="77.2"/>
	<path class="st0" d="M115.1,67.6c0,0.7,2,6.4,2,6.4"/>
	<line class="st0" x1="124.3" y1="66.7" x2="125" y2="73.4"/>
	<line class="st0" x1="134.2" y1="69.6" x2="132.4" y2="75.1"/>
	<line class="st0" x1="169" y1="83.7" x2="173.2" y2="87.2"/>
	<line class="st0" x1="175.2" y1="82.6" x2="179.5" y2="85.7"/>
	<path d="M158.4,77.3c-3.1,1.8-4.7,1.8-5.1-0.6c-0.6-3.6,7.6-6.4,13.1-8.2c10.1-3.2,18,2.7,17.7,4.5s-7-3.1-15.2-0.5
		C165.3,73.7,161.7,75.3,158.4,77.3z"/>
	<path class="st0" d="M133.8,127.2c0,0,4.8,0.5,11.2-2.6c12.8-6,16.5-10.4,18.7-13"/>
	<path class="st0" d="M135.9,127.4c2.8,2.9,6.9,4.2,10.8,3.3c7.4-1.4,8.3-9.9,8.3-9.9"/>
	<path class="st0" d="M155.7,82.4c7.4,0.9,15,0.5,22.3-1.2"/>
	<path d="M135.1,126.2c0,0,2.5-4.2,4.2-4.9c3.1-1.2,5.1,0.3,5.4,1.8S135.1,126.2,135.1,126.2z"/>
	<path d="M144,123.3c0,0,0.9-4.5,3.8-5.3s4.9,2.2,4.9,2.2L144,123.3z"/>
	<line class="st0" x1="154.1" y1="82.5" x2="162.6" y2="80.1"/>
	<path class="st0" d="M168.7,231.5c0,0-0.8-3.8-1.2-7.7s-4.3-5.5-8.2-7.3s-8.7-4.7-11.5-4.4s-10.5,4.5-14.1,8.6
		c-3.9,4.3-5.9,5.3-9.5,7.9s-14.6,22.2-15.6,23.7c-3.7,6.3-8.4,12-14,16.7c-9.1,7.7-35,14.5-66,45.7c-11.2,11.3-16.7,30-14.7,39.3
		s32-4.2,40.7-10.7c10.3-7.7,62-62.9,65.5-64.7s16.6-1.3,20.8-1.4s14-1.3,17.9,0.6c3.9,1.9,7.5,4.4,10.7,7.3c2.8,2.5,4.2,1.6,4.9,1
		s1.2-4.8-0.3-8.3s-6.7-8.1-10.1-9.6s-18.4-4.4-20.2-7s-8.1-11.6-6.5-16.1s7.9-10.3,10.2-12.1s4.3-1.6,6.7-0.9
		c2.7,0.8,5.2,2.1,7.4,3.9c2.7,2.2,5.5,3.9,7.4,3.5s3.4-2.1,2.2-4s-6.1-9.1-9.7-11.4s-11.7-6.6-15.7-5.4s-15,12.6-15,12.6"/>
	<path class="st0" d="M164.3,279.5c0.7-1.2,0.9-2.1,2.4-1.1c1.5,1,4.9,3.4,4.2,6.6"/>
	<path class="st0" d="M166.6,230.7c-0.5,1.1-0.3,2.4,0.5,3.3c1.3,1.7,1.7,2.6,3.6,3.7"/>
	<path class="st0" d="M171.5,231.4c0-2.6-0.2-5.2-0.5-7.8c-0.4-3.9,3-6.3,6.4-8.9s7.5-6.5,10.3-6.8s11.2,2.1,15.6,5.3
		c4.7,3.4,6.9,3.8,11,5.6s19.1,18.5,20.4,19.7s11.6,9,12.9,10s13.5,10,13.5,10s34.2,16.3,52,26c28.5,15.5,32.2,31.2,30.5,38
		c-3.1,12.9-25,14-49-3.2c-10.2-7.3-43.3-34.7-43.3-34.7c-5-6.8-18.2-17-22-18s-16.4,2.4-20.6,3.1s-13.9,1.8-17.3,4.5
		c-3.3,2.8-6.3,6-8.9,9.5c-2.2,3.1-3.8,2.5-4.6,2s-2.2-4.5-1.5-8.1s4.8-9.4,7.8-11.6s17-8.3,18.2-11.3s5.3-13,2.8-17.1
		s-10-8.3-12.6-9.6s-4.6-0.6-6.7,0.6c-2.5,1.4-4.6,3.2-6.4,5.4c-2.2,2.7-4.5,5-6.4,5s-3.7-1.3-3-3.4s4-10.2,7-13.2s9.9-9,14.1-8.7
		s17.4,9,17.4,9"/>
	<path class="st0" d="M186.4,277.2c-0.9-1-1.3-1.9-2.6-0.5s-4.1,4.4-2.7,7.4"/>
	<path class="st0" d="M173.4,230.1c0.7,1,0.8,2.3,0.2,3.3c-0.9,2-1.1,3-2.7,4.4"/>
	<polygon points="119.6,164.3 141.4,171.8 148.6,186 106.6,172.3 	"/>
	<polygon points="148.6,186 152.6,171.8 179.9,162.3 185.3,170.7 	"/>
	<path class="st0" d="M82.9,315.7c5,18.9,8.1,28.5,6.3,48.3C88,377.3,82,400.5,82,400.5s26.5,9.5,65.5,10c41.5,0.5,63.5-10,63.5-10
		s-8.2-23.5-8.2-37.5s1.8-39.8,6.3-50.9c5.7-14,18.1-21.3,15.9-36.6c-0.4-2.6-0.7-5.1-1.1-7.5"/>
	<path class="st0" d="M76.6,234.2c0,0-1.5,13.5-7,48.5"/>
	<path class="st1" d="M222.1,573c0,0,10.5-100,7-122s-12-38-18-50.5c0,0-26.1,9.4-63.5,10c-30,0.5-65.5-10-65.5-10
		c-5.5,10-13.5,35-18,61S69.6,574,69.6,574s29,9.2,75,5.3c0,0,1.3-91.3,2-101.3s6.7-8,6.7-8l-0.7,108.5
		C152.6,578.5,181.6,589.5,222.1,573z"/>
	<path d="M209.3,59.3c-1.6-14.2-4.3-30.5-13.7-40.3c-9.8-10.2-22-18.5-42.5-19c-10.5-0.3-20.8,3.6-28.4,10.9c-6-1-12.6-2.2-20.4,2.4
		c-7.2,4.3-12.8,11-19,24.7c-12.8,28.3-6.7,130-7.7,143.7c-0.5,6.5,27.3-9,43.3-18c4.3-2.4,2.7-13.3,2.7-13.3l-16.1-21l-7.4-21.2
		l-8.1-6.6l-1-23.1c2.5,3.5,6.7,1.3,6.7,1.3s3.4,4.2,3.7-5.8c0.4-6.5,2-12.8,4.6-18.7l79,2.1v0.1c2.7,5.4,3.4,22.5,5.4,25.1
		c1.3,1.6,3.1,0.9,4.3,0.2l-0.4,1.8l5.3-2.1l0.5,8.5l-5.9,17.2l-5.2,4.4c-5,13.5-12.8,25.9-22.8,36.3c-1.9,1.9-3,10.1,5.5,16
		c6.7,4.6,39.7,16.9,39.4,12.1C210.4,165.3,211.9,83.8,209.3,59.3z M83.3,164.8L83.3,164.8c-0.3,0-0.5-0.2-0.5-0.4c0,0,0,0,0-0.1
		l-0.4-42.1c0-0.3,0.2-0.5,0.5-0.5s0.5,0.2,0.5,0.5l0.4,42.1C83.8,164.6,83.6,164.8,83.3,164.8L83.3,164.8z M99.8,134.5
		c0-0.3,0.2-0.5,0.4-0.5c0,0,0,0,0.1,0l0,0c0.3,0,0.5,0.2,0.5,0.4c0,0,0,0,0,0.1l-0.2,26.3c0,0.3-0.2,0.5-0.4,0.5c0,0,0,0-0.1,0l0,0
		c-0.3,0-0.5-0.2-0.5-0.4c0,0,0,0,0-0.1L99.8,134.5z M93.4,131c0-0.3,0.2-0.5,0.4-0.5c0,0,0,0,0.1,0l0,0c0.3,0,0.5,0.2,0.5,0.4
		c0,0,0,0,0,0.1l-0.1,31.5c0,0.3-0.2,0.5-0.4,0.5c0,0,0,0-0.1,0l0,0c-0.3,0-0.5-0.2-0.5-0.4c0,0,0,0,0-0.1L93.4,131z M86.6,57
		L86.6,57c-0.3,0-0.5-0.2-0.5-0.4c0,0,0,0,0-0.1c0.5-10,3.5-19.6,8.6-28.2c0.2-0.2,0.5-0.3,0.7-0.1c0,0,0,0,0,0
		c0.2,0.1,0.3,0.4,0.1,0.7c0,0,0,0,0,0c-5,8.5-7.9,18-8.4,27.8C87.1,56.8,86.9,57,86.6,57z M88.8,163.7L88.8,163.7
		c-0.3,0-0.5-0.2-0.5-0.4c0,0,0,0,0-0.1l-0.7-37.7c0-0.3,0.2-0.5,0.5-0.5s0.5,0.2,0.5,0.5l0.7,37.7
		C89.3,163.5,89.1,163.7,88.8,163.7z M99.9,29.2c-0.1,0.1-6.8,14.7-8.2,28c0,0.3-0.2,0.4-0.5,0.4h-0.1c-0.3,0-0.5-0.3-0.4-0.5
		c1.4-13.4,8.2-28.2,8.3-28.3c0.1-0.2,0.4-0.3,0.6-0.2c0,0,0,0,0.1,0C99.9,28.6,100,28.9,99.9,29.2z M113.8,32.9c0,0.1-4,13-4,15.9
		c0,0.3-0.2,0.5-0.5,0.5s-0.5-0.2-0.5-0.5c0-3,3.9-15.6,4-16.1c0.1-0.2,0.3-0.4,0.6-0.3c0,0,0,0,0,0
		C113.8,32.4,113.9,32.6,113.8,32.9z M119.1,32.1c0,0.1-3.7,12.2-3.7,16.1c0,0.3-0.2,0.5-0.5,0.5s-0.5-0.2-0.5-0.5
		c0-4,3.6-15.9,3.8-16.4c0.1-0.2,0.3-0.4,0.6-0.3c0,0,0,0,0,0C119,31.6,119.2,31.9,119.1,32.1z M136.4,12.2
		c-0.1,0.1-0.2,0.2-0.4,0.2c-0.1,0-0.2,0-0.3-0.1c-0.2-0.2-0.2-0.5,0-0.7c0,0,0,0,0,0c0.2-0.2,5.9-6.1,12.9-6.8
		c0.2,0,0.5,0.2,0.5,0.4c0,0.2-0.2,0.5-0.4,0.5C142.1,6.3,136.4,12.1,136.4,12.2z M141.8,51.2c-0.3,0-0.5-0.2-0.5-0.4c0,0,0,0,0-0.1
		c0-2.6-0.4-16.2-1.4-19.8c-0.1-0.2,0.1-0.5,0.3-0.6c0.2-0.1,0.5,0.1,0.6,0.3c1.1,3.9,1.4,18.5,1.4,20.1
		C142.3,50.9,142,51.2,141.8,51.2z M149.3,50.8c-0.3,0-0.5-0.2-0.5-0.4c0,0,0,0,0-0.1c0-2.7-2.1-20.1-2.2-20.3
		c0-0.3,0.1-0.5,0.4-0.6c0.3,0,0.5,0.1,0.6,0.4c0.1,0.7,2.2,17.6,2.2,20.4C149.9,50.5,149.6,50.8,149.3,50.8L149.3,50.8z M149.3,10
		c-6.4,0.6-7.8,4.5-7.8,4.7c-0.1,0.2-0.3,0.3-0.5,0.3h-0.2c-0.2-0.1-0.4-0.3-0.3-0.6c0,0,0,0,0,0c0.1-0.2,1.6-4.7,8.7-5.4
		c0.2,0,0.5,0.2,0.5,0.4C149.8,9.8,149.6,10,149.3,10L149.3,10z M156.1,50.1c0,0.2-0.3,0.4-0.5,0.4h-0.1c-0.2,0-0.4-0.2-0.4-0.4
		c0-0.1,0-0.1,0-0.2c0.4-2.1-1.3-14.2-2.3-20.3c0-0.3,0.1-0.5,0.4-0.6c0.3,0,0.5,0.1,0.6,0.4C154,30.2,156.6,47.3,156.1,50.1
		L156.1,50.1z M163.8,51c-0.3,0-0.5-0.2-0.5-0.4c0,0,0,0,0-0.1c0-5.7-2.9-20.5-2.9-20.7s0.1-0.5,0.4-0.6s0.5,0.1,0.6,0.4
		c0.1,0.6,2.9,15,2.9,20.8C164.4,50.7,164.1,51,163.8,51L163.8,51z M181.6,51.2L181.6,51.2c-0.3,0-0.5-0.2-0.5-0.4c0,0,0,0,0-0.1
		c-0.2-6.7-4.9-21.4-5-21.5c-0.1-0.2,0.1-0.5,0.3-0.6c0.2-0.1,0.5,0.1,0.6,0.3c0.2,0.6,4.9,15,5,21.8
		C182.1,50.9,181.9,51.2,181.6,51.2L181.6,51.2z M179.8,154c0,0.3-0.2,0.5-0.4,0.5c0,0,0,0-0.1,0l0,0c-0.3,0-0.5-0.2-0.5-0.4
		c0,0,0,0,0-0.1l0.5-16.5c0-0.3,0.2-0.5,0.5-0.5c0.3,0,0.5,0.2,0.5,0.4c0,0,0,0,0,0.1L179.8,154z M186.4,155.8
		c0,0.3-0.2,0.5-0.5,0.5s-0.5-0.2-0.5-0.5v-25c0-0.3,0.2-0.5,0.5-0.5s0.5,0.2,0.5,0.5V155.8z M192.6,159.8c0,0.3-0.2,0.5-0.4,0.5
		c0,0,0,0-0.1,0l0,0c-0.3,0-0.5-0.2-0.5-0.4c0,0,0,0,0-0.1l0.5-32c0-0.3,0.2-0.5,0.5-0.5s0.5,0.2,0.5,0.5L192.6,159.8z M200.6,162.8
		c0,0.3-0.2,0.5-0.4,0.5c0,0,0,0-0.1,0l0,0c-0.3,0-0.5-0.2-0.5-0.4c0,0,0,0,0-0.1l0.5-37.8c0-0.3,0.2-0.5,0.4-0.5c0,0,0,0,0.1,0l0,0
		c0.3,0,0.5,0.2,0.5,0.4c0,0,0,0,0,0.1L200.6,162.8z M200.9,65.2L200.9,65.2c-0.3,0-0.5-0.2-0.5-0.4c0,0,0,0,0-0.1
		c-0.9-14.9-5.4-29.4-12.9-42.3c-0.2-0.2-0.1-0.5,0.1-0.7c0.2-0.2,0.5-0.1,0.7,0.1c7.6,13,12.1,27.6,13.1,42.7
		C201.4,65,201.2,65.2,200.9,65.2L200.9,65.2z"/>
</g>
</svg>
