<?xml version="1.0" encoding="utf-8"?>
<!-- Generator: Adobe Illustrator 20.1.0, SVG Export Plug-In . SVG Version: 6.00 Build 0)  -->
<svg version="1.1" id="Calque_1" xmlns="http://www.w3.org/2000/svg" xmlns:xlink="http://www.w3.org/1999/xlink" x="0px" y="0px"
	 viewBox="0 0 841.9 595.3" enable-background="new 0 0 841.9 595.3" xml:space="preserve">
<g>
	<defs>
		<rect id="SVGID_1_" x="26" y="17" width="476" height="578"/>
	</defs>
	<clipPath id="SVGID_2_">
		<use xlink:href="#SVGID_1_"  overflow="visible"/>
	</clipPath>
	<g clip-path="url(#SVGID_2_)">
		
			<ellipse transform="matrix(5.370321e-02 -0.9986 0.9986 5.370321e-02 49.1499 357.3643)" cx="213.1" cy="152.8" rx="2.9" ry="2.9"/>
		<path fill="none" stroke="#000000" stroke-width="4" stroke-linecap="round" stroke-miterlimit="10" d="M227.8,155.2
			c0,0-2.4-7.8-14.1-8.4s-16.9,6.1-16.9,6.1s5.8,4.8,16.6,5.3C224.1,158.6,227.8,155.2,227.8,155.2z"/>
		<path fill="none" stroke="#000000" stroke-width="4" stroke-linecap="round" stroke-miterlimit="10" d="M230.3,171
			c-1.7,4.9-2.1,7.5-0.8,9.4c1.2,1.9,6.8,3.3,7.9-2.4"/>
		<path fill="none" stroke="#000000" stroke-width="4" stroke-linecap="round" stroke-miterlimit="10" d="M283.7,137
			c-0.4,6.8-2.9,30.4-4.9,41.6c-1.6,9.3-7.1,20.6-11.8,28.3c-3.6,5.9-11.4,21.2-34.7,20c-23.8-1.3-33.1-19.9-36.3-27.3
			c-2.9-6.7-7.3-20.4-7.1-27.9c0.1-7.8,0.3-36,0.3-36"/>
		<path d="M224.7,136c3.2,2,5.9,1.7,5.9-0.8c0-3.7-5.8-6.4-14.1-7.1c-13.6-1.1-20.5,7.9-19.9,9.6c0.7,1.8,4.9-5,17.5-4.2
			C218.2,133.8,222.4,134.6,224.7,136z"/>
		<path fill="none" stroke="#000000" stroke-width="4" stroke-linecap="round" stroke-miterlimit="10" d="M188.6,153.7
			c0,0-7.3-6.7-7.6-0.6c-0.3,6.1-0.1,20.6,2.1,23c2.2,2.4,6.4,5,6.4,5"/>
		<path fill="none" stroke="#000000" stroke-width="4" stroke-linecap="round" stroke-miterlimit="10" d="M281.9,158.1
			c0,0,4.3-4,6.3-2.2c1.9,1.8-2.3,17.9-3.1,20.9c-2.1,7.6-6.7,8.8-6.7,8.8"/>
		<path fill="none" stroke="#000000" stroke-width="4" stroke-linecap="round" stroke-miterlimit="10" d="M210.8,219.8
			c0,0,3.7,10.9-1.9,17.5c-4.3,5.1-61.7,25.3-68.7,35c-7,9.7-10,22.7-17.3,44.7c-7.1,21.3-25,52.5-28,65.5s-9,45.5,7.8,53.8
			c0,0,19,6,32.5-14"/>
		<path fill="none" stroke="#000000" stroke-width="4" stroke-linecap="round" stroke-miterlimit="10" d="M255.6,221.9
			c0,0,0.1,8.5,1.9,12.4c5.1,11,53,14.8,74.2,32.3c21.2,17.5,93.2,85.8,104.4,106c6.9,12.4,7,22.3,1,31.8c-6.8,10.7-29,16.5-46-7"/>
		
			<line fill="none" stroke="#000000" stroke-width="4" stroke-linecap="round" stroke-miterlimit="10" x1="196.9" y1="144.8" x2="199.8" y2="150.2"/>
		<path fill="none" stroke="#000000" stroke-width="4" stroke-linecap="round" stroke-miterlimit="10" d="M204.5,140.6
			c0,0.7,2,6.4,2,6.4"/>
		
			<line fill="none" stroke="#000000" stroke-width="4" stroke-linecap="round" stroke-miterlimit="10" x1="213.7" y1="139.7" x2="214.4" y2="146.4"/>
		
			<line fill="none" stroke="#000000" stroke-width="4" stroke-linecap="round" stroke-miterlimit="10" x1="223.6" y1="142.6" x2="221.8" y2="148.1"/>
		
			<line fill="none" stroke="#000000" stroke-width="4" stroke-linecap="round" stroke-miterlimit="10" x1="258.4" y1="156.7" x2="262.6" y2="160.2"/>
		
			<line fill="none" stroke="#000000" stroke-width="4" stroke-linecap="round" stroke-miterlimit="10" x1="264.6" y1="155.6" x2="268.9" y2="158.7"/>
		<path d="M247.8,150.3c-3.1,1.8-4.7,1.8-5.1-0.6c-0.6-3.6,7.6-6.4,13.1-8.2c10.1-3.2,18,2.7,17.7,4.5c-0.3,1.9-7-3.1-15.2-0.5
			C254.7,146.6,250.2,148.8,247.8,150.3z"/>
		<path fill="none" stroke="#000000" stroke-width="4" stroke-linecap="round" stroke-miterlimit="10" d="M223.2,200.2
			c0,0,4.8,0.5,11.2-2.6c12.8-6,16.5-10.4,18.7-13"/>
		<path fill="none" stroke="#000000" stroke-width="4" stroke-linecap="round" stroke-miterlimit="10" d="M225.3,200.4
			c0,0,3.9,4.7,10.8,3.3c7.4-1.4,8.3-9.9,8.3-9.9"/>
		<path fill="none" stroke="#000000" stroke-width="4" stroke-linecap="round" stroke-miterlimit="10" d="M245.1,155.4
			c0,0,10.7,1.7,22.3-1.2"/>
		<path d="M224.5,199.2c0,0,2.5-4.2,4.2-4.9c3.1-1.2,5.1,0.3,5.4,1.8S224.5,199.2,224.5,199.2z"/>
		<path d="M233.4,196.3c0,0,0.9-4.5,3.8-5.3c2.9-0.8,4.9,2.2,4.9,2.2L233.4,196.3z"/>
		
			<line fill="none" stroke="#000000" stroke-width="4" stroke-linecap="round" stroke-miterlimit="10" x1="243.5" y1="155.5" x2="252" y2="153.1"/>
		<g>
			<path fill="none" stroke="#000000" stroke-width="4" stroke-linecap="round" stroke-miterlimit="10" d="M258.1,304.5
				c0,0-0.8-3.8-1.2-7.7s-4.3-5.5-8.2-7.3c-3.9-1.8-8.7-4.7-11.5-4.4c-2.8,0.3-10.5,4.5-14.1,8.6c-3.9,4.3-5.9,5.3-9.5,7.9
				c-3.7,2.7-14.6,22.2-15.6,23.7s-4.9,9-14,16.7s-35,14.5-66,45.7c-11.2,11.3-16.7,30-14.7,39.3s32-4.2,40.7-10.7
				c10.3-7.7,62-62.9,65.5-64.7s16.6-1.3,20.8-1.4s14-1.3,17.9,0.6c3.9,1.8,7.9,4.8,10.7,7.3c2.8,2.5,4.2,1.6,4.9,1
				c0.7-0.6,1.2-4.8-0.3-8.3c-1.5-3.4-6.7-8.1-10.1-9.6s-18.4-4.4-20.2-7c-1.8-2.6-8.1-11.6-6.5-16.1c1.6-4.5,7.9-10.3,10.2-12.1
				c2.3-1.8,4.3-1.6,6.7-0.9c2.3,0.7,4.7,1.7,7.4,3.9c2.7,2.2,5.5,3.9,7.4,3.5c1.8-0.4,3.4-2.1,2.2-4c-1.2-1.9-6.1-9.1-9.7-11.4
				c-3.6-2.2-11.7-6.6-15.7-5.4s-15,12.6-15,12.6"/>
			<path fill="none" stroke="#000000" stroke-width="4" stroke-linecap="round" stroke-miterlimit="10" d="M253.7,352.5
				c0.7-1.2,0.9-2.1,2.4-1.1c1.5,1.1,4.9,3.4,4.2,6.6"/>
			<path fill="none" stroke="#000000" stroke-width="4" stroke-linecap="round" stroke-miterlimit="10" d="M256,303.7
				c0,0-0.8,1.5,0.5,3.3c1.3,1.7,1.7,2.6,3.6,3.7"/>
		</g>
		<g>
			<path fill="none" stroke="#000000" stroke-width="4" stroke-linecap="round" stroke-miterlimit="10" d="M260.9,304.4
				c0,0,0-3.9-0.5-7.8c-0.4-3.9,3-6.3,6.4-8.9c3.4-2.6,7.5-6.5,10.3-6.8s11.2,2.1,15.6,5.3c4.7,3.4,6.9,3.8,11,5.6
				c4.2,1.8,19.1,18.5,20.4,19.7c1.3,1.3,11.6,9,12.9,10c1.2,1,13.5,10,13.5,10s34.2,16.3,52,26c28.5,15.5,32.2,31.2,30.5,38
				c-3.1,12.9-25,14-49-3.2c-10.2-7.3-43.3-34.7-43.3-34.7c-5-6.8-18.2-17-22-18c-3.8-1-16.4,2.4-20.6,3.1
				c-4.2,0.7-13.9,1.8-17.3,4.5s-6.6,6.4-8.9,9.5c-2.2,3.1-3.8,2.5-4.6,2c-0.8-0.5-2.2-4.5-1.5-8.1s4.8-9.4,7.8-11.6
				c3-2.2,17-8.3,18.2-11.3c1.2-3,5.3-13,2.8-17.1s-10-8.3-12.6-9.6s-4.6-0.6-6.7,0.6s-4.2,2.7-6.4,5.4c-2.2,2.7-4.5,5-6.4,5
				c-1.9,0-3.7-1.3-3-3.4c0.7-2.2,4-10.2,7-13.2c3.1-3,9.9-9,14.1-8.7c4.2,0.3,17.4,9,17.4,9"/>
			<path fill="none" stroke="#000000" stroke-width="4" stroke-linecap="round" stroke-miterlimit="10" d="M275.8,350.2
				c-0.9-1-1.3-1.9-2.6-0.5c-1.3,1.4-4.1,4.4-2.7,7.4"/>
			<path fill="none" stroke="#000000" stroke-width="4" stroke-linecap="round" stroke-miterlimit="10" d="M262.8,303.1
				c0,0,1.1,1.3,0.2,3.3c-0.9,2-1.1,3-2.7,4.4"/>
		</g>
		<polygon points="209,237.3 230.8,244.8 238,259 196,245.3 		"/>
		<polygon points="238,259 242,244.8 269.3,235.3 274.7,243.7 		"/>
		<path fill="none" stroke="#000000" stroke-width="4" stroke-linecap="round" stroke-miterlimit="10" d="M172.3,388.7
			c5,18.9,8.1,28.5,6.3,48.3c-1.2,13.3-7.2,36.5-7.2,36.5s26.5,9.5,65.5,10c41.5,0.5,63.5-10,63.5-10s-8.2-23.5-8.2-37.5
			s1.8-39.8,6.3-50.9c5.7-14,18.1-21.3,15.9-36.6c-0.4-2.6-0.7-5.1-1.1-7.5"/>
		<path fill="none" stroke="#000000" stroke-width="4" stroke-linecap="round" stroke-miterlimit="10" d="M166,307.2
			c0,0-1.5,13.5-7,48.5"/>
		<path stroke="#000000" stroke-width="4" stroke-linecap="round" stroke-miterlimit="10" d="M311.5,646c0,0,10.5-100,7-122
			s-12-38-18-50.5c0,0-26.1,9.4-63.5,10c-30,0.5-65.5-10-65.5-10c-5.5,10-13.5,35-18,61S159,647,159,647s29,9.2,75,5.3
			c0,0,1.3-91.3,2-101.3s6.7-8,6.7-8L242,651.5C242,651.5,271,662.5,311.5,646z"/>
		<path d="M298.7,132.3c-1.6-14.2-4.3-30.5-13.7-40.3c-9.8-10.2-22-18.5-42.5-19c-12.9-0.3-22.3,5.2-28.4,10.9
			c-6-1-12.6-2.2-20.4,2.4c-7.2,4.3-12.8,11-19,24.7c-12.8,28.3-6.7,130-7.7,143.7c-0.5,6.5,27.3-9,43.3-18
			c4.3-2.4,2.7-13.3,2.7-13.3l-16.1-21l-7.4-21.2l-8.1-6.6l-1-23.1c2.5,3.5,6.7,1.3,6.7,1.3s3.4,4.2,3.7-5.8
			c0.2-5.6,2-12.6,4.6-18.7l79,2.1c0,0,0,0.1,0,0.1c2.7,5.4,3.4,22.5,5.4,25.1c1.3,1.6,3.1,0.9,4.3,0.2l-0.4,1.8l5.3-2.1l0.5,8.5
			l-5.9,17.2l-5.2,4.4c0,0-6.2,19.2-22.8,36.3c-1.9,1.9-3,10.1,5.5,16c6.7,4.6,39.7,16.9,39.4,12.1
			C299.8,238.3,301.3,156.8,298.7,132.3z M172.7,237.8C172.7,237.8,172.7,237.8,172.7,237.8c-0.3,0-0.5-0.2-0.5-0.5l-0.4-42.1
			c0-0.3,0.2-0.5,0.5-0.5c0.3,0,0.5,0.2,0.5,0.5l0.4,42.1C173.2,237.6,172.9,237.8,172.7,237.8z M189.2,207.5c0-0.3,0.2-0.5,0.5-0.5
			c0,0,0,0,0,0c0.3,0,0.5,0.2,0.5,0.5l-0.2,26.3c0,0.3-0.2,0.5-0.5,0.5c0,0,0,0,0,0c-0.3,0-0.5-0.2-0.5-0.5L189.2,207.5z M182.8,204
			c0-0.3,0.2-0.5,0.5-0.5h0c0.3,0,0.5,0.2,0.5,0.5l-0.1,31.5c0,0.3-0.2,0.5-0.5,0.5c0,0,0,0,0,0c-0.3,0-0.5-0.2-0.5-0.5L182.8,204z
			 M176,130C176,130,176,130,176,130c-0.3,0-0.5-0.2-0.5-0.5c0.7-16,8.5-28.1,8.6-28.2c0.2-0.2,0.5-0.3,0.7-0.1
			c0.2,0.1,0.3,0.5,0.1,0.7c-0.1,0.1-7.7,12.1-8.4,27.8C176.5,129.8,176.3,130,176,130z M178.2,236.7
			C178.2,236.7,178.2,236.7,178.2,236.7c-0.3,0-0.5-0.2-0.5-0.5l-0.7-37.7c0-0.3,0.2-0.5,0.5-0.5c0.3,0,0.5,0.2,0.5,0.5l0.7,37.7
			C178.7,236.4,178.5,236.7,178.2,236.7z M189.3,102.2c-0.1,0.1-6.8,14.7-8.2,28c0,0.3-0.2,0.4-0.5,0.4c0,0,0,0-0.1,0
			c-0.3,0-0.5-0.3-0.4-0.5c1.4-13.4,8.2-28.2,8.3-28.3c0.1-0.2,0.4-0.4,0.7-0.2C189.3,101.6,189.4,101.9,189.3,102.2z M203.2,105.9
			c0,0.1-4,13-4,15.9c0,0.3-0.2,0.5-0.5,0.5s-0.5-0.2-0.5-0.5c0-3,3.9-15.6,4-16.1c0.1-0.3,0.4-0.4,0.6-0.3
			C203.2,105.4,203.3,105.6,203.2,105.9z M208.5,105.1c0,0.1-3.7,12.2-3.7,16.1c0,0.3-0.2,0.5-0.5,0.5s-0.5-0.2-0.5-0.5
			c0-4,3.6-15.9,3.8-16.4c0.1-0.3,0.4-0.4,0.6-0.3C208.4,104.6,208.6,104.9,208.5,105.1z M225.8,85.2c-0.1,0.1-0.2,0.2-0.4,0.2
			c-0.1,0-0.2,0-0.3-0.1c-0.2-0.2-0.2-0.5,0-0.7c0.2-0.2,5.9-6.1,12.9-6.8c0.3,0,0.5,0.2,0.5,0.4c0,0.3-0.2,0.5-0.4,0.5
			C231.5,79.3,225.8,85.1,225.8,85.2z M231.2,124.2c-0.3,0-0.5-0.2-0.5-0.5c0-2.6-0.4-16.2-1.4-19.8c-0.1-0.3,0.1-0.5,0.3-0.6
			c0.3-0.1,0.5,0.1,0.6,0.3c1.1,3.9,1.4,18.5,1.4,20.1C231.7,123.9,231.4,124.2,231.2,124.2z M238.7,123.8c-0.3,0-0.5-0.2-0.5-0.5
			c0-2.7-2.1-20.1-2.2-20.3c0-0.3,0.2-0.5,0.4-0.6c0.3,0,0.5,0.2,0.6,0.4c0.1,0.7,2.2,17.6,2.2,20.4
			C239.2,123.6,238.9,123.8,238.7,123.8z M238.7,83c-6.4,0.6-7.8,4.5-7.8,4.7c-0.1,0.2-0.3,0.3-0.5,0.3c-0.1,0-0.1,0-0.2,0
			c-0.3-0.1-0.4-0.4-0.3-0.6c0.1-0.2,1.6-4.7,8.7-5.4c0.3,0,0.5,0.2,0.5,0.4C239.2,82.8,239,83,238.7,83z M245.5,123.1
			c0,0.2-0.3,0.4-0.5,0.4c0,0-0.1,0-0.1,0c-0.3,0-0.5-0.3-0.4-0.6c0.4-2.1-1.3-14.2-2.3-20.3c0-0.3,0.1-0.5,0.4-0.6
			c0.3,0,0.5,0.1,0.6,0.4C243.4,103.2,246,120.3,245.5,123.1z M253.2,124c-0.3,0-0.5-0.2-0.5-0.5c0-5.7-2.9-20.5-2.9-20.7
			c-0.1-0.3,0.1-0.5,0.4-0.6c0.3-0.1,0.5,0.1,0.6,0.4c0.1,0.6,2.9,15,2.9,20.8C253.7,123.8,253.4,124,253.2,124z M271,124.2
			C271,124.2,271,124.2,271,124.2c-0.3,0-0.5-0.2-0.5-0.5c-0.2-6.7-4.9-21.4-5-21.5c-0.1-0.3,0.1-0.5,0.3-0.6
			c0.3-0.1,0.5,0.1,0.6,0.3c0.2,0.6,4.9,15,5,21.8C271.5,123.9,271.3,124.2,271,124.2z M269.2,227c0,0.3-0.2,0.5-0.5,0.5
			c0,0,0,0,0,0c-0.3,0-0.5-0.2-0.5-0.5l0.5-16.5c0-0.3,0.3-0.5,0.5-0.5c0.3,0,0.5,0.2,0.5,0.5L269.2,227z M275.8,228.8
			c0,0.3-0.2,0.5-0.5,0.5s-0.5-0.2-0.5-0.5v-25c0-0.3,0.2-0.5,0.5-0.5s0.5,0.2,0.5,0.5V228.8z M282,232.8c0,0.3-0.2,0.5-0.5,0.5
			c0,0,0,0,0,0c-0.3,0-0.5-0.2-0.5-0.5l0.5-32c0-0.3,0.2-0.5,0.5-0.5c0.3,0,0.5,0.2,0.5,0.5L282,232.8z M290,235.8
			c0,0.3-0.2,0.5-0.5,0.5c0,0,0,0,0,0c-0.3,0-0.5-0.2-0.5-0.5l0.5-37.8c0-0.3,0.2-0.5,0.5-0.5c0,0,0,0,0,0c0.3,0,0.5,0.2,0.5,0.5
			L290,235.8z M290.3,138.2C290.3,138.2,290.3,138.2,290.3,138.2c-0.3,0-0.5-0.2-0.5-0.5c-1.5-24.6-12.8-42.1-12.9-42.3
			c-0.2-0.2-0.1-0.5,0.1-0.7c0.2-0.2,0.5-0.1,0.7,0.1c0.1,0.2,11.6,17.9,13.1,42.7C290.8,138,290.6,138.2,290.3,138.2z"/>
	</g>
</g>
</svg>
