<?xml version="1.0" encoding="utf-8"?>
<!-- Generator: Adobe Illustrator 20.1.0, SVG Export Plug-In . SVG Version: 6.00 Build 0)  -->
<svg version="1.1" id="Calque_1" xmlns="http://www.w3.org/2000/svg" xmlns:xlink="http://www.w3.org/1999/xlink" x="0px" y="0px"
	 viewBox="0 0 1223.9 664.7" enable-background="new 0 0 1223.9 664.7" xml:space="preserve">
<g>
	<defs>
		<rect id="SVGID_1_" x="3" y="9" width="1211.9" height="654"/>
	</defs>
	<clipPath id="SVGID_2_">
		<use xlink:href="#SVGID_1_"  overflow="visible"/>
	</clipPath>
	<g clip-path="url(#SVGID_2_)">
		<circle cx="291.3" cy="163.1" r="2.9"/>
		<circle cx="336.9" cy="163.1" r="2.9"/>
		<path d="M293.8,173.1c-0.8,0-1.6,0-2.5-0.1c-11.3-1.2-18.1-7.8-18.3-8l-1.2-1.1l0.9-1.4c0.2-0.4,6-9.1,18.7-8.9
			c13,0.2,16.5,10.1,16.7,10.5l0.3,0.8l-0.4,0.8C307.7,166,303.9,173.1,293.8,173.1z M277.1,163.2c2.3,1.8,7.4,5,14.6,5.8
			c7.3,0.8,10.9-2.8,12.2-4.5c-1-2-4.4-6.8-12.6-7C283.7,157.4,279.1,161.2,277.1,163.2z"/>
		<path d="M334.5,173.1c-10.1,0-14-7.1-14.2-7.5l-0.4-0.8l0.3-0.8c0.1-0.4,3.7-10.3,16.7-10.5c12.6-0.2,18.5,8.5,18.7,8.9l0.9,1.4
			l-1.2,1.1c-0.3,0.3-7,6.8-18.3,8C336.1,173.1,335.3,173.1,334.5,173.1z M324.4,164.5c1.2,1.6,4.9,5.3,12.2,4.5
			c7.1-0.8,12.3-4,14.6-5.8c-2-2.1-6.5-5.8-14.2-5.7C328.8,157.7,325.4,162.5,324.4,164.5z M322.1,164.7L322.1,164.7L322.1,164.7z"
			/>
		<path d="M313.3,197.6c-1.2,0-2.7-0.5-4.4-2.2c-2.2-2.2-1.6-5.4-0.7-9.7c0.7-3.5,1.8-8.3,1.9-14.9c0-1.1,0.9-2,2-2c0,0,0,0,0,0
			c1.1,0,2,0.9,2,2c-0.1,7-1.2,12-2,15.7c-0.7,3.1-1.1,5.3-0.4,6c0.9,0.9,1.5,1.1,1.6,1c0.1,0,0.4-0.3,0.7-1.1
			c0.4-1,1.5-1.6,2.5-1.3c1,0.3,1.6,1.5,1.3,2.5c-0.7,2-1.9,3.3-3.6,3.7C314,197.6,313.7,197.6,313.3,197.6z"/>
		<path d="M314.7,240c-23.2,0-42.2-20-47.5-27.7c-3.7-5.3-4-16.6-4.3-24.8l-0.1-1.8c-0.3-7.7-1.6-35.6-1.6-35.9
			c-0.1-1.1,0.8-2,1.9-2.1c1.1-0.1,2,0.8,2.1,1.9c0,0.3,1.3,28.2,1.6,36l0.1,1.8c0.2,6.8,0.6,18.3,3.6,22.6c0.2,0.3,18.7,26,44.2,26
			c22.8,0,32.1-12.7,35.7-17.4c5.4-7.3,9.9-18.3,10.9-26.9c1.1-9.5,1-29.9,0.9-39.7c0-1.7,0-3.2,0-4.2c0-1.1,0.9-2,2-2s2,0.9,2,2
			c0,1,0,2.4,0,4.1c0.1,9.9,0.2,30.5-1,40.2c-1.1,9.4-5.8,20.9-11.6,28.8C349.7,226.2,339.5,240,314.7,240z"/>
		<path d="M303.5,147.7c3.2,2,5.2,1,5.2-1.5c0-2.5-7.8-9.1-15-9.3s-15.4,1.8-19.3,7.2c-3.5,4.8-1.3,5.6,1.2,4.1
			c2.5-1.4,11.3-2.6,15.8-3C296.1,144.9,301.2,146.3,303.5,147.7z"/>
		<path d="M326.4,149.1c-2.6,2.8-4.8,2.2-5.4-0.2c-0.6-2.4,5.3-10.8,12.2-12.8c7-2,15.4-2.1,20.5,2.1c4.6,3.7,2.6,5.1-0.2,4.3
			c-2.8-0.8-11.6,0.2-16,1C332.9,144.5,328.3,147.1,326.4,149.1z"/>
		<path d="M312.8,215.5c-12.7,0-19.5-10.2-19.8-10.6c-0.6-0.9-0.4-2.2,0.6-2.8c0.9-0.6,2.2-0.4,2.8,0.6l0,0c0.1,0.1,6,8.8,16.5,8.8
			c8.4,0,14.2-5.9,15.2-8.9c0.4-1,1.5-1.6,2.6-1.2c1,0.4,1.6,1.5,1.2,2.6C330.2,208.6,323,215.5,312.8,215.5z"/>
		<path d="M262.5,193.6c-0.5,0-1-0.2-1.4-0.6l-2.3-2.3c-3.5-3.5-3.7-19.9-3.7-21.7c0-3,1.3-4.5,2.3-5.1c2.7-1.7,6.3,0.1,6.7,0.3
			c1,0.5,1.4,1.7,0.9,2.7c-0.5,1-1.7,1.4-2.7,0.9c-0.8-0.4-2.3-0.8-2.8-0.4c-0.2,0.1-0.4,0.7-0.4,1.7c0,8.6,1.2,17.6,2.5,18.9
			l2.3,2.3c0.8,0.8,0.8,2,0,2.8C263.5,193.4,263,193.6,262.5,193.6z"/>
		<path d="M367,192.4l-3.5-2c0,0,2.3-4.1,3.9-6.8c0.4-0.7,1.1-4,0.9-17.4c0-0.3,0-0.6,0-0.9c-0.4,0.1-1,0.2-1.4,0.4
			c-1,0.5-2.2,0-2.6-1c-0.5-1,0-2.2,1-2.6c0.8-0.4,3.7-1.5,5.6-0.3c0.5,0.4,1.5,1.2,1.5,2.9c0,0.3,0,0.8,0,1.5
			c0.1,12-0.3,17.4-1.4,19.5C369.3,188.2,367,192.4,367,192.4z"/>
		<path d="M403.3,575.3c-1.1,0-2-0.8-2-1.9c-1.2-28.2-1.5-88-0.9-139c1.3-100.6,5.3-103.5,7-104.7c9.9-7.1,24.2-5.5,45.8-3
			c10.8,1.2,23,2.6,37.5,3.3c24.9,1.2,47-0.3,71.6-4.6c5.4-1,9.7-3.9,13.3-9.1c18.1-26.2,7.2-97.2,4.8-111c-6.3,2.1-24.4,7.4-43,5.6
			c0.4,6.6,1,13.1,1.6,19.5c2.1,23.2,3.9,43.2-4.8,51.6c-3.4,3.3-8.3,4.6-14.4,3.9c-8.3-1-12.2-6.1-16.4-11.6
			c-5-6.6-10.3-13.4-24.3-15.1c-16.8-2.1-24.6,3.5-30.4,7.7c-3.4,2.5-6.4,4.6-9.9,3.6c-7.9-2.1-12.1-5-16.5-8
			c-4.2-2.9-8.6-5.8-16.8-8.7c-14.5-3.2-24.8-0.9-32.3,0.8c-4.8,1.1-8.5,1.9-11.6,0.9c-6.4-2.1-10.7-7-12.8-14.4
			c-1.6-5.7,1-20.1,1.3-21.8c0.2-1.1,1.2-1.8,2.3-1.6c1.1,0.2,1.8,1.2,1.6,2.3c-0.8,4.2-2.5,15.9-1.4,19.9c1.8,6.2,5.1,10,10.2,11.7
			c2.1,0.7,5.3,0,9.5-1c7.9-1.8,18.7-4.2,34.2-0.7l0.2,0.1c8.8,3,13.6,6.3,17.9,9.2c4.3,2.9,8.1,5.5,15.3,7.4c1.6,0.4,3.4-0.7,6.5-3
			c5.9-4.3,14.8-10.7,33.2-8.4c15.7,2,21.9,10.1,27,16.6c4,5.2,7.1,9.2,13.7,10c5,0.6,8.6-0.3,11.2-2.8c7.4-7.1,5.5-27.2,3.6-48.4
			c-0.7-7.2-1.3-14.6-1.7-22l-0.1-2.4l2.4,0.3c22.2,2.9,45.5-5.8,45.7-5.9l2.2-0.9l0.4,2.4c0,0.2,4,21.6,5.4,46.4
			c1.9,33.6-1.6,57.1-10.5,69.8c-4.1,6-9.5,9.6-15.9,10.7c-24.9,4.4-47.2,5.9-72.4,4.7c-14.6-0.7-26.9-2.1-37.7-3.3
			c-20.6-2.4-34.2-3.9-42.9,2.2c-5.9,9.2-7.1,181.3-4.6,240.4C405.4,574.3,404.5,575.3,403.3,575.3
			C403.4,575.3,403.3,575.3,403.3,575.3z M410,332.8"/>
		<path fill="none" stroke="#000000" stroke-width="4" stroke-linecap="round" stroke-miterlimit="10" d="M399.1,452.9"/>
		<path d="M263.6,294.4c-0.5,0-1-0.2-1.4-0.6c-0.5-0.5-0.7-1.3-0.5-2l12-42c0.2-0.7,0.8-1.3,1.5-1.4c0.7-0.1,1.5,0.1,2,0.7
			l24.7,31.3c0.4,0.5,0.5,1.2,0.3,1.8c-0.2,0.6-0.7,1.1-1.3,1.3l-36.7,10.7C264,294.3,263.8,294.4,263.6,294.4z M276.4,254.7
			l-9.9,34.8l30.3-8.8L276.4,254.7z"/>
		<path d="M316,576c-1.1,0-2-0.9-2-2l-2.4-269.5l-13.1-21.8c-0.6-0.9-0.3-2.2,0.7-2.7c0.9-0.6,2.2-0.3,2.7,0.7l13.6,22.7L318,574
			C318,575.1,317.1,576,316,576C316,576,316,576,316,576z"/>
		<path d="M313.6,305.9c-0.4,0-0.8-0.1-1.1-0.4c-0.9-0.6-1.1-1.9-0.5-2.8l15.4-22.3c0.1-0.1,0.1-0.2,0.2-0.3l30.7-31.3
			c0.5-0.5,1.2-0.7,1.9-0.5c0.7,0.2,1.2,0.7,1.4,1.3l11.3,36c0.2,0.7,0.1,1.4-0.4,1.9s-1.1,0.8-1.8,0.7l-39.1-6.4l-0.9,0.9
			l-15.3,22.2C314.9,305.6,314.2,305.9,313.6,305.9z M334.9,278.5l33.2,5.4l-9.3-29.8L334.9,278.5z"/>
		<path d="M364.4,110c-7.1-8.2-17.5-18.3-36-18.3s-29,2.4-30.5,6.9s0,21.8,0,21.8s0.8,1.5,3.2,2.5s20.2,0,26.2-0.2
			s25.2,1.3,29.3,12.1c3.7,9.7,6.2,12.7,6.3,21.7s0,13.8,0,13.8l3-0.2c0,0,6.3-25.5,6.3-33S374.5,121.8,364.4,110z M313.4,115.1
			c-0.2,0-0.4-0.2-0.5-0.4c-0.1-0.3,0.1-0.5,0.4-0.6c0.1,0,13.5-2.6,23.7-13.1c0.2-0.2,0.5-0.2,0.7,0c0.2,0.2,0.2,0.5,0,0.7
			C327.3,112.4,313.6,115,313.4,115.1C313.5,115.1,313.4,115.1,313.4,115.1z M324,118c0,0-0.1,0-0.1,0c-0.2,0-0.4-0.2-0.5-0.4
			c-0.1-0.3,0.1-0.5,0.4-0.6c0.1,0,11-2.9,21.8-13.9c0.2-0.2,0.5-0.2,0.7,0c0.2,0.2,0.2,0.5,0,0.7C335.3,115.1,324.1,118,324,118z
			 M340.1,118.3c-0.2,0-0.4-0.1-0.5-0.3c-0.1-0.3,0-0.5,0.3-0.7c0.1,0,8.2-3.5,11.8-8.3c0.2-0.2,0.5-0.3,0.7-0.1
			c0.2,0.2,0.3,0.5,0.1,0.7c-3.8,5-11.9,8.5-12.2,8.7C340.3,118.3,340.2,118.3,340.1,118.3z M357.3,113.3c-2.8,4-6.7,6.3-6.9,6.4
			c-0.1,0-0.2,0.1-0.2,0.1c-0.2,0-0.3-0.1-0.4-0.3c-0.1-0.2-0.1-0.5,0.2-0.7c0,0,3.9-2.2,6.6-6.1c0.2-0.2,0.5-0.3,0.7-0.1
			C357.4,112.8,357.5,113.1,357.3,113.3z"/>
		<path d="M296,99.6c-1.3-3.6-6.6-2.7-13.2-2.3c-6.5,0.4-13,4.2-18.4,10c-5.4,5.7-6.5,11.1-8,18.8c-1.1,5.3-0.1,27.5,2.3,37.5
			c1.1,4.6,4.4,1.8,4.6,2.3c0.8,1.5,2.3,10.3,3.1,8.4c0.8-1.9,2-26.7,3.6-34.1c1.3-5.9,3.9-10.9,9.4-12.8
			c10.7-3.6,11.2-4.6,13.8-8.3c2.3-3.3,2.2-5.5,2.6-8.6C296.1,107.5,296.8,101.8,296,99.6z M271.3,125.2c-0.1,0.2-0.3,0.3-0.5,0.3
			c-0.1,0-0.1,0-0.2,0c-0.1-0.1-3.4-1.4-6.1-3.4c-0.2-0.2-0.3-0.5-0.1-0.7c0.2-0.2,0.5-0.3,0.7-0.1c2.6,1.9,5.9,3.3,5.9,3.3
			C271.3,124.6,271.4,124.9,271.3,125.2z M279,120.1c-0.3,0-6.8,0-10.4-4.2c-0.2-0.2-0.2-0.5,0-0.7c0.2-0.2,0.5-0.2,0.7,0
			c3.3,3.8,9.6,3.8,9.6,3.8c0.3,0,0.5,0.2,0.5,0.5S279.3,120.1,279,120.1z M286,116.6C286,116.6,286,116.6,286,116.6
			c-0.3,0-6.4-0.4-11.3-5.1c-0.2-0.2-0.2-0.5,0-0.7c0.2-0.2,0.5-0.2,0.7,0c4.6,4.5,10.6,4.9,10.7,4.9c0.3,0,0.5,0.3,0.5,0.5
			C286.5,116.4,286.2,116.6,286,116.6z"/>
		<path d="M353,104c-0.2,0-0.4,0-0.7-0.1c-1-0.4-1.6-1.5-1.2-2.5L363.2,66l-19.6,12.4l-12.2-21.5l-15.2,19.8l-17.3-18l-10.8,21.5
			l-18.8-12.6l8,29.9c0.3,1.1-0.4,2.2-1.4,2.4c-1.1,0.3-2.2-0.3-2.4-1.4l-10.7-40.1l23.9,16l11.2-22.5l18,18.7l16.1-20.9L345,72.8
			l25.7-16.3l-15.9,46.1C354.6,103.5,353.8,104,353,104z"/>
		<path d="M363.2,191.9c-0.4-2.1-4.3,1.8-8.3,8.4c-4,6.7-6.3,4.7-10.7,3.7s-5-5-9.3-9c-4.3-4-7.7-2.3-11.3-1.7c-3.7,0.7-5,6-7.3,7
			s-8.7,0.3-10.3-1.3c0,0-6.3-9.7-13-7.3c-6.7,2.3-13.7,12-16.7,9.7c-3-2.3-4.3-13.3-8.3-13.7s-2.7,8.3-2.7,13s2.3,14.4,4.7,18
			c4,6,15.7,23.7,26,28.3c10.3,4.7,21.3,4.3,34.7,2.3c13.3-2,25-28.7,28-38C361.4,202.7,363.6,194,363.2,191.9z M332,209
			c-3.7,4.3-11,12.3-18,12.3s-8.7-2.3-15-6.3c-6.3-4-9-6.7-8.7-10.3s3.3-6.7,8.7-3.7c3.3,1.8,8.7,8,13.7,7.3c5-0.7,9.3-3,12-6.3
			c2.7-3.3,3.3-4.7,6-3.3C333.3,200,335.6,204.6,332,209z"/>
		<g>
			<path d="M538.2,188.7c-0.5,0-1,0-1.7-0.1c-2.3-0.3-4.7-2.3-7.9-5c-1.1-0.9-2.3-1.9-2.9-2.3c-0.4-0.2-0.7-0.5-0.8-0.9
				c-0.5-1.1-2.9-6.8-1.1-10.3c2.3-4.6,9.9-19.5,11.8-21.3c0.8-0.7,2.1-0.7,2.8,0.1c0.7,0.8,0.7,2.1-0.1,2.8
				c-1.1,1.1-6.4,11.1-11,20.1c-0.6,1.2,0.2,4.3,1,6.3c0.8,0.6,1.8,1.4,2.9,2.3c1.8,1.5,4.6,3.9,5.9,4.1c1.8,0.3,2,0.2,4.4-1.7
				l0.7-0.6c1-0.7,1.8-1.5,2.5-2.1c0.8-0.7,1.5-1.3,2.2-1.7c-0.1-0.2-0.1-0.5-0.2-0.7c-0.2-0.2-0.4-0.5-0.5-0.9
				c-0.1-0.3-0.2-0.7-0.2-1c-0.6-0.4-1.1-1-1.4-1.5c0,0,0-0.1-0.1-0.1c-2.7,2.8-4.3,3.3-4.7,3.4c-0.7,0.2-1.5-0.1-1.9-0.6
				c-0.5-0.5-0.7-1.3-0.4-2c0.1-0.3,2.6-7.6,4.3-10.4c0.6-1,1.5-1.5,2.6-1.3c1,0.2,2.9,0.4,5.5,11.2c1.3,2.9,1.9,7.6,1.8,8.1
				c-0.1,1.2-1,1.9-1.8,2c-1.2,0.1-1.9-0.5-2.4-1.6c0,0,0,0-0.1,0.1c-0.7,0.6-1.6,1.4-2.7,2.2l-0.7,0.5
				C541.8,187.7,540.5,188.7,538.2,188.7z M544,169.4c-0.1,0.3-0.3,0.6-0.4,1c0.2-0.1,0.5-0.1,0.7-0.2
				C544.2,169.9,544.1,169.6,544,169.4z"/>
			<path d="M577.3,206.3c-1,0-1.9-0.7-2-1.8c-1.5-12.1-3.4-25.5-4.1-27.1c-6.7-14.7-10-19.1-18.9-25.2c-0.9-0.6-1.8-1.5-2.8-2.4
				c-1.5-1.4-3.2-3-4.7-3.6c-5.9-2.4-11.1-1-15.7,0.2c-2.3,0.6-4.5,1.2-6.6,1.2c-5,0.2-5.8,3.8-6.5,11.8c-0.3,3.5-0.6,7.1-1.9,10.1
				c-3.1,7.1-2.1,13.9,0.4,16.7c1.3,1.4,7.5,0.8,12.5-0.7c1.1-0.3,2.2,0.3,2.5,1.3c0.3,1.1-0.3,2.2-1.3,2.5
				c-2.1,0.6-12.9,3.6-16.6-0.5c-3.3-3.7-5.1-11.8-1.1-21c1-2.4,1.3-5.7,1.6-8.8c0.6-6.7,1.3-15.1,10.4-15.5
				c1.7-0.1,3.6-0.6,5.7-1.1c4.9-1.3,11.1-2.9,18.2,0c2.3,0.9,4.3,2.8,6,4.4c0.9,0.8,1.7,1.6,2.3,2c9.6,6.5,13.3,11.6,20.3,26.9
				c1.2,2.7,3.7,22.3,4.4,28.3c0.1,1.1-0.6,2.1-1.7,2.2C577.5,206.3,577.4,206.3,577.3,206.3z"/>
			<path d="M527.5,189.4c-0.2,0-0.4,0-0.6-0.1c-0.2-0.1-4.8-1.7-7.8-3.4c-4-2.3-3.7-7.6-3.7-7.8c0,0,0-0.1,0-0.1
				c0.2-1.9,2.2-11.2,3.4-13.9c2-4.7,6.5-16.5,6.9-18.8c-0.1-0.5,0-1.1,0.4-1.6c0.7-0.9,2-1,2.8-0.3c1.2,1,1.4,1.6-2,10.8
				c-1.6,4.3-3.5,9.2-4.5,11.5c-0.9,2.2-2.8,10.9-3.1,12.7c0,0.4,0,3.1,1.6,4.1c2.3,1.3,5.7,2.6,6.8,3c1.9-0.1,4.9-0.5,6.2-1
				c1-0.4,2.2,0.1,2.6,1.1c0.4,1-0.1,2.2-1.1,2.6c-2.4,1-7.3,1.3-7.8,1.3C527.6,189.4,527.6,189.4,527.5,189.4z M526.4,146.6
				C526.4,146.6,526.4,146.6,526.4,146.6C526.4,146.6,526.4,146.6,526.4,146.6z M526.4,146.6L526.4,146.6L526.4,146.6z M526.4,146.6
				C526.4,146.6,526.4,146.6,526.4,146.6C526.4,146.6,526.4,146.6,526.4,146.6z M526.4,146.5L526.4,146.5
				C526.4,146.5,526.4,146.5,526.4,146.5z M526.4,146.5L526.4,146.5L526.4,146.5z"/>
			<path d="M512.5,192c-3,0-6.7-0.6-8.8-2.9c-7.3-8.2,0.5-36.1,1.7-38.4c1.4-2.7,5.1-2.7,7.8-2.6c0.6,0,1.2,0,1.6,0
				c1.1-0.1,2.1,0.8,2.1,1.9s-0.8,2.1-1.9,2.1c-0.6,0-1.3,0-2,0c-3.2-0.1-4,0.2-4.2,0.5c-1.3,2.7-7.6,27.9-2.3,33.9
				c1.8,2,7.2,1.8,10.2,1.2c1.1-0.2,2.1,0.5,2.4,1.6c0.2,1.1-0.5,2.1-1.6,2.4C517.2,191.6,515.1,192,512.5,192z"/>
			<path d="M540.3,210.3c-0.9,0-1.7-0.6-2-1.6c-1-4.5-2.7-12.7-2.7-12.8c-0.2-1.1,0.5-2.1,1.6-2.4c1.1-0.2,2.1,0.5,2.4,1.6
				c0,0.1,1.7,8.3,2.7,12.8c0.2,1.1-0.4,2.1-1.5,2.4C540.6,210.3,540.5,210.3,540.3,210.3z"/>
			<path d="M543.9,197.6c-2.6,0-5.3-0.2-8-0.4c-0.8-0.1-1.5-0.1-2.3-0.1c-8.6-0.5-11.5-6.9-11.7-7.2c-0.4-1,0-2.2,1-2.6
				c1-0.4,2.2,0,2.6,1c0.1,0.2,2.2,4.5,8.3,4.8c0.8,0,1.5,0.1,2.3,0.1c6.4,0.4,13,0.9,18-1.4c5.5-2.5,10.9-8.3,10.9-8.4
				c0.7-0.8,2-0.9,2.8-0.1c0.8,0.7,0.9,2,0.1,2.8c-0.2,0.3-5.9,6.4-12.2,9.3C552.2,197.1,548.1,197.6,543.9,197.6z"/>
			<path d="M513,200.8c-1.3,0-2.5-0.2-3.8-0.4c-6.4-1.3-6-11.6-5.9-12.7c0.1-1.1,1-1.9,2.1-1.9c1.1,0.1,1.9,1,1.9,2.1
				c-0.1,2.5,0.4,8.1,2.7,8.6c4.1,0.8,7,0.9,9.3-5.7c0.4-1,1.5-1.6,2.5-1.2c1,0.4,1.6,1.5,1.2,2.5C520.6,199,517,200.8,513,200.8z"
				/>
		</g>
		<path d="M372.9,409.7c-9.3,0-19.4-2.2-23.7-6.9c-7.3-7.9-2.4-50.1-1.9-54.8l0.2-1.8l1.8,0.1c13.6,0.5,34.9,0.9,38.1,0.1
			c0.6-0.2,2.3-0.3,3.4,1.9c3.9,7.2,5.2,51.8-1,57.4C386.9,408.4,380.2,409.7,372.9,409.7z M351.1,350.3c-2,17.5-3.4,45,1,49.8
			c6.3,6.9,30.4,6.8,35.1,2.6c1.2-1.1,3.1-9.2,3-26.3c-0.1-14-1.6-23.6-2.7-26C381.3,351.2,358.3,350.5,351.1,350.3z"/>
		<path d="M388,350.2c-1.1,0-1.9-0.8-2-1.9c-0.3-7.5,11.1-21.5,16.5-27.7c-8.6-1.1-23.7-2.7-28.6-1.4c-1.5,0.4-5.4,3.8-7.9,26.2
			c-0.1,0.9-0.2,1.5-0.2,1.8c-0.2,1.1-1.2,1.8-2.3,1.6c-1.1-0.2-1.8-1.2-1.6-2.3c0-0.3,0.1-0.8,0.2-1.6c2.2-19.1,5.5-28.2,10.9-29.6
			c7.6-2,32.8,1.7,33.9,1.9l3.7,0.6l-2.6,2.8c-7.1,7.6-18.2,21.9-17.9,27.6C390,349.3,389.2,350.2,388,350.2
			C388,350.2,388,350.2,388,350.2z"/>
		<path d="M354.1,348.1c-0.8,0-1.6-0.5-1.9-1.3c-5.2-13.3-13.8-36.3-11.8-40.4c0.3-0.7,0.9-1.2,1.5-1.4c3.5-1.2,38.3-9.3,39.8-9.7
			l2-0.5l3.9,19.7c0.2,1.1-0.5,2.1-1.6,2.3c-1.1,0.2-2.1-0.5-2.3-1.6l-3.1-15.6c-12,2.8-31.8,7.5-36.6,8.8c0,4.2,5.9,21.5,11.9,36.8
			c0.4,1-0.1,2.2-1.1,2.6C354.6,348.1,354.4,348.1,354.1,348.1z"/>
		<path d="M349.3,350.2c-0.6,0-1.3-0.3-1.7-0.9l-20.2-29.6l12.9-8c0.9-0.6,2.2-0.3,2.8,0.6s0.3,2.2-0.6,2.8l-9.4,5.8l17.9,26.1
			c0.6,0.9,0.4,2.2-0.5,2.8C350.1,350.1,349.7,350.2,349.3,350.2z"/>
		<path d="M354.5,350.8c-0.7,0-1.4-0.4-1.8-1.1l-8.5-16l19.3-5.3c1.1-0.3,2.2,0.3,2.5,1.4c0.3,1.1-0.3,2.2-1.4,2.5l-14.5,4l6.1,11.6
			c0.5,1,0.1,2.2-0.8,2.7C355.2,350.8,354.8,350.8,354.5,350.8z"/>
		<path d="M410,699.3c-1.1,0-1.9-0.8-2-1.9l-2.7-58l-1.2-19.5c-0.1-1.1,0.8-2.1,1.9-2.1c1.1-0.1,2.1,0.8,2.1,1.9l1.2,19.5l2.7,58
			C412,698.3,411.2,699.3,410,699.3C410,699.3,410,699.3,410,699.3z"/>
		<path d="M334,589.5c-14.5,0-27.1-0.7-29.5-0.8c-11.3-0.7-77.7-9.3-80.5-9.7c-1.1-0.1-1.9-1.1-1.7-2.2c0.1-1.1,1.1-1.9,2.2-1.7
			c0.7,0.1,69.1,9,80.2,9.7c15.7,0.9,46.8,1.7,63.5-1.3c18.1-3.2,33.9-11.7,34.1-11.8l2.8-1.5l1,16.1c0.1,1.1-0.8,2.1-1.9,2.1
			c-1.1,0.1-2.1-0.8-2.1-1.9l-0.6-10c-5.4,2.6-18.1,8.2-32.5,10.8C359.4,589,346.1,589.5,334,589.5z"/>
		<path d="M404,622c-0.3,0-0.5-0.1-0.8-0.2c-17-7.5-27.1-23.4-27.6-24.1c-0.6-0.9-0.3-2.2,0.6-2.8c0.9-0.6,2.2-0.3,2.8,0.6
			c0.1,0.2,9.9,15.6,25.8,22.6c1,0.4,1.5,1.6,1,2.6C405.5,621.5,404.7,622,404,622z"/>
		<path d="M318.6,576c-23.9,0-89.4-10.3-92.3-10.7c-1.1-0.2-1.8-1.2-1.7-2.3c0.2-1.1,1.2-1.8,2.3-1.7c0.7,0.1,72.1,11.3,93.6,10.6
			c22.7-0.7,59.2-5.6,80.8-12.6c1.1-0.3,2.2,0.2,2.5,1.3c0.3,1.1-0.2,2.2-1.3,2.5c-22.8,7.4-59.2,12.1-81.9,12.8
			C320.1,576,319.4,576,318.6,576z"/>
		<path d="M331.7,589.2l-29.2-1.2l1.2-13.9c0.1-1.1,1.1-1.9,2.2-1.8c1.1,0.1,1.9,1.1,1.8,2.2l-0.8,9.8l20.8,0.8l-0.3-10.7
			c0-1.1,0.8-2,1.9-2.1c1.1,0,2,0.8,2.1,1.9L331.7,589.2z"/>
		<path d="M319.3,699.3c-1.1,0-2-0.9-2-2l-1-56c0-1.1,0.9-2,2-2c0,0,0,0,0,0c1.1,0,2,0.9,2,2l1,56
			C321.3,698.4,320.5,699.3,319.3,699.3C319.3,699.3,319.3,699.3,319.3,699.3z"/>
		<path d="M404,622c-0.6,0-1.2-0.3-1.6-0.8c-0.7-0.9-0.5-2.1,0.4-2.8l27.8-21c-1.9-2.5-6.2-7.5-12.4-12
			c-5.1-3.7-19.9,10.1-28.8,21.1c-0.7,0.9-2,1-2.8,0.3c-0.9-0.7-1-2-0.3-2.8c0.2-0.3,5.8-7.2,12.6-13.4c9.9-9.1,17-11.8,21.6-8.5
			c9.2,6.6,14.3,14.2,14.5,14.5l1,1.6l-30.8,23.3C404.8,621.8,404.4,622,404,622z"/>
		<path d="M383.3,606.8c-0.2,0-0.5,0-0.7-0.1c-1-0.4-1.6-1.5-1.2-2.6l8.2-22.9l14.4,5.2c1,0.4,1.6,1.5,1.2,2.6
			c-0.4,1-1.5,1.6-2.6,1.2l-10.6-3.8l-6.8,19.1C384.9,606.3,384.1,606.8,383.3,606.8z"/>
		
			<text transform="matrix(0.9706 0.2407 -0.2407 0.9706 369.2166 343.1896)" font-family="'SourceSansPro-Black'" font-size="29.9119px">A</text>
		
			<text transform="matrix(0.9766 -0.2153 0.2153 0.9766 358.9968 330.0534)" font-family="'SourceSansPro-Black'" font-size="29.9119px">B</text>
		<g>
			<path d="M402.8,597c3.7-4.6,9-4.6,12.4-1.8c1.8,1.5,2.6,3.5,2.8,5.3l-3.8,0.8c-0.2-1.1-0.5-2.1-1.4-2.9c-1.6-1.3-4.2-1-6.2,1.5
				c-2.1,2.6-2.1,4.9-0.3,6.4c1,0.9,2.3,1,3.4,0.8l0,3.8c-2.2,0.4-4.4-0.2-6.1-1.6C400.2,606.5,399,601.7,402.8,597z"/>
		</g>
		<path fill="none" stroke="#000000" stroke-width="4" stroke-linecap="round" stroke-miterlimit="10" d="M406.1,619.8"/>
		<path d="M302.3,91.8c-0.6,0-1.1-0.2-1.5-0.6l-6.7-7.2c-0.6-0.6-0.7-1.5-0.3-2.3l4.2-8.2c0.3-0.5,0.8-0.9,1.4-1
			c0.6-0.1,1.2,0,1.7,0.4l8.7,7.2c0.8,0.7,1,1.9,0.3,2.7l-6.2,8.2c-0.4,0.5-0.9,0.8-1.5,0.8C302.4,91.8,302.3,91.8,302.3,91.8z
			 M298.1,82.3l4.1,4.4l3.6-4.7l-5.3-4.4L298.1,82.3z"/>
		<path d="M330.3,89.1C330.3,89.1,330.3,89.1,330.3,89.1c-0.6,0-1.1-0.3-1.5-0.7l-5.8-6.7c-0.6-0.7-0.7-1.8-0.1-2.6l6.6-8.2
			c0.4-0.5,1.1-0.8,1.8-0.7c0.7,0.1,1.3,0.5,1.6,1.2l4.4,9.7c0.3,0.8,0.2,1.7-0.4,2.2l-5.2,5.2C331.4,88.9,330.8,89.1,330.3,89.1z
			 M327.1,80.4l3.3,3.8l2.7-2.7l-2.5-5.5L327.1,80.4z"/>
		<path d="M279.3,93.3c0,0-0.1,0-0.1,0c-0.8,0-1.5-0.6-1.8-1.3l-3.8-11c-0.3-0.8,0-1.7,0.7-2.2c0.7-0.5,1.6-0.5,2.3-0.1l6.8,4.7
			c0.8,0.6,1.1,1.6,0.7,2.5l-3,6.3C280.8,92.9,280.1,93.3,279.3,93.3z M279.4,85.4l0.2,0.7l0.2-0.4L279.4,85.4z"/>
		<path d="M350.8,94.1C350.8,94.1,350.8,94.1,350.8,94.1c-0.9,0-1.6-0.6-1.9-1.3l-2.7-7.8c-0.2-0.6-0.1-1.3,0.3-1.8l0.8-1.2
			c0.2-0.2,0.4-0.5,0.7-0.6l7.1-3.8c0.7-0.4,1.7-0.3,2.3,0.3c0.6,0.6,0.8,1.5,0.5,2.2l-5.2,12.8C352.4,93.6,351.6,94.1,350.8,94.1z
			 M350.4,84.7l0.6,1.7l1.1-2.7L350.4,84.7z"/>
		<path d="M222,691.3C222,691.3,221.9,691.3,222,691.3c-1.2,0-2-1-2-2.1c1-24.9,2.1-109.9,1.9-192c-0.2-139.1-3.4-158.3-4.5-160.8
			c-8.7-6-22.3-4.5-42.8-2.1c-10.8,1.2-23.1,2.6-37.7,3.3c-25.2,1.2-47.6-0.3-72.4-4.7c-6.4-1.1-11.7-4.7-15.9-10.7
			C27.7,292,42.8,209.5,43.5,206l0.4-2.3l2.2,0.8c0.2,0.1,23.5,8.8,45.7,5.9l2.4-0.3l-0.1,2.4c-0.4,7.4-1.1,14.8-1.7,22
			c-1.9,21.2-3.7,41.3,3.6,48.4c2.6,2.5,6.2,3.4,11.2,2.8c6.6-0.8,9.7-4.9,13.7-10c5-6.5,11.3-14.7,27-16.6
			c18.4-2.3,27.3,4.1,33.2,8.4c3.2,2.3,4.9,3.4,6.5,3c7.2-2,11-4.5,15.3-7.4c4.3-2.9,9.1-6.1,17.9-9.2l0.2-0.1
			c15.4-3.4,26.3-1,34.2,0.7c4.2,0.9,7.4,1.7,9.5,1c5.1-1.7,8.4-5.5,10.2-11.7c1.1-4-0.6-15.8-1.4-19.9c-0.2-1.1,0.5-2.1,1.6-2.3
			c1.1-0.2,2.1,0.5,2.3,1.6c0.3,1.6,2.9,16.1,1.3,21.8c-2.1,7.4-6.4,12.3-12.8,14.4c-3.1,1-6.9,0.2-11.6-0.9
			c-7.5-1.7-17.8-4-32.3-0.8c-8.2,2.9-12.6,5.8-16.8,8.7c-4.4,3-8.6,5.8-16.5,8c-3.6,1-6.5-1.2-9.9-3.6c-5.7-4.1-13.6-9.8-30.4-7.7
			c-14,1.8-19.2,8.5-24.3,15.1c-4.2,5.4-8.1,10.6-16.4,11.6c-6.2,0.7-11-0.6-14.4-3.9c-8.7-8.5-6.9-28.5-4.8-51.6
			c0.6-6.4,1.2-13,1.6-19.5c-18.5,1.8-36.7-3.5-43-5.6c-2.3,13.7-13.3,84.8,4.8,111c3.6,5.2,7.9,8.1,13.3,9.1
			c24.6,4.4,46.6,5.8,71.6,4.6c14.5-0.7,26.7-2.1,37.5-3.3c21.6-2.5,35.9-4.1,45.8,3c1.4,1,3.3,2.4,4.7,51.7
			c0.7,26.8,1.2,64.6,1.3,109.2c0.2,83.2-0.9,169.6-1.9,195.1C223.9,690.5,223,691.3,222,691.3z M217.3,336.3L217.3,336.3
			L217.3,336.3z"/>
		<g>
			<path d="M89.3,192.4c-2.3,0-3.6-1-5.7-2.6l-0.7-0.5c-1.1-0.8-2-1.6-2.7-2.2c0,0,0,0-0.1-0.1c-0.5,1.1-1.2,1.7-2.4,1.6
				c-0.8-0.1-1.7-0.7-1.8-2c-0.1-0.5,0.5-5.2,1.8-8.1c2.6-10.7,4.5-11,5.5-11.2c1-0.2,2,0.3,2.6,1.3c1.7,2.8,4.2,10.1,4.3,10.4
				c0.2,0.7,0.1,1.5-0.4,2c-0.5,0.5-1.2,0.8-1.9,0.6c-0.4-0.1-2.1-0.7-4.7-3.4c0,0,0,0.1-0.1,0.1c-0.3,0.5-0.8,1.1-1.4,1.5
				c-0.1,0.3-0.2,0.7-0.2,1c-0.1,0.3-0.2,0.6-0.5,0.9c-0.1,0.2-0.1,0.5-0.2,0.7c0.7,0.4,1.4,0.9,2.2,1.7c0.7,0.6,1.5,1.3,2.5,2.1
				l0.7,0.6c2.4,1.8,2.5,1.9,4.4,1.7c1.3-0.2,4.1-2.5,5.9-4.1c1.1-0.9,2.1-1.7,2.9-2.3c0.8-2,1.6-5.1,1-6.3c-4.5-9-9.9-19-11-20.2
				c-0.8-0.7-0.9-2-0.1-2.8c0.7-0.8,2-0.9,2.8-0.1c1.9,1.7,8.9,15.5,11.9,21.3c1.8,3.5-0.6,9.2-1.1,10.3c-0.2,0.4-0.5,0.7-0.8,0.9
				c-0.6,0.4-1.8,1.3-2.9,2.3c-3.2,2.7-5.7,4.6-7.9,5C90.3,192.3,89.8,192.4,89.3,192.4z M83.1,173.8c0.2,0,0.5,0.1,0.7,0.2
				c-0.1-0.3-0.3-0.7-0.4-1C83.3,173.3,83.2,173.6,83.1,173.8z"/>
			<path d="M50.1,210c-0.1,0-0.2,0-0.2,0c-1.1-0.1-1.9-1.1-1.7-2.2c0.7-5.9,3.2-25.6,4.4-28.3c7-15.3,10.8-20.3,20.3-26.9
				c0.6-0.4,1.4-1.2,2.3-2c1.7-1.7,3.7-3.5,6-4.4c7.1-2.8,13.3-1.2,18.2,0c2.1,0.5,4,1,5.7,1.1c9,0.4,9.8,8.7,10.4,15.5
				c0.3,3.2,0.6,6.5,1.6,8.8c4,9.2,2.2,17.3-1.1,21c-0.6,0.7-4.5,4.1-16.6,0.5c-1.1-0.3-1.7-1.4-1.3-2.5c0.3-1.1,1.4-1.7,2.5-1.3
				c5,1.5,11.2,2.1,12.5,0.7c2.5-2.8,3.5-9.5,0.4-16.7c-1.3-3-1.6-6.6-1.9-10.1c-0.7-8-1.5-11.6-6.5-11.8c-2.1-0.1-4.3-0.6-6.6-1.2
				c-4.6-1.2-9.8-2.5-15.7-0.2c-1.6,0.6-3.2,2.2-4.7,3.6c-1,0.9-1.9,1.8-2.8,2.4c-8.9,6.1-12.3,10.6-18.9,25.2
				c-0.7,1.6-2.6,15-4,27.1C52,209.2,51.1,210,50.1,210z"/>
			<path d="M99.9,193.1c0,0-0.1,0-0.1,0c-0.5,0-5.4-0.3-7.8-1.3c-1-0.4-1.5-1.6-1.1-2.6c0.4-1,1.6-1.5,2.6-1.1
				c1.3,0.5,4.3,0.9,6.2,1c1.1-0.4,4.5-1.7,6.8-3c1.6-0.9,1.7-3.6,1.6-4.1c-0.2-1.8-2.1-10.5-3.1-12.7c-1-2.3-2.9-7.2-4.5-11.5
				c-3.4-9.2-3.2-9.8-2-10.8c0.9-0.7,2.1-0.6,2.8,0.3c0.4,0.5,0.5,1.1,0.4,1.6c0.4,2.3,4.9,14.1,6.9,18.8c1.2,2.7,3.1,12,3.4,13.9
				c0,0,0,0.1,0,0.1c0,0.2,0.3,5.6-3.7,7.8c-3.1,1.7-7.7,3.3-7.8,3.4C100.3,193.1,100.1,193.1,99.9,193.1z M101,150.2
				C101,150.2,101,150.2,101,150.2C101,150.2,101,150.2,101,150.2z M101.1,150.2L101.1,150.2L101.1,150.2z M101.1,150.2
				C101.1,150.2,101.1,150.2,101.1,150.2C101.1,150.2,101.1,150.2,101.1,150.2z M101.1,150.2L101.1,150.2L101.1,150.2z M101.1,150.2
				L101.1,150.2L101.1,150.2z"/>
			<path d="M114.9,195.7c-2.6,0-4.7-0.4-5.2-0.5c-1.1-0.2-1.8-1.3-1.6-2.4c0.2-1.1,1.3-1.8,2.4-1.6c3,0.6,8.4,0.8,10.1-1.2
				c5.3-5.9-0.9-31.2-2.3-33.9c-0.1-0.2-1-0.5-4.2-0.5c-0.7,0-1.4,0-2,0c-1.1-0.1-1.9-1-1.9-2.1c0.1-1.1,1-1.9,2.1-1.9
				c0.4,0,1,0,1.6,0c2.7-0.1,6.3-0.1,7.8,2.6c1.2,2.3,9,30.2,1.7,38.4C121.6,195.1,117.9,195.7,114.9,195.7z"/>
			<path d="M87.1,214c-0.1,0-0.3,0-0.4,0c-1.1-0.2-1.8-1.3-1.5-2.4c1-4.4,2.7-12.7,2.7-12.8c0.2-1.1,1.3-1.8,2.4-1.6
				c1.1,0.2,1.8,1.3,1.6,2.4c0,0.1-1.7,8.4-2.7,12.8C88.9,213.4,88,214,87.1,214z"/>
			<path d="M83.5,201.3c-4.2,0-8.3-0.5-11.9-2.1c-6.3-2.9-12-9-12.2-9.3c-0.7-0.8-0.7-2.1,0.1-2.8c0.8-0.7,2.1-0.7,2.8,0.1
				c0.1,0.1,5.4,5.8,10.9,8.4c4.9,2.3,11.5,1.8,18,1.4c0.8-0.1,1.5-0.1,2.3-0.1c6.2-0.4,8.2-4.8,8.2-4.8c0.4-1,1.6-1.5,2.6-1
				c1,0.4,1.5,1.6,1,2.6c-0.1,0.3-3.1,6.7-11.7,7.2c-0.8,0-1.5,0.1-2.3,0.1C88.9,201.1,86.2,201.3,83.5,201.3z"/>
			<path d="M114.4,204.5c-3.9,0-7.6-1.8-10-8.8c-0.4-1,0.2-2.2,1.2-2.5c1-0.4,2.2,0.2,2.5,1.2c2.3,6.6,5.1,6.5,9.3,5.7
				c2.3-0.5,2.8-6.1,2.7-8.6c-0.1-1.1,0.8-2,1.9-2.1c1.1-0.1,2,0.8,2.1,1.9c0.1,1.2,0.5,11.4-5.9,12.7
				C117,204.3,115.7,204.5,114.4,204.5z"/>
		</g>
		<path d="M303.6,254.6c-4.7,2-2.3,7.2,7.7,7.7C311.3,262.3,308.3,252.6,303.6,254.6z M304.1,256.7c0.9-1.1,4.2,3.1,4.2,3.1
			S303.2,257.8,304.1,256.7z"/>
		<path d="M318.1,254.6c-3-1.3-6.8,7.7-6.8,7.7C319.6,260.8,321.1,256,318.1,254.6z M313.7,259.9c0,0,2.6-4.2,3.3-3.6
			C317.8,256.9,317.4,258.1,313.7,259.9z"/>
		<path d="M311.3,262.3c0,0-4.1,8.6-4.1,13.1s1.3-0.5,1.3-0.5L311.3,262.3z"/>
		<path d="M311.3,262.3c0,0,8.7,10.7,8.8,10.9c0.2,0.2-1.6,1.1-1.6,1.1l-7.6-11.2L311.3,262.3z"/>
		<path d="M311.3,262.3c0,0,14.1-0.5,21-2.8c8.8-2.9,23.8-14.2,23.8-14.2l0.5,1.1c0,0-15.8,11.8-23.8,14.3
			c-10.1,3.2-20.3,2.5-21.1,2.4C311,263.1,311.3,262.3,311.3,262.3z"/>
		<path d="M311,263.1c0,0-9.5,0.2-17.3-2.7c-7.8-2.8-21.4-14.2-21.4-14.2l0.6-0.5c0,0,14.5,11,19.5,13c8.2,3.3,19,3.6,19,3.6
			L311,263.1z"/>
		<path d="M1138.7,297.3c0,0-91.9,88.1-249.4,106.1c-117.8,13.5-283.4,21.9-443.1-75.6c-9.3-5.7-20-2-22-2s-10,2-15.7,5.5
			c-5.7,3.5-1.3,2.5-2.3,8s-3,40-3,40l-0.7,55.1c5.3,6.8,16.3,20.3,33.2,37.3c22.8,23,61.4,57.3,115.7,90.7
			c61,37.5,129,66.1,202.1,85.1c91.4,23.7,191,32.2,296.1,25.4c1.1-0.1,2.1,0.8,2.1,1.9c0.1,1.1-0.8,2.1-1.9,2.1
			c-23.5,1.5-46.6,2.3-69.5,2.3c-80.1,0-156.5-9.3-228-27.9c-73.5-19.1-141.8-47.9-203.2-85.6c-30.1-18.5-74.8-49.4-116.4-91.3
			c-14.2-14.3-24.3-26.1-30.3-33.6l-0.8,62l2.3,83.5c0,0,10.2-3.5,15.2-2.5s5,4,5,4l9,10l-27.2,22l3.6,55.1l14.7,24l687.3,84.4
			c0,0-41.6-70.1-15.6-151.1c9.7-30.3,52.3-56,55-88c3.3-39.5-23.2-35.3-22.9-77.4c0.1-16.5,18.7-63.6,25.5-82.5
			C1173.3,330.2,1138.7,297.3,1138.7,297.3z M1065.8,456.7c-1.7,0.5-102.8,52.1-242.5,49.2c-118.1-2.5-253.3-53.9-293.4-70.2
			c10.7,8.2,30.8,21.6,63.5,35.6c88,37.9,197.4,51.4,273.6,56.1c1.1,0.1,1.9,1,1.9,2.1c-0.1,1.1-0.9,1.9-2,1.9c0,0-0.1,0-0.1,0
			c-76.7-4.7-186.7-18.4-275.3-56.6c-53.2-23-73.1-43.7-74-44.5c-0.7-0.7-0.7-1.7-0.2-2.5c0.5-0.8,1.6-1.1,2.4-0.7
			c1.6,0.7,164.8,71.9,303.7,74.8c139,3,239.5-48.5,241.2-49c1.1-0.3,2.2,0.3,2.5,1.3C1067.5,455.3,1066.9,456.4,1065.8,456.7z"/>
		<g>
			<path d="M193.3,330.3c0,0-9,30-9,67s9.9,118.6,38.3,167.3c3-31,2-94.7,2-94.7s-2-103.3-2-105.3s-3.9-29.7-3.9-29.7l-11.5-4.3
				L193.3,330.3z"/>
			<path d="M224,571l-3.1-5.4c-28.1-48.2-38.6-128.8-38.6-168.3c0-36.9,9-67.3,9.1-67.6l0.4-1.5l15.9,0.4l12.9,4.9l0.2,1.2
				c0.6,4.6,3.9,27.9,3.9,29.9c0,2,2,104.3,2,105.3c0,0.6,1,64.1-2,94.9L224,571z M194.8,332.3c-1.8,6.4-8.5,33.3-8.5,65
				c0,37.6,9.5,112.6,34.9,160.6c2.3-32.2,1.5-87.3,1.4-87.9c-0.1-4.2-2-103.4-2-105.4c0-1.4-2.2-17.6-3.7-28.2l-10-3.8L194.8,332.3
				z"/>
		</g>
	</g>
</g>
</svg>
