<svg id="Calque_1" data-name="Calque 1" xmlns="http://www.w3.org/2000/svg" viewBox="0 0 1122.04 733.6"><defs><style>.cls-1,.cls-2{isolation:isolate;font-family:ArialMT, Arial;}.cls-1{font-size:29.91px;letter-spacing:-0.06em;}.cls-2{font-size:29.91px;}</style></defs><title>ClientParfait-01-2</title><circle cx="253.73" cy="113.4" r="2.9"/><circle cx="299.33" cy="113.4" r="2.9"/><path d="M293.8,173.1a21.75,21.75,0,0,1-2.5-.1,32.64,32.64,0,0,1-18.3-8l-1.2-1.1.9-1.4c.2-.4,6-9.1,18.7-8.9,13,.2,16.5,10.1,16.7,10.5l.3.8-.4.8C307.7,166,303.9,173.1,293.8,173.1Zm-16.7-9.9a29.4,29.4,0,0,0,14.6,5.8c7.3.8,10.9-2.8,12.2-4.5-1-2-4.4-6.8-12.6-7A19.26,19.26,0,0,0,277.1,163.2Z" transform="translate(-37.57 -49.7)"/><path d="M334.5,173.1c-10.1,0-14-7.1-14.2-7.5l-.4-.8.3-.8c.1-.4,3.7-10.3,16.7-10.5,12.6-.2,18.5,8.5,18.7,8.9l.9,1.4-1.2,1.1a32.33,32.33,0,0,1-18.3,8A11,11,0,0,1,334.5,173.1Zm-10.1-8.6c1.2,1.6,4.9,5.3,12.2,4.5a29.84,29.84,0,0,0,14.6-5.8,18.69,18.69,0,0,0-14.2-5.7C328.8,157.7,325.4,162.5,324.4,164.5Zm-2.3.2Z" transform="translate(-37.57 -49.7)"/><path d="M313.3,197.6a6.27,6.27,0,0,1-4.4-2.2c-2.2-2.2-1.6-5.4-.7-9.7a74.66,74.66,0,0,0,1.9-14.9,2,2,0,0,1,2-2h0a2,2,0,0,1,2,2,73.63,73.63,0,0,1-2,15.7c-.7,3.1-1.1,5.3-.4,6,.9.9,1.5,1.1,1.6,1s.4-.3.7-1.1a2.12,2.12,0,0,1,2.5-1.3,2.07,2.07,0,0,1,1.3,2.5,5.17,5.17,0,0,1-3.6,3.7C314,197.6,313.7,197.6,313.3,197.6Z" transform="translate(-37.57 -49.7)"/><path d="M314.7,240c-23.2,0-42.2-20-47.5-27.7-3.7-5.3-4-16.6-4.3-24.8l-.1-1.8c-.3-7.7-1.6-35.6-1.6-35.9a2,2,0,1,1,4-.2c0,.3,1.3,28.2,1.6,36l.1,1.8c.2,6.8.6,18.3,3.6,22.6.2.3,18.7,26,44.2,26,22.8,0,32.1-12.7,35.7-17.4,5.4-7.3,9.9-18.3,10.9-26.9,1.1-9.5,1-29.9.9-39.7v-4.2a2,2,0,0,1,4,0v4.1c.1,9.9.2,30.5-1,40.2-1.1,9.4-5.8,20.9-11.6,28.8C349.7,226.2,339.5,240,314.7,240Z" transform="translate(-37.57 -49.7)"/><path d="M303.5,147.7c3.2,2,5.2,1,5.2-1.5s-7.8-9.1-15-9.3-15.4,1.8-19.3,7.2c-3.5,4.8-1.3,5.6,1.2,4.1s11.3-2.6,15.8-3C296.1,144.9,301.2,146.3,303.5,147.7Z" transform="translate(-37.57 -49.7)"/><path d="M326.4,149.1c-2.6,2.8-4.8,2.2-5.4-.2s5.3-10.8,12.2-12.8,15.4-2.1,20.5,2.1c4.6,3.7,2.6,5.1-.2,4.3s-11.6.2-16,1C332.9,144.5,328.3,147.1,326.4,149.1Z" transform="translate(-37.57 -49.7)"/><path d="M312.8,215.5c-12.7,0-19.5-10.2-19.8-10.6a2,2,0,1,1,3.4-2.2h0c.1.1,6,8.8,16.5,8.8,8.4,0,14.2-5.9,15.2-8.9a2,2,0,0,1,3.8,1.4C330.2,208.6,323,215.5,312.8,215.5Z" transform="translate(-37.57 -49.7)"/><path d="M262.5,193.6a2,2,0,0,1-1.4-.6l-2.3-2.3c-3.5-3.5-3.7-19.9-3.7-21.7,0-3,1.3-4.5,2.3-5.1,2.7-1.7,6.3.1,6.7.3a2,2,0,0,1-1.8,3.6c-.8-.4-2.3-.8-2.8-.4-.2.1-.4.7-.4,1.7,0,8.6,1.2,17.6,2.5,18.9l2.3,2.3a1.93,1.93,0,0,1,0,2.8A2.39,2.39,0,0,1,262.5,193.6Z" transform="translate(-37.57 -49.7)"/><path d="M367,192.4l-3.5-2s2.3-4.1,3.9-6.8c.4-.7,1.1-4,.9-17.4v-.9a7.37,7.37,0,0,0-1.4.4,2,2,0,0,1-1.6-3.6c.8-.4,3.7-1.5,5.6-.3a3.47,3.47,0,0,1,1.5,2.9v1.5c.1,12-.3,17.4-1.4,19.5C369.3,188.2,367,192.4,367,192.4Z" transform="translate(-37.57 -49.7)"/><path d="M403.3,575.3a1.92,1.92,0,0,1-2-1.9c-1.2-28.2-1.5-88-.9-139,1.3-100.6,5.3-103.5,7-104.7,9.9-7.1,24.2-5.5,45.8-3,10.8,1.2,23,2.6,37.5,3.3a312.57,312.57,0,0,0,71.6-4.6c5.4-1,9.7-3.9,13.3-9.1,18.1-26.2,7.2-97.2,4.8-111-6.3,2.1-24.4,7.4-43,5.6.4,6.6,1,13.1,1.6,19.5,2.1,23.2,3.9,43.2-4.8,51.6-3.4,3.3-8.3,4.6-14.4,3.9-8.3-1-12.2-6.1-16.4-11.6-5-6.6-10.3-13.4-24.3-15.1-16.8-2.1-24.6,3.5-30.4,7.7-3.4,2.5-6.4,4.6-9.9,3.6-7.9-2.1-12.1-5-16.5-8a63.94,63.94,0,0,0-16.8-8.7c-14.5-3.2-24.8-.9-32.3.8-4.8,1.1-8.5,1.9-11.6.9-6.4-2.1-10.7-7-12.8-14.4-1.6-5.7,1-20.1,1.3-21.8a2,2,0,1,1,3.9.7c-.8,4.2-2.5,15.9-1.4,19.9,1.8,6.2,5.1,10,10.2,11.7,2.1.7,5.3,0,9.5-1,7.9-1.8,18.7-4.2,34.2-.7l.2.1a67.43,67.43,0,0,1,17.9,9.2c4.3,2.9,8.1,5.5,15.3,7.4,1.6.4,3.4-.7,6.5-3,5.9-4.3,14.8-10.7,33.2-8.4,15.7,2,21.9,10.1,27,16.6,4,5.2,7.1,9.2,13.7,10,5,.6,8.6-.3,11.2-2.8,7.4-7.1,5.5-27.2,3.6-48.4-.7-7.2-1.3-14.6-1.7-22l-.1-2.4,2.4.3c22.2,2.9,45.5-5.8,45.7-5.9l2.2-.9.4,2.4a422.87,422.87,0,0,1,5.4,46.4c1.9,33.6-1.6,57.1-10.5,69.8-4.1,6-9.5,9.6-15.9,10.7a314,314,0,0,1-72.4,4.7c-14.6-.7-26.9-2.1-37.7-3.3-20.6-2.4-34.2-3.9-42.9,2.2-5.9,9.2-7.1,181.3-4.6,240.4a2.16,2.16,0,0,1-2.1,2.3Z" transform="translate(-37.57 -49.7)"/><path d="M263.6,294.4a2,2,0,0,1-1.4-.6,2.08,2.08,0,0,1-.5-2l12-42a2,2,0,0,1,1.5-1.4,2.2,2.2,0,0,1,2,.7l24.7,31.3a1.94,1.94,0,0,1,.3,1.8,2.1,2.1,0,0,1-1.3,1.3l-36.7,10.7A1.42,1.42,0,0,1,263.6,294.4Zm12.8-39.7-9.9,34.8,30.3-8.8Z" transform="translate(-37.57 -49.7)"/><path d="M316,576a2,2,0,0,1-2-2l-2.4-269.5-13.1-21.8a2,2,0,0,1,3.4-2l13.6,22.7L318,574a2,2,0,0,1-2,2Z" transform="translate(-37.57 -49.7)"/><path d="M313.6,305.9a1.5,1.5,0,0,1-1.1-.4,2,2,0,0,1-.5-2.8l15.4-22.3c.1-.1.1-.2.2-.3l30.7-31.3a1.9,1.9,0,0,1,1.9-.5,2,2,0,0,1,1.4,1.3l11.3,36a1.87,1.87,0,0,1-.4,1.9,2.09,2.09,0,0,1-1.8.7l-39.1-6.4-.9.9-15.3,22.2A2.25,2.25,0,0,1,313.6,305.9Zm21.3-27.4,33.2,5.4-9.3-29.8Z" transform="translate(-37.57 -49.7)"/><path d="M364.4,110c-7.1-8.2-17.5-18.3-36-18.3s-29,2.4-30.5,6.9,0,21.8,0,21.8a6.46,6.46,0,0,0,3.2,2.5c2.4,1,20.2,0,26.2-.2s25.2,1.3,29.3,12.1c3.7,9.7,6.2,12.7,6.3,21.7s0,13.8,0,13.8l3-.2s6.3-25.5,6.3-33S374.5,121.8,364.4,110Zm-51,5.1a.66.66,0,0,1-.5-.4c-.1-.3.1-.5.4-.6A49.44,49.44,0,0,0,337,101a.49.49,0,1,1,.7.7c-10.4,10.7-24.1,13.3-24.3,13.4ZM324,118h-.1a.66.66,0,0,1-.5-.4c-.1-.3.1-.5.4-.6.1,0,11-2.9,21.8-13.9a.49.49,0,1,1,.7.7C335.3,115.1,324.1,118,324,118Zm16.1.3a.55.55,0,0,1-.5-.3c-.1-.3,0-.5.3-.7.1,0,8.2-3.5,11.8-8.3a.5.5,0,0,1,.8.6c-3.8,5-11.9,8.5-12.2,8.7Zm17.2-5a23.75,23.75,0,0,1-6.9,6.4.35.35,0,0,0-.2.1c-.2,0-.3-.1-.4-.3a.53.53,0,0,1,.2-.7,22.47,22.47,0,0,0,6.6-6.1.49.49,0,0,1,.7-.1C357.4,112.8,357.5,113.1,357.3,113.3Z" transform="translate(-37.57 -49.7)"/><path d="M296,99.6c-1.3-3.6-6.6-2.7-13.2-2.3s-13,4.2-18.4,10-6.5,11.1-8,18.8c-1.1,5.3-.1,27.5,2.3,37.5,1.1,4.6,4.4,1.8,4.6,2.3.8,1.5,2.3,10.3,3.1,8.4s2-26.7,3.6-34.1c1.3-5.9,3.9-10.9,9.4-12.8,10.7-3.6,11.2-4.6,13.8-8.3,2.3-3.3,2.2-5.5,2.6-8.6S296.8,101.8,296,99.6Zm-24.7,25.6a.55.55,0,0,1-.5.3h-.2a36.51,36.51,0,0,1-6.1-3.4.5.5,0,0,1,.6-.8,34.32,34.32,0,0,0,5.9,3.3C271.3,124.6,271.4,124.9,271.3,125.2Zm7.7-5.1c-.3,0-6.8,0-10.4-4.2a.49.49,0,0,1,.7-.7c3.3,3.8,9.6,3.8,9.6,3.8a.47.47,0,0,1,.5.5C279.4,119.8,279.3,120.1,279,120.1Zm7-3.5h0a19.07,19.07,0,0,1-11.3-5.1.49.49,0,1,1,.7-.7,18.36,18.36,0,0,0,10.7,4.9.54.54,0,0,1,.5.5A.82.82,0,0,1,286,116.6Z" transform="translate(-37.57 -49.7)"/><path d="M353,104a1.94,1.94,0,0,1-1.9-2.6L363.2,66,343.6,78.4,331.4,56.9,316.2,76.7l-17.3-18L288.1,80.2,269.3,67.6l8,29.9a1.93,1.93,0,0,1-1.4,2.4,1.86,1.86,0,0,1-2.4-1.4L262.8,58.4l23.9,16,11.2-22.5,18,18.7L332,49.7l13,23.1,25.7-16.3-15.9,46.1A1.81,1.81,0,0,1,353,104Z" transform="translate(-37.57 -49.7)"/><path d="M363.2,191.9c-.4-2.1-4.3,1.8-8.3,8.4s-6.3,4.7-10.7,3.7-5-5-9.3-9-7.7-2.3-11.3-1.7-5,6-7.3,7-8.7.3-10.3-1.3c0,0-6.3-9.7-13-7.3s-13.7,12-16.7,9.7-4.3-13.3-8.3-13.7-2.7,8.3-2.7,13,2.3,14.4,4.7,18c4,6,15.7,23.7,26,28.3s21.3,4.3,34.7,2.3,25-28.7,28-38C361.4,202.7,363.6,194,363.2,191.9ZM332,209c-3.7,4.3-11,12.3-18,12.3s-8.7-2.3-15-6.3-9-6.7-8.7-10.3,3.3-6.7,8.7-3.7c3.3,1.8,8.7,8,13.7,7.3a18.76,18.76,0,0,0,12-6.3c2.7-3.3,3.3-4.7,6-3.3S335.6,204.6,332,209Z" transform="translate(-37.57 -49.7)"/><path d="M538.2,188.7a10.9,10.9,0,0,1-1.7-.1c-2.3-.3-4.7-2.3-7.9-5-1.1-.9-2.3-1.9-2.9-2.3a1.42,1.42,0,0,1-.8-.9c-.5-1.1-2.9-6.8-1.1-10.3,2.3-4.6,9.9-19.5,11.8-21.3a2,2,0,0,1,2.7,2.9c-1.1,1.1-6.4,11.1-11,20.1-.6,1.2.2,4.3,1,6.3.8.6,1.8,1.4,2.9,2.3,1.8,1.5,4.6,3.9,5.9,4.1,1.8.3,2,.2,4.4-1.7l.7-.6a30.41,30.41,0,0,0,2.5-2.1,14.58,14.58,0,0,1,2.2-1.7c-.1-.2-.1-.5-.2-.7a1.93,1.93,0,0,1-.5-.9,3.55,3.55,0,0,1-.2-1,4.92,4.92,0,0,1-1.4-1.5.1.1,0,0,0-.1-.1c-2.7,2.8-4.3,3.3-4.7,3.4a1.89,1.89,0,0,1-1.9-.6,1.84,1.84,0,0,1-.4-2c.1-.3,2.6-7.6,4.3-10.4a2.41,2.41,0,0,1,2.6-1.3c1,.2,2.9.4,5.5,11.2a25.75,25.75,0,0,1,1.8,8.1,2.14,2.14,0,0,1-1.8,2,2.26,2.26,0,0,1-2.4-1.6l-.1.1c-.7.6-1.6,1.4-2.7,2.2l-.7.5C541.8,187.7,540.5,188.7,538.2,188.7Zm5.8-19.3a10.37,10.37,0,0,0-.4,1c.2-.1.5-.1.7-.2A6.89,6.89,0,0,0,544,169.4Z" transform="translate(-37.57 -49.7)"/><path d="M577.3,206.3a2,2,0,0,1-2-1.8c-1.5-12.1-3.4-25.5-4.1-27.1-6.7-14.7-10-19.1-18.9-25.2a27.81,27.81,0,0,1-2.8-2.4,18.45,18.45,0,0,0-4.7-3.6c-5.9-2.4-11.1-1-15.7.2a27.12,27.12,0,0,1-6.6,1.2c-5,.2-5.8,3.8-6.5,11.8-.3,3.5-.6,7.1-1.9,10.1-3.1,7.1-2.1,13.9.4,16.7,1.3,1.4,7.5.8,12.5-.7a2,2,0,1,1,1.2,3.8c-2.1.6-12.9,3.6-16.6-.5-3.3-3.7-5.1-11.8-1.1-21,1-2.4,1.3-5.7,1.6-8.8.6-6.7,1.3-15.1,10.4-15.5a35.37,35.37,0,0,0,5.7-1.1c4.9-1.3,11.1-2.9,18.2,0,2.3.9,4.3,2.8,6,4.4a29.09,29.09,0,0,0,2.3,2c9.6,6.5,13.3,11.6,20.3,26.9,1.2,2.7,3.7,22.3,4.4,28.3a1.94,1.94,0,0,1-1.7,2.2A.76.76,0,0,1,577.3,206.3Z" transform="translate(-37.57 -49.7)"/><path d="M527.5,189.4a1.27,1.27,0,0,1-.6-.1,63.91,63.91,0,0,1-7.8-3.4c-4-2.3-3.7-7.6-3.7-7.8V178c.2-1.9,2.2-11.2,3.4-13.9,2-4.7,6.5-16.5,6.9-18.8a2,2,0,0,1,3.2-1.9c1.2,1,1.4,1.6-2,10.8-1.6,4.3-3.5,9.2-4.5,11.5s-2.8,10.9-3.1,12.7c0,.4,0,3.1,1.6,4.1a53.19,53.19,0,0,0,6.8,3,26.79,26.79,0,0,0,6.2-1,2,2,0,0,1,1.5,3.7c-2.4,1-7.3,1.3-7.8,1.3C527.6,189.4,527.6,189.4,527.5,189.4Zm-1.1-42.8Zm0,0Zm0,0Zm0-.1Zm0,0Z" transform="translate(-37.57 -49.7)"/><path d="M512.5,192c-3,0-6.7-.6-8.8-2.9-7.3-8.2.5-36.1,1.7-38.4,1.4-2.7,5.1-2.7,7.8-2.6h1.6a2,2,0,0,1,2.1,1.9,2,2,0,0,1-1.9,2.1h-2c-3.2-.1-4,.2-4.2.5-1.3,2.7-7.6,27.9-2.3,33.9,1.8,2,7.2,1.8,10.2,1.2a2,2,0,0,1,.8,4C517.2,191.6,515.1,192,512.5,192Z" transform="translate(-37.57 -49.7)"/><path d="M540.3,210.3a2.11,2.11,0,0,1-2-1.6c-1-4.5-2.7-12.7-2.7-12.8a2,2,0,0,1,4-.8c0,.1,1.7,8.3,2.7,12.8a2,2,0,0,1-1.5,2.4Z" transform="translate(-37.57 -49.7)"/><path d="M543.9,197.6c-2.6,0-5.3-.2-8-.4a17.7,17.7,0,0,0-2.3-.1,13.6,13.6,0,0,1-11.7-7.2,2,2,0,0,1,3.6-1.6c.1.2,2.2,4.5,8.3,4.8.8,0,1.5.1,2.3.1,6.4.4,13,.9,18-1.4,5.5-2.5,10.9-8.3,10.9-8.4a2,2,0,0,1,2.9,2.7c-.2.3-5.9,6.4-12.2,9.3A27,27,0,0,1,543.9,197.6Z" transform="translate(-37.57 -49.7)"/><path d="M513,200.8a24.5,24.5,0,0,1-3.8-.4c-6.4-1.3-6-11.6-5.9-12.7a2,2,0,0,1,4,.2c-.1,2.5.4,8.1,2.7,8.6,4.1.8,7,.9,9.3-5.7a2,2,0,1,1,3.7,1.3C520.6,199,517,200.8,513,200.8Z" transform="translate(-37.57 -49.7)"/><path d="M372.9,409.7c-9.3,0-19.4-2.2-23.7-6.9-7.3-7.9-2.4-50.1-1.9-54.8l.2-1.8,1.8.1c13.6.5,34.9.9,38.1.1.6-.2,2.3-.3,3.4,1.9,3.9,7.2,5.2,51.8-1,57.4C386.9,408.4,380.2,409.7,372.9,409.7Zm-21.8-59.4c-2,17.5-3.4,45,1,49.8,6.3,6.9,30.4,6.8,35.1,2.6,1.2-1.1,3.1-9.2,3-26.3-.1-14-1.6-23.6-2.7-26C381.3,351.2,358.3,350.5,351.1,350.3Z" transform="translate(-37.57 -49.7)"/><path d="M388,350.2a2,2,0,0,1-2-1.9c-.3-7.5,11.1-21.5,16.5-27.7-8.6-1.1-23.7-2.7-28.6-1.4-1.5.4-5.4,3.8-7.9,26.2-.1.9-.2,1.5-.2,1.8a2,2,0,1,1-3.9-.7c0-.3.1-.8.2-1.6,2.2-19.1,5.5-28.2,10.9-29.6,7.6-2,32.8,1.7,33.9,1.9l3.7.6-2.6,2.8c-7.1,7.6-18.2,21.9-17.9,27.6a2.09,2.09,0,0,1-2.1,2Z" transform="translate(-37.57 -49.7)"/><path d="M354.1,348.1a2.05,2.05,0,0,1-1.9-1.3c-5.2-13.3-13.8-36.3-11.8-40.4a2.56,2.56,0,0,1,1.5-1.4c3.5-1.2,38.3-9.3,39.8-9.7l2-.5,3.9,19.7a2,2,0,0,1-3.9.7l-3.1-15.6c-12,2.8-31.8,7.5-36.6,8.8,0,4.2,5.9,21.5,11.9,36.8a2,2,0,0,1-1.1,2.6C354.6,348.1,354.4,348.1,354.1,348.1Z" transform="translate(-37.57 -49.7)"/><path d="M349.3,350.2a2.09,2.09,0,0,1-1.7-.9l-20.2-29.6,12.9-8a2,2,0,0,1,2.2,3.4l-9.4,5.8L351,347a2,2,0,0,1-.5,2.8A1.92,1.92,0,0,1,349.3,350.2Z" transform="translate(-37.57 -49.7)"/><path d="M354.5,350.8a2.11,2.11,0,0,1-1.8-1.1l-8.5-16,19.3-5.3a2,2,0,1,1,1.1,3.9l-14.5,4,6.1,11.6a2.06,2.06,0,0,1-.8,2.7A1.34,1.34,0,0,1,354.5,350.8Z" transform="translate(-37.57 -49.7)"/><path d="M410,699.3a2,2,0,0,1-2-1.9l-2.7-58-1.2-19.5a2,2,0,1,1,4-.2l1.2,19.5,2.7,58a2,2,0,0,1-2,2.1Z" transform="translate(-37.57 -49.7)"/><path d="M334,589.5c-14.5,0-27.1-.7-29.5-.8-11.3-.7-77.7-9.3-80.5-9.7a2,2,0,0,1,.5-3.9c.7.1,69.1,9,80.2,9.7,15.7.9,46.8,1.7,63.5-1.3,18.1-3.2,33.9-11.7,34.1-11.8l2.8-1.5,1,16.1a2,2,0,0,1-4,.2l-.6-10A133.5,133.5,0,0,1,369,587.3C359.4,589,346.1,589.5,334,589.5Z" transform="translate(-37.57 -49.7)"/><path d="M404,622a2.35,2.35,0,0,1-.8-.2c-17-7.5-27.1-23.4-27.6-24.1a2,2,0,1,1,3.4-2.2c.1.2,9.9,15.6,25.8,22.6a1.9,1.9,0,0,1,1,2.6A2,2,0,0,1,404,622Z" transform="translate(-37.57 -49.7)"/><path d="M318.6,576c-23.9,0-89.4-10.3-92.3-10.7a2,2,0,0,1,.6-4c.7.1,72.1,11.3,93.6,10.6,22.7-.7,59.2-5.6,80.8-12.6a2,2,0,0,1,1.2,3.8c-22.8,7.4-59.2,12.1-81.9,12.8A11.52,11.52,0,0,1,318.6,576Z" transform="translate(-37.57 -49.7)"/><path d="M331.7,589.2,302.5,588l1.2-13.9a2,2,0,0,1,4,.4l-.8,9.8,20.8.8-.3-10.7a2,2,0,1,1,4-.2Z" transform="translate(-37.57 -49.7)"/><path d="M319.3,699.3a2,2,0,0,1-2-2l-1-56a2,2,0,0,1,2-2h0a2,2,0,0,1,2,2l1,56a1.94,1.94,0,0,1-2,2Z" transform="translate(-37.57 -49.7)"/><path d="M404,622a2.09,2.09,0,0,1-1.6-.8,2,2,0,0,1,.4-2.8l27.8-21a61.8,61.8,0,0,0-12.4-12c-5.1-3.7-19.9,10.1-28.8,21.1a2,2,0,0,1-3.1-2.5,128.27,128.27,0,0,1,12.6-13.4c9.9-9.1,17-11.8,21.6-8.5A62.41,62.41,0,0,1,435,596.6l1,1.6-30.8,23.3A2.08,2.08,0,0,1,404,622Z" transform="translate(-37.57 -49.7)"/><path d="M383.3,606.8a1.7,1.7,0,0,1-.7-.1,2,2,0,0,1-1.2-2.6l8.2-22.9,14.4,5.2a2,2,0,0,1-1.4,3.8L392,586.4l-6.8,19.1A2.05,2.05,0,0,1,383.3,606.8Z" transform="translate(-37.57 -49.7)"/><text class="cls-1" transform="translate(331.64 293.49) rotate(13.93)">A</text><text class="cls-2" transform="matrix(0.98, -0.22, 0.22, 0.98, 321.42, 280.35)">B</text><path d="M402.8,597c3.7-4.6,9-4.6,12.4-1.8a8,8,0,0,1,2.8,5.3l-3.8.8a4.69,4.69,0,0,0-1.4-2.9c-1.6-1.3-4.2-1-6.2,1.5s-2.1,4.9-.3,6.4a3.92,3.92,0,0,0,3.4.8v3.8a7.45,7.45,0,0,1-6.1-1.6C400.2,606.5,399,601.7,402.8,597Z" transform="translate(-37.57 -49.7)"/><path d="M302.3,91.8a2,2,0,0,1-1.5-.6L294.1,84a2,2,0,0,1-.3-2.3l4.2-8.2a2.07,2.07,0,0,1,1.4-1,2.09,2.09,0,0,1,1.7.4l8.7,7.2a1.92,1.92,0,0,1,.3,2.7L303.9,91a1.9,1.9,0,0,1-1.5.8Zm-4.2-9.5,4.1,4.4,3.6-4.7-5.3-4.4Z" transform="translate(-37.57 -49.7)"/><path d="M330.3,89.1h0a2.13,2.13,0,0,1-1.5-.7L323,81.7a2.1,2.1,0,0,1-.1-2.6l6.6-8.2a2,2,0,0,1,3.4.5l4.4,9.7a2,2,0,0,1-.4,2.2l-5.2,5.2A1.82,1.82,0,0,1,330.3,89.1Zm-3.2-8.7,3.3,3.8,2.7-2.7L330.6,76Z" transform="translate(-37.57 -49.7)"/><path d="M279.3,93.3h-.1a2.07,2.07,0,0,1-1.8-1.3l-3.8-11a1.9,1.9,0,0,1,.7-2.2,2.13,2.13,0,0,1,2.3-.1l6.8,4.7a2,2,0,0,1,.7,2.5l-3,6.3A1.89,1.89,0,0,1,279.3,93.3Zm.1-7.9.2.7.2-.4Z" transform="translate(-37.57 -49.7)"/><path d="M350.8,94.1h0a2.1,2.1,0,0,1-1.9-1.3L346.2,85a1.94,1.94,0,0,1,.3-1.8l.8-1.2c.2-.2.4-.5.7-.6l7.1-3.8a2,2,0,0,1,2.3.3,2.05,2.05,0,0,1,.5,2.2l-5.2,12.8A2.12,2.12,0,0,1,350.8,94.1Zm-.4-9.4.6,1.7,1.1-2.7Z" transform="translate(-37.57 -49.7)"/><path d="M222,691.3h0a2,2,0,0,1-2-2.1c1-24.9,2.1-109.9,1.9-192-.2-139.1-3.4-158.3-4.5-160.8-8.7-6-22.3-4.5-42.8-2.1-10.8,1.2-23.1,2.6-37.7,3.3a313.59,313.59,0,0,1-72.4-4.7c-6.4-1.1-11.7-4.7-15.9-10.7C27.7,292,42.8,209.5,43.5,206l.4-2.3,2.2.8c.2.1,23.5,8.8,45.7,5.9l2.4-.3-.1,2.4c-.4,7.4-1.1,14.8-1.7,22-1.9,21.2-3.7,41.3,3.6,48.4,2.6,2.5,6.2,3.4,11.2,2.8,6.6-.8,9.7-4.9,13.7-10,5-6.5,11.3-14.7,27-16.6,18.4-2.3,27.3,4.1,33.2,8.4,3.2,2.3,4.9,3.4,6.5,3a46.4,46.4,0,0,0,15.3-7.4,70.55,70.55,0,0,1,17.9-9.2l.2-.1c15.4-3.4,26.3-1,34.2.7,4.2.9,7.4,1.7,9.5,1,5.1-1.7,8.4-5.5,10.2-11.7,1.1-4-.6-15.8-1.4-19.9a2,2,0,1,1,3.9-.7c.3,1.6,2.9,16.1,1.3,21.8-2.1,7.4-6.4,12.3-12.8,14.4-3.1,1-6.9.2-11.6-.9-7.5-1.7-17.8-4-32.3-.8a63.94,63.94,0,0,0-16.8,8.7,49.66,49.66,0,0,1-16.5,8c-3.6,1-6.5-1.2-9.9-3.6-5.7-4.1-13.6-9.8-30.4-7.7-14,1.8-19.2,8.5-24.3,15.1-4.2,5.4-8.1,10.6-16.4,11.6q-9.3,1.05-14.4-3.9c-8.7-8.5-6.9-28.5-4.8-51.6.6-6.4,1.2-13,1.6-19.5-18.5,1.8-36.7-3.5-43-5.6-2.3,13.7-13.3,84.8,4.8,111,3.6,5.2,7.9,8.1,13.3,9.1a306.69,306.69,0,0,0,71.6,4.6c14.5-.7,26.7-2.1,37.5-3.3,21.6-2.5,35.9-4.1,45.8,3,1.4,1,3.3,2.4,4.7,51.7.7,26.8,1.2,64.6,1.3,109.2.2,83.2-.9,169.6-1.9,195.1A2.47,2.47,0,0,1,222,691.3Zm-4.7-355Z" transform="translate(-37.57 -49.7)"/><path d="M89.3,192.4c-2.3,0-3.6-1-5.7-2.6l-.7-.5c-1.1-.8-2-1.6-2.7-2.2l-.1-.1a2.26,2.26,0,0,1-2.4,1.6,2.05,2.05,0,0,1-1.8-2,25.75,25.75,0,0,1,1.8-8.1c2.6-10.7,4.5-11,5.5-11.2a2.48,2.48,0,0,1,2.6,1.3c1.7,2.8,4.2,10.1,4.3,10.4a2,2,0,0,1-.4,2,2,2,0,0,1-1.9.6c-.4-.1-2.1-.7-4.7-3.4a.1.1,0,0,1-.1.1,4.92,4.92,0,0,1-1.4,1.5,3.55,3.55,0,0,0-.2,1,2,2,0,0,1-.5.9c-.1.2-.1.5-.2.7a10.06,10.06,0,0,1,2.2,1.7c.7.6,1.5,1.3,2.5,2.1l.7.6c2.4,1.8,2.5,1.9,4.4,1.7,1.3-.2,4.1-2.5,5.9-4.1,1.1-.9,2.1-1.7,2.9-2.3.8-2,1.6-5.1,1-6.3-4.5-9-9.9-19-11-20.2a2,2,0,0,1,2.7-2.9c1.9,1.7,8.9,15.5,11.9,21.3,1.8,3.5-.6,9.2-1.1,10.3a2.36,2.36,0,0,1-.8.9,28,28,0,0,0-2.9,2.3c-3.2,2.7-5.7,4.6-7.9,5A6.61,6.61,0,0,0,89.3,192.4Zm-6.2-18.6a1.85,1.85,0,0,1,.7.2c-.1-.3-.3-.7-.4-1A6.89,6.89,0,0,1,83.1,173.8Z" transform="translate(-37.57 -49.7)"/><path d="M50.1,210h-.2a1.88,1.88,0,0,1-1.7-2.2c.7-5.9,3.2-25.6,4.4-28.3,7-15.3,10.8-20.3,20.3-26.9a29.09,29.09,0,0,0,2.3-2,18.64,18.64,0,0,1,6-4.4c7.1-2.8,13.3-1.2,18.2,0a35.37,35.37,0,0,0,5.7,1.1c9,.4,9.8,8.7,10.4,15.5.3,3.2.6,6.5,1.6,8.8,4,9.2,2.2,17.3-1.1,21-.6.7-4.5,4.1-16.6.5a2,2,0,1,1,1.2-3.8c5,1.5,11.2,2.1,12.5.7,2.5-2.8,3.5-9.5.4-16.7-1.3-3-1.6-6.6-1.9-10.1-.7-8-1.5-11.6-6.5-11.8a32.94,32.94,0,0,1-6.6-1.2c-4.6-1.2-9.8-2.5-15.7-.2-1.6.6-3.2,2.2-4.7,3.6a27.81,27.81,0,0,1-2.8,2.4c-8.9,6.1-12.3,10.6-18.9,25.2-.7,1.6-2.6,15-4,27.1A2.73,2.73,0,0,1,50.1,210Z" transform="translate(-37.57 -49.7)"/><path d="M99.9,193.1h0c-.6,0-5.5-.3-7.9-1.3a2,2,0,0,1,1.5-3.7,26.79,26.79,0,0,0,6.2,1,53.19,53.19,0,0,0,6.8-3c1.6-.9,1.7-3.6,1.6-4.1-.2-1.8-2.1-10.5-3.1-12.7s-2.9-7.2-4.5-11.5c-3.4-9.2-3.2-9.8-2-10.8a2,2,0,0,1,3.2,1.9c.4,2.3,4.9,14.1,6.9,18.8,1.2,2.7,3.1,12,3.4,13.9v.1c0,.2.3,5.6-3.7,7.8a82.09,82.09,0,0,1-7.8,3.4A.73.73,0,0,1,99.9,193.1Zm1.1-42.9Zm.1,0Zm0,0Zm0,0Zm0,0Z" transform="translate(-37.57 -49.7)"/><path d="M114.9,195.7a27.63,27.63,0,0,1-5.2-.5,2,2,0,1,1,.8-4c3,.6,8.4.8,10.1-1.2,5.3-5.9-.9-31.2-2.3-33.9-.1-.2-1-.5-4.2-.5h-2a2,2,0,0,1,.2-4h1.6c2.7-.1,6.3-.1,7.8,2.6,1.2,2.3,9,30.2,1.7,38.4C121.6,195.1,117.9,195.7,114.9,195.7Z" transform="translate(-37.57 -49.7)"/><path d="M87.1,214h-.4a1.92,1.92,0,0,1-1.5-2.4c1-4.4,2.7-12.7,2.7-12.8a2,2,0,1,1,4,.8c0,.1-1.7,8.4-2.7,12.8A2.22,2.22,0,0,1,87.1,214Z" transform="translate(-37.57 -49.7)"/><path d="M83.5,201.3a29.28,29.28,0,0,1-11.9-2.1c-6.3-2.9-12-9-12.2-9.3a2,2,0,1,1,2.9-2.7c.1.1,5.4,5.8,10.9,8.4,4.9,2.3,11.5,1.8,18,1.4a17.7,17.7,0,0,1,2.3-.1c6.2-.4,8.2-4.8,8.2-4.8a2,2,0,1,1,3.6,1.6c-.1.3-3.1,6.7-11.7,7.2-.8,0-1.5.1-2.3.1C88.9,201.1,86.2,201.3,83.5,201.3Z" transform="translate(-37.57 -49.7)"/><path d="M114.4,204.5c-3.9,0-7.6-1.8-10-8.8a2,2,0,1,1,3.7-1.3c2.3,6.6,5.1,6.5,9.3,5.7,2.3-.5,2.8-6.1,2.7-8.6a2,2,0,1,1,4-.2c.1,1.2.5,11.4-5.9,12.7A15.83,15.83,0,0,1,114.4,204.5Z" transform="translate(-37.57 -49.7)"/><path d="M303.6,254.6c-4.7,2-2.3,7.2,7.7,7.7C311.3,262.3,308.3,252.6,303.6,254.6Zm.5,2.1c.9-1.1,4.2,3.1,4.2,3.1S303.2,257.8,304.1,256.7Z" transform="translate(-37.57 -49.7)"/><path d="M318.1,254.6c-3-1.3-6.8,7.7-6.8,7.7C319.6,260.8,321.1,256,318.1,254.6Zm-4.4,5.3s2.6-4.2,3.3-3.6S317.4,258.1,313.7,259.9Z" transform="translate(-37.57 -49.7)"/><path d="M311.3,262.3s-4.1,8.6-4.1,13.1,1.3-.5,1.3-.5Z" transform="translate(-37.57 -49.7)"/><path d="M311.3,262.3s8.7,10.7,8.8,10.9-1.6,1.1-1.6,1.1l-7.6-11.2Z" transform="translate(-37.57 -49.7)"/><path d="M311.3,262.3s14.1-.5,21-2.8c8.8-2.9,23.8-14.2,23.8-14.2l.5,1.1s-15.8,11.8-23.8,14.3a60.22,60.22,0,0,1-21.1,2.4C311,263.1,311.3,262.3,311.3,262.3Z" transform="translate(-37.57 -49.7)"/><path d="M311,263.1s-9.5.2-17.3-2.7-21.4-14.2-21.4-14.2l.6-.5s14.5,11,19.5,13c8.2,3.3,19,3.6,19,3.6Z" transform="translate(-37.57 -49.7)"/><path d="M1138.7,297.3s-91.9,88.1-249.4,106.1c-117.8,13.5-283.4,21.9-443.1-75.6-9.3-5.7-20-2-22-2s-10,2-15.7,5.5-1.3,2.5-2.3,8-3,40-3,40l-.7,55.1a418.35,418.35,0,0,0,33.2,37.3c22.8,23,61.4,57.3,115.7,90.7,61,37.5,129,66.1,202.1,85.1,91.4,23.7,191,32.2,296.1,25.4a2,2,0,1,1,.2,4c-23.5,1.5-46.6,2.3-69.5,2.3-80.1,0-156.5-9.3-228-27.9-73.5-19.1-141.8-47.9-203.2-85.6-30.1-18.5-74.8-49.4-116.4-91.3a431.07,431.07,0,0,1-30.3-33.6l-.8,62,2.3,83.5s10.2-3.5,15.2-2.5,5,4,5,4l9,10-27.2,22,3.6,55.1,14.7,24,687.3,84.4s-41.6-70.1-15.6-151.1c9.7-30.3,52.3-56,55-88,3.3-39.5-23.2-35.3-22.9-77.4.1-16.5,18.7-63.6,25.5-82.5C1173.3,330.2,1138.7,297.3,1138.7,297.3Zm-72.9,159.4c-1.7.5-102.8,52.1-242.5,49.2C705.2,503.4,570,452,529.9,435.7c10.7,8.2,30.8,21.6,63.5,35.6,88,37.9,197.4,51.4,273.6,56.1a2.08,2.08,0,0,1,1.9,2.1,2,2,0,0,1-2,1.9h-.1c-76.7-4.7-186.7-18.4-275.3-56.6-53.2-23-73.1-43.7-74-44.5a2,2,0,0,1-.2-2.5,1.92,1.92,0,0,1,2.4-.7c1.6.7,164.8,71.9,303.7,74.8s239.5-48.5,241.2-49a2,2,0,0,1,2.5,1.3A1.88,1.88,0,0,1,1065.8,456.7Z" transform="translate(-37.57 -49.7)"/><path d="M193.3,330.3a259.35,259.35,0,0,0-9,67c0,37,9.9,118.6,38.3,167.3,3-31,2-94.7,2-94.7s-2-103.3-2-105.3-3.9-29.7-3.9-29.7l-11.5-4.3Z" transform="translate(-37.57 -49.7)"/><path d="M224,571l-3.1-5.4c-28.1-48.2-38.6-128.8-38.6-168.3a263.1,263.1,0,0,1,9.1-67.6l.4-1.5,15.9.4,12.9,4.9.2,1.2c.6,4.6,3.9,27.9,3.9,29.9s2,104.3,2,105.3c0,.6,1,64.1-2,94.9ZM194.8,332.3a261,261,0,0,0-8.5,65c0,37.6,9.5,112.6,34.9,160.6,2.3-32.2,1.5-87.3,1.4-87.9-.1-4.2-2-103.4-2-105.4,0-1.4-2.2-17.6-3.7-28.2l-10-3.8Z" transform="translate(-37.57 -49.7)"/></svg>