<svg id="Calque_1" data-name="Calque 1" xmlns="http://www.w3.org/2000/svg" viewBox="0 0 450.9 553.92"><defs><style>.cls-1,.cls-2,.cls-3{fill:none;}.cls-2,.cls-3{stroke:#000;stroke-linecap:round;stroke-width:4px;}.cls-2{stroke-miterlimit:10;}.cls-3{stroke-linejoin:round;}</style></defs><title>CostKiller-01-2</title><circle cx="197.61" cy="82.72" r="2.9"/><circle cx="243.31" cy="82.72" r="2.9"/><path d="M226.5,133.2a19.27,19.27,0,0,1-2.4-.1c-11.2-1-18-6.6-18.3-6.9l-1.4-1.2,1.1-1.5c.2-.3,6-7.8,18.6-7.6,12.9.2,16.5,8.7,16.6,9.1l.4.9-.5.9C240.5,127.1,236.6,133.2,226.5,133.2Zm-16.3-8.7a33.55,33.55,0,0,0,14.2,4.7c7,.7,10.7-2.1,12.1-3.6-1.2-1.8-4.6-5.5-12.4-5.6C216.9,119.8,212.4,122.6,210.2,124.5Z" transform="translate(-26.19 -41.88)"/><path d="M267.3,133.2c-10,0-13.9-6.1-14.1-6.4l-.5-.9.4-.9c.1-.4,3.8-8.9,16.6-9.1,12.5-.2,18.4,7.3,18.6,7.6l1.1,1.5-1.4,1.2a35.8,35.8,0,0,1-18.3,6.9A19.27,19.27,0,0,1,267.3,133.2Zm-10-7.6c1.4,1.5,5.1,4.2,12.1,3.6a32.24,32.24,0,0,0,14.3-4.7c-2.1-1.8-6.6-4.6-13.9-4.5C261.9,120,258.5,123.7,257.3,125.6Zm-2.4.2Z" transform="translate(-26.19 -41.88)"/><path d="M246.1,157.8a6.27,6.27,0,0,1-4.4-2.2c-2.2-2.2-1.6-5.4-.7-9.7a74.66,74.66,0,0,0,1.9-14.9,2,2,0,0,1,2-2h0a2,2,0,0,1,2,2,73.63,73.63,0,0,1-2,15.7c-.7,3.1-1.1,5.3-.4,6,.9.9,1.5,1.1,1.6,1s.4-.3.7-1.1a2,2,0,0,1,3.8,1.2,5.17,5.17,0,0,1-3.6,3.7A1.22,1.22,0,0,1,246.1,157.8Z" transform="translate(-26.19 -41.88)"/><path d="M247.5,200.1c-23.2,0-42.2-20-47.5-27.7-3.7-5.3-4-16.6-4.3-24.8l-.1-1.8c-.3-7.7-1.6-35.6-1.6-35.9a2,2,0,1,1,4-.2c0,.3,1.3,28.2,1.6,36l.1,1.8c.2,6.8.6,18.3,3.6,22.6.2.3,18.7,26,44.2,26,22.8,0,32.1-12.7,35.7-17.4,5.4-7.3,9.9-18.3,10.9-26.9,1.1-9.5,1-29.9.9-39.7v-4.2a2,2,0,1,1,4,0V112c.1,9.9.2,30.5-1,40.2-1.1,9.4-5.8,20.9-11.6,28.8C282.5,186.3,272.3,200.1,247.5,200.1Z" transform="translate(-26.19 -41.88)"/><path d="M234.1,112.5c3.2,2,4.8,1.2,4.8-1.2s-5.7-6.7-12.9-7-16.8,2.2-20.7,7.6c-3.5,4.8-1.4,3.9,1,2.5s11.4-4,15.9-4.3C226.9,109.6,231.9,111,234.1,112.5Z" transform="translate(-26.19 -41.88)"/><path d="M259.4,111.8c-3.2,2.1-5.4,1-5.4-1.6s5.8-6.5,13.1-6.8,16.8,2.4,20.8,7.4c3.8,4.8,1.6,3.7-1,2.6-4-1.7-10.8-4.2-16-4.6A19.69,19.69,0,0,0,259.4,111.8Z" transform="translate(-26.19 -41.88)"/><path d="M245.6,175.7c-12.7,0-19.5-10.2-19.8-10.6a2,2,0,1,1,3.4-2.2h0c.1.1,6,8.8,16.5,8.8,8.4,0,14.2-5.9,15.2-8.9a2,2,0,1,1,3.8,1.4C263,168.8,255.8,175.7,245.6,175.7Z" transform="translate(-26.19 -41.88)"/><path d="M245.7,181.7a18.32,18.32,0,0,1-5.9-.8,2,2,0,0,1,1.2-3.8,17.42,17.42,0,0,0,9.1,0,2,2,0,0,1,1.4,3.8A18,18,0,0,1,245.7,181.7Z" transform="translate(-26.19 -41.88)"/><path d="M195.3,153.7a2,2,0,0,1-1.4-.6l-2.3-2.3c-3.5-3.5-3.7-19.9-3.7-21.7,0-3,1.3-4.5,2.3-5.1,2.7-1.7,6.3.1,6.7.3a2,2,0,0,1-1.8,3.6c-.8-.4-2.3-.8-2.8-.4-.2.1-.4.7-.4,1.7,0,8.6,1.2,17.6,2.5,18.9l2.3,2.3a1.93,1.93,0,0,1,0,2.8A2.39,2.39,0,0,1,195.3,153.7Z" transform="translate(-26.19 -41.88)"/><path d="M296.1,155.5l-.1-4.7s2.3-4.1,3.9-6.8c.4-.7,1.1-4,.9-17.4v-.9c-.4.1-1,.3-1.4.4a2,2,0,1,1-1.6-3.6c.8-.4,3.7-1.5,5.6-.3a3.47,3.47,0,0,1,1.5,2.9v1.5c.1,12-.3,17.4-1.4,19.5C301.9,148.6,296.1,155.5,296.1,155.5Z" transform="translate(-26.19 -41.88)"/><path d="M339.4,477a2,2,0,0,1-2-1.9s-.3-5.1-.7-13.6a2,2,0,0,1,1.9-2.1,2.08,2.08,0,0,1,2.1,1.9c.4,8.5.7,13.6.7,13.6a2,2,0,0,1-1.9,2.1Z" transform="translate(-26.19 -41.88)"/><line class="cls-1" x1="199.31" y1="258.72" x2="204.41" y2="261.02"/><path d="M230.6,304.9a1.88,1.88,0,0,1-.8-.2l-5.1-2.3a2,2,0,1,1,1.6-3.6l5.1,2.3a1.93,1.93,0,0,1,1,2.6A2,2,0,0,1,230.6,304.9Z" transform="translate(-26.19 -41.88)"/><line class="cls-1" x1="210.51" y1="245.22" x2="212.61" y2="250.42"/><path d="M238.8,294.3a2.16,2.16,0,0,1-1.9-1.3l-2.1-5.2a2,2,0,0,1,3.7-1.5l2.1,5.2a2,2,0,0,1-1.1,2.6A1,1,0,0,1,238.8,294.3Z" transform="translate(-26.19 -41.88)"/><line class="cls-1" x1="257.61" y1="258.02" x2="252.51" y2="260.32"/><path d="M278.7,304.2a1.83,1.83,0,0,1-1.8-1.2,1.9,1.9,0,0,1,1-2.6l5.1-2.3a2,2,0,1,1,1.6,3.6l-5.1,2.3A1.08,1.08,0,0,1,278.7,304.2Z" transform="translate(-26.19 -41.88)"/><line class="cls-1" x1="246.41" y1="244.62" x2="244.31" y2="249.72"/><path d="M270.5,293.6a1.7,1.7,0,0,1-.7-.1,2,2,0,0,1-1.1-2.6l2.1-5.2a2,2,0,1,1,3.7,1.5l-2.1,5.2A2.06,2.06,0,0,1,270.5,293.6Z" transform="translate(-26.19 -41.88)"/><line class="cls-1" x1="200.01" y1="294.22" x2="205.11" y2="291.92"/><path d="M226.2,338.1a1.83,1.83,0,0,1-1.8-1.2,1.9,1.9,0,0,1,1-2.6l5.1-2.3a2,2,0,0,1,1.6,3.6l-5.1,2.3A3.09,3.09,0,0,1,226.2,338.1Z" transform="translate(-26.19 -41.88)"/><line class="cls-1" x1="211.21" y1="307.62" x2="213.31" y2="302.52"/><path d="M237.4,351.5a1.7,1.7,0,0,1-.7-.1,2,2,0,0,1-1.1-2.6l2.1-5.2a2,2,0,0,1,3.7,1.5l-2.1,5.2A2.06,2.06,0,0,1,237.4,351.5Z" transform="translate(-26.19 -41.88)"/><line class="cls-1" x1="258.31" y1="294.92" x2="253.21" y2="292.62"/><path d="M284.5,338.8a1.88,1.88,0,0,1-.8-.2l-5.1-2.3a2,2,0,0,1,1.6-3.6l5.1,2.3a1.93,1.93,0,0,1,1,2.6A2.22,2.22,0,0,1,284.5,338.8Z" transform="translate(-26.19 -41.88)"/><line class="cls-1" x1="247.01" y1="308.32" x2="245.01" y2="303.12"/><path d="M273.2,352.2a2.16,2.16,0,0,1-1.9-1.3l-2.1-5.2a2,2,0,0,1,3.7-1.5l2.1,5.2a2,2,0,0,1-1.1,2.6A.84.84,0,0,1,273.2,352.2Z" transform="translate(-26.19 -41.88)"/><path d="M255.3,356.2a2,2,0,0,1-2-2v-9.4a2,2,0,0,1,4,0v9.4A2,2,0,0,1,255.3,356.2Z" transform="translate(-26.19 -41.88)"/><path d="M283.2,320.7a2,2,0,0,1-.1-4l8.9-.5a2.08,2.08,0,0,1,2.1,1.9,2,2,0,0,1-1.9,2.1l-8.9.5Z" transform="translate(-26.19 -41.88)"/><path d="M220.1,319.7a2,2,0,0,1-.1-4l8.9-.5a2.08,2.08,0,0,1,2.1,1.9,2,2,0,0,1-1.9,2.1l-8.9.5Z" transform="translate(-26.19 -41.88)"/><path d="M255.7,317.1c-1.8-4.7-.3-34.4-3.1-34.5s-.5,28.7-2.9,37.4c-.6,4.5,1.5,8.2,3.6,8.1C257.2,327.7,257.5,321.7,255.7,317.1Zm-2.6,7.4s-1.8-3.1-.5-4.2S254.4,322.5,253.1,324.5Z" transform="translate(-26.19 -41.88)"/><path d="M257.3,323.5c2.6-2.5,22.1-5.9,21.5-8.6s-18.7,4.2-24.9,3.3c-3.1.1-5,2.8-4.3,4.8C250.8,326.6,254.7,326,257.3,323.5Zm-5.4-1.3s1.5-2.2,2.6-1.2S253.5,323.1,251.9,322.2Z" transform="translate(-26.19 -41.88)"/><path d="M338.7,463.5a2,2,0,0,1-1.9-1.4L324,417.5a2,2,0,0,1,3.9-1.1l12.8,44.5a2,2,0,0,1-1.4,2.5C339.1,463.4,338.9,463.5,338.7,463.5Z" transform="translate(-26.19 -41.88)"/><path d="M327.1,488.5a2,2,0,0,1-2-1.7l-12.7-78.7a2,2,0,1,1,4-.6l12.7,78.7a2,2,0,0,1-1.7,2.3Z" transform="translate(-26.19 -41.88)"/><path d="M251.9,513.5a2,2,0,0,1-2-2l-2.8-140.7a1.92,1.92,0,0,1,1.9-2,1.86,1.86,0,0,1,2,1.9l2.8,140.7a1.89,1.89,0,0,1-1.9,2.1Z" transform="translate(-26.19 -41.88)"/><path d="M205.4,263.5a1.88,1.88,0,0,1,.8-.2,7.77,7.77,0,0,0-.2-1.6,6.89,6.89,0,0,1-.8.3,2.2,2.2,0,0,0,.1.8A1.7,1.7,0,0,1,205.4,263.5Z" transform="translate(-26.19 -41.88)"/><path d="M187.7,236.4c2,5.3,1.7,7.8,5.2,9.7.2,1.2.4,2.5.7,4,1.3,5.8,1.4,9.1,4.6,10.1.3,5.9,1.7,15,5,16.1a7.8,7.8,0,0,0,2.2.3h.4c.2.5.5,1,.8,1.6,2.8,5.6,3.6,8.7,7.4,8.7a10,10,0,0,0,1.6-.2l1.2-3.3-.3-13.4a30.89,30.89,0,0,0-4.3-3.3c-.1-.8-.2-1.6-.4-2.6-1.2-5.6-.4-7.9-3.5-10.4a11.28,11.28,0,0,0-.4-3,2.92,2.92,0,0,1-.2-.9l-5.8,1.3c.1.3.1.6.2.9a5.16,5.16,0,0,0-2.9,1.8c-.1-.2-.3-.3-.4-.5s-.4-.8-.7-1.4l-1.8.4.8-3.5a11.63,11.63,0,0,1-.4-1.8h.7l3.1-13.5c-1.2-4.1-2.9-8.2-5-9.9a8.8,8.8,0,0,0-.5-1.5,10.93,10.93,0,0,1-.5-1.7l-3.5,1.5a3.58,3.58,0,0,1,.4,1.1,7,7,0,0,0-3.6,2.1l-.6-1.5-4.4,2-.7.2a26.78,26.78,0,0,0,4.1,5.3A43.17,43.17,0,0,0,187.7,236.4Zm24.1,35.7a26.8,26.8,0,0,1,3.8,6.4c1,2.2.5,2.9-.4,2.9a4.76,4.76,0,0,1-2.6-1.2,23,23,0,0,1-3.2-4.8A6.48,6.48,0,0,0,211.8,272.1ZM207,258.4c1,1.6,1.3,4.5,1.2,6.8-.3,0-.6-.1-.8-.1a2.9,2.9,0,0,0-1.4.3,3.69,3.69,0,0,0-1.8,2.1,4.23,4.23,0,0,1-.6-2.5c0-1.2-.3-3-.3-4.6A5.68,5.68,0,0,0,207,258.4Zm-13.8-23.2a1.49,1.49,0,0,0,.9-.2,3.71,3.71,0,0,0,1.7-1.3c0,.2.1.3.1.5a29.75,29.75,0,0,0,.8,3.2h0a1.27,1.27,0,0,0-.6.1,4.1,4.1,0,0,0-3,3.2,15,15,0,0,1-1.8-6.1A3.53,3.53,0,0,0,193.2,235.2Z" transform="translate(-26.19 -41.88)"/><path d="M212,275.8h0c.2.5.5.9.7,1.3C212.4,276.6,212.2,276.2,212,275.8Z" transform="translate(-26.19 -41.88)"/><path d="M209.7,249.6a2.92,2.92,0,0,1,.2.9,21.66,21.66,0,0,1,.4,2.5c2.2,2.1,2.5,4.3,2.9,7.1a32.62,32.62,0,0,0,.6,3.8l.3,1.8c.8.5,1.6,1.1,2.4,1.7l-.1-4.3v-15Z" transform="translate(-26.19 -41.88)"/><path d="M197.1,221.7c.1.4.2.7.3,1,1.5,1.4,2.8,3.8,4.1,7.2l3.1-13.7-8.1,3.6C196.7,220.4,196.9,221,197.1,221.7Z" transform="translate(-26.19 -41.88)"/><path d="M199.7,250.5a3.55,3.55,0,0,1-.2-1h-.1C199.5,249.9,199.6,250.2,199.7,250.5Z" transform="translate(-26.19 -41.88)"/><path d="M202.1,252.2a5.26,5.26,0,0,0-2.6,1.5l8.5-2.5a.37.37,0,0,0-.1-.3,16.57,16.57,0,0,0-1.3-3.5l-5.3,1.5A15.94,15.94,0,0,1,202.1,252.2Z" transform="translate(-26.19 -41.88)"/><path d="M234.6,240.6,210,209.3a1.91,1.91,0,0,0-2-.7,2,2,0,0,0-1.5,1.4l-5.4,18.9a15.55,15.55,0,0,1,.8,2.3c.5,1.6,1,3.2,1.4,4.6l6-20.9,20.4,25.9-21,6.1a19.69,19.69,0,0,1,1.3,3.6v.2l23.7-6.9a2,2,0,0,0,.9-3.2Z" transform="translate(-26.19 -41.88)"/><path d="M199.2,248.9c0,.2.1.3.1.5v-.2c.1-.1,0-.2-.1-.3Z" transform="translate(-26.19 -41.88)"/><path d="M194.5,251.9a2.08,2.08,0,0,0,.5,2,2,2,0,0,0,1.4.6,1.27,1.27,0,0,0,.6-.1l2.2-.6c-.1-.1-.2-.2-.2-.3a19.51,19.51,0,0,1-2-6.2h.1a6,6,0,0,0,3.3-.9l1.9-6.5a63.12,63.12,0,0,0-2-7.7Z" transform="translate(-26.19 -41.88)"/><path d="M360,458l-20.6-54q-.9-5,7.2-10.2c6.8-4.4,23.7-11.3,27.3-8.8,5.1,3.5,17.4,30.8,20,38.4l.4,1.1c3.3,9.5,5.7,16.4,1.9,19.3-2.9,2.1-29,11.7-34.2,13.6Zm-16.7-54.9,19,49.8c14.3-5.2,29.7-11.2,31.4-12.4,1.5-1.1-1.5-9.7-3.2-14.8l-.4-1.1c-3.4-9.8-14.7-33.2-18.3-36.2-2.9-.3-20.2,5.3-26.6,11.5C343.9,401.2,343.3,402.3,343.3,403.1Z" transform="translate(-26.19 -41.88)"/><path d="M220.8,275.5a22.64,22.64,0,0,0-8.5-8.6c-.1-.8-.2-1.6-.4-2.6-1.2-5.6-.4-7.9-3.5-10.4a11.28,11.28,0,0,0-.4-3,22.9,22.9,0,0,0-5.7-10c-.6-4.5-3.2-14.4-6.6-17.1a8.8,8.8,0,0,0-.5-1.5c-2.2-6.8-2.3-10.1-8-9.8s-8.4,3.9-6.3,10.4a23.31,23.31,0,0,0,5.6,8.5,19.42,19.42,0,0,0,1.2,5.1c2,5.3,1.7,7.8,5.2,9.7.2,1.2.4,2.5.7,4,1.3,5.8,1.4,9.1,4.6,10.1.3,5.9,1.7,15,5,16.1a5.66,5.66,0,0,0,2.6.3c.2.5.5,1,.8,1.6,3.2,6.4,3.8,9.6,9.4,8.5C221.7,285.5,223.9,281.5,220.8,275.5Zm-21.9-22a19.51,19.51,0,0,1-2-6.2,6.47,6.47,0,0,0,3.7-1.1,30,30,0,0,1,1.6,6,5.16,5.16,0,0,0-2.9,1.8C199.1,253.8,199,253.6,198.9,253.5Zm-9.2-34a14.54,14.54,0,0,1,1.9,3.8,7,7,0,0,0-3.6,2.1,24.84,24.84,0,0,1-1.5-4.6C185.3,216.3,188.5,217.9,189.7,219.5Zm1.5,15.2a3.6,3.6,0,0,0,2.8.3,3.71,3.71,0,0,0,1.7-1.3c0,.2.1.3.1.5a29.75,29.75,0,0,0,.8,3.2,1.7,1.7,0,0,0-.7.1,4.1,4.1,0,0,0-3,3.2A15.11,15.11,0,0,1,191.2,234.7Zm12,25.8a6.23,6.23,0,0,0,3.8-2.1c1,1.6,1.3,4.5,1.2,6.8a3.44,3.44,0,0,0-2.3.3,3.69,3.69,0,0,0-1.8,2.1,4.23,4.23,0,0,1-.6-2.5C203.5,263.9,203.2,262.1,203.2,260.5Zm9.4,19.7a23,23,0,0,1-3.2-4.8,6.36,6.36,0,0,0,2.4-3.4,26.8,26.8,0,0,1,3.8,6.4C217.4,282.6,214.1,281.5,212.6,280.2Z" transform="translate(-26.19 -41.88)"/><path d="M314.8,212.1c-5.3-4.2-10.5-3.1-13.6,4.2a25.91,25.91,0,0,0-1.7,11.8,22.57,22.57,0,0,0-2.8,5.4c-2.4,6.3-4.6,8.2-3,12.6-.8,1.2-1.6,2.5-2.5,4.1-3.4,6.2-5.9,9.1-3.8,12.6-4.3,5.4-10.1,14.6-8.1,18.1,2.6,4.5,10.4,7.6,16.9-3.9,3.3-5.8,5.8-7.3,5-11.9a16.39,16.39,0,0,0,2-2.9A28.26,28.26,0,0,0,306,249c2.9-4.4,8.3-15.2,7.5-20.2.3-.6.5-1.1.8-1.7C317.5,219.3,320,216.3,314.8,212.1Zm-3.3,8.1a19.68,19.68,0,0,1-1.2,4.9,7.21,7.21,0,0,0-4.8-.9,32.74,32.74,0,0,1,2.3-5.3C310.2,214,311.6,217.9,311.5,220.2Zm-8.2,17.2a4.36,4.36,0,0,0,2.5.2,2.19,2.19,0,0,1-.3.5,26.27,26.27,0,0,0-1.8,3.4,4.23,4.23,0,0,0-.7-.5,4.79,4.79,0,0,0-5.1.6,16.28,16.28,0,0,1,3.2-6.8A4.49,4.49,0,0,0,303.3,237.4Zm-7.1,12.9a6.78,6.78,0,0,0,4,1.9,32.06,32.06,0,0,1-3.2,6.5,6,6,0,0,0-3.9-.7v-.7A23,23,0,0,1,296.2,250.3Zm-7.5,26.9c-2.7.3-2.6-3.8-.6-6,.9-1,2.1-2.9,3.3-4.3a7.21,7.21,0,0,0,5,1.1C295.9,271.7,290.8,277,288.7,277.2Z" transform="translate(-26.19 -41.88)"/><path d="M309.1,222.4a12.09,12.09,0,0,0,.5-2.3v-.4c-.4.9-.8,1.7-1.2,2.5A1.45,1.45,0,0,0,309.1,222.4Z" transform="translate(-26.19 -41.88)"/><path d="M317.6,218.7l-6.7-1.5a6,6,0,0,1,.7,3,19.68,19.68,0,0,1-1.2,4.9,7.87,7.87,0,0,0-3.7-1,3.4,3.4,0,0,0-1,.1,32.74,32.74,0,0,1,2.3-5.3,7.41,7.41,0,0,1,1.4-2l-7.5-1.6a5.36,5.36,0,0,0-.5,1.1,25.91,25.91,0,0,0-1.7,11.8c-.2.2-.3.5-.5.7l1.7,6.4c.1-.1.2-.3.3-.4a5.15,5.15,0,0,0,2.3,2.5,5.08,5.08,0,0,0,1.7.3,2,2,0,0,0,.8-.1,2.19,2.19,0,0,1-.3.5,26.27,26.27,0,0,0-1.8,3.4,4.23,4.23,0,0,0-.7-.5c-.3-.1-.5-.2-.8-.3l1.5,5.7-10.5-1.6a10.26,10.26,0,0,0,.4,1.4c-.8,1.2-1.6,2.5-2.5,4.1-3.4,6.2-5.9,9.1-3.8,12.6a64.07,64.07,0,0,0-4.8,6.9l-2,4.2,12.1,7.9a24.93,24.93,0,0,0,3.6-4.8c3.3-5.8,5.8-7.3,5-11.9a16.39,16.39,0,0,0,2-2.9,28.26,28.26,0,0,0,2.8-13.2c2.9-4.4,8.3-15.2,7.5-20.2.3-.6.5-1.1.8-1.7C315.7,223.4,317.1,220.9,317.6,218.7Zm-28.9,58.5h-.3c-2.4,0-2.3-3.9-.3-6,.9-1,2.1-2.9,3.3-4.3a7.72,7.72,0,0,0,4,1.2,3.4,3.4,0,0,0,1-.1C295.9,271.7,290.8,277,288.7,277.2Zm8.3-18.5a6,6,0,0,0-2.9-.8,3.4,3.4,0,0,0-1,.1v-.7a24.19,24.19,0,0,1,3-7.1,6.78,6.78,0,0,0,4,1.9A25.51,25.51,0,0,1,297,258.7Z" transform="translate(-26.19 -41.88)"/><path d="M291.3,270.4c-.6.8-1.2,1.6-1.7,2.2a3.53,3.53,0,0,0-.9,2.6c1.1-.5,3.6-3,4.9-5.3a9.83,9.83,0,0,1-1.6-.5A6.07,6.07,0,0,1,291.3,270.4Z" transform="translate(-26.19 -41.88)"/><path d="M296.1,256.2c.6-1,1-1.9,1.4-2.7a2.51,2.51,0,0,1-.7-.4c-.5,1-1,2.1-1.3,2.9A1.42,1.42,0,0,0,296.1,256.2Z" transform="translate(-26.19 -41.88)"/><path d="M287.9,252.1q.75-1.2,1.5-2.7c.7-1.2,1.4-2.4,2-3.4-.1-.5-.2-1-.3-1.4l-2.4-.4-1.9,9.8A11.78,11.78,0,0,1,287.9,252.1Z" transform="translate(-26.19 -41.88)"/><path d="M299.3,215.6a3,3,0,0,1,.4-.8l-4.7-1,2.6,9.6A23,23,0,0,1,299.3,215.6Z" transform="translate(-26.19 -41.88)"/><path d="M295.5,288.9c-12.7-15.1-31.9-24.1-58.5-17.5-11.8,3-18.1,8.4-25.3,16.9s-17.5,36.2-3,60.9,37.8,27.2,52.3,26.1c19.6-1.5,35.6-11,42.1-29.4C309.7,327.2,308.2,303.9,295.5,288.9Zm3,44.2c-3.3,24.3-26.5,37-50.4,35.2s-40.4-20.5-39.4-51,29.8-42.9,46.3-41.2C288.9,279.6,301.8,308.8,298.5,333.1Z" transform="translate(-26.19 -41.88)"/><path d="M294.8,59.7c-5.7-7.3-15.5-14.2-23.4-15.9s-18.1-2.6-24.6-1.3-15.8,8.4-16.5,17c-.3,3.4.4,8.6.3,12-.2,5.1-.8,12.3,18.6,11.2,3.8-.2,12.5-4.6,16.2-5.4,7.3-1.5,8.1,6.8,14.2,7.7s6.9,8.6,9.2,13.7,1.2,4,4.2,6.2-.4,37.2,5,17.6c.4-1.3,2,4.5,3.8-.8,2.4-6.9,5.6-25.2,6.3-30.3C309.2,82.5,300.5,67,294.8,59.7ZM261.4,62c4.4-.9,10.1-1.6,12.4.3,1,.8,2.4,2.3,3.7,3.6a36.29,36.29,0,0,0,4.5,4.2.57.57,0,0,1,.2.7.54.54,0,0,1-.4.3c-.1,0-.2,0-.2-.1a28,28,0,0,1-4.8-4.4,28.35,28.35,0,0,0-3.7-3.5c-1.6-1.3-5.7-1.3-11.6-.1-.3.1-.5-.1-.6-.4A.5.5,0,0,1,261.4,62Zm21,13.6a.66.66,0,0,1-.5.4h-.1c-.4-.1-1.7-.4-7.6-6.9-2.8-3.1-11-2-13.2-1.1-.3.1-.5,0-.7-.3s0-.5.3-.7c2.4-1,11.1-2.2,14.3,1.3,5.1,5.6,6.6,6.5,7.1,6.6C282.3,75.1,282.5,75.4,282.4,75.6Zm.7-9.7a.52.52,0,0,1-.4.2.37.37,0,0,1-.3-.1c-.6-.5-1.5-1.5-2.6-2.6-2.1-2.3-5-5.4-7.1-6.3-3.1-1.3-10.1.4-10.2.4-.3.1-.5-.1-.6-.4s.1-.5.4-.6,7.4-1.8,10.8-.3c2.3,1,5.2,4,7.5,6.5a19.15,19.15,0,0,0,2.5,2.5C283.3,65.3,283.3,65.7,283.1,65.9Zm1.5-4.7a.52.52,0,0,1-.4.2.37.37,0,0,1-.3-.1c-.6-.5-1.9-1.7-3.3-3-2.6-2.4-5.8-5.4-7.4-6.5-2.2-1.5-6.5-.9-8.9-.5l-.6.1a.51.51,0,1,1-.2-1l.5-.1c2.5-.3,7.1-1,9.6.7a71.93,71.93,0,0,1,7.5,6.6c1.4,1.3,2.6,2.5,3.2,3C284.8,60.7,284.8,61,284.6,61.2Z" transform="translate(-26.19 -41.88)"/><path d="M228.8,59.8c-1.3-3.6-6.6-2.7-13.2-2.3s-13,4.2-18.4,10-6.5,11.1-8,18.8c-1.1,5.3-.1,27.5,2.3,37.5,1.1,4.6,4.4,1.8,4.6,2.3.8,1.5,2.3,10.3,3.1,8.4s2-26.7,3.6-34.1c1.3-5.9,3.9-10.9,9.4-12.8C222.9,84,223.4,83,226,79.3c2.3-3.3,2.2-5.5,2.6-8.6S229.6,61.9,228.8,59.8ZM195.6,81.2a.47.47,0,0,1-.5.5h0a.54.54,0,0,1-.5-.5c.2-3.5,4.6-6.4,4.8-6.5s.5-.1.7.2a.53.53,0,0,1-.2.7C199.9,75.5,195.8,78.2,195.6,81.2Zm3,1.9a.66.66,0,0,1-.5.4H198a.42.42,0,0,1-.3-.6,7.84,7.84,0,0,1,5.1-5.2c.3-.1.5.1.6.4s-.1.5-.4.6A6.48,6.48,0,0,0,198.6,83.1Zm7.9-1.6s-4.5,1.5-5.7,5.2a.66.66,0,0,1-.5.4h-.1a.45.45,0,0,1-.3-.6c1.3-4.2,6.1-5.8,6.3-5.8a.49.49,0,0,1,.6.3C207,81.1,206.8,81.4,206.5,81.5Z" transform="translate(-26.19 -41.88)"/><path d="M256.7,250h-4l-1.4,2.3v5.1a.5.5,0,0,1-1,0V254l-2,3.2v.1c0,.2-.1.4-.3.4l-1.6,2.5h.3c1.4,0,2.8.1,4.3.1l3.2-5.2-.1-2.4a.5.5,0,0,1,1,0v1l2.2-3.5h-.5C256.8,250,256.7,250,256.7,250Z" transform="translate(-26.19 -41.88)"/><path d="M263.1,254.6V254c0-.1,0-.2-.1-.2v-.2c0-.1,0-.2-.1-.2s0-.1-.1-.2-.1-.1-.1-.2,0-.1-.1-.2-.1-.1-.1-.2-.1-.1-.1-.2-.1-.1-.1-.2-.1-.1-.1-.2-.1-.1-.2-.2-.1-.1-.1-.2l-.2-.2c-.1,0-.1-.1-.2-.1l-.2-.2c-.1,0-.1-.1-.2-.1a.35.35,0,0,1-.2-.1c-.1,0-.1-.1-.2-.1s-.2-.1-.3-.1a.35.35,0,0,1-.2-.1c-.1,0-.2-.1-.3-.1s-.2-.1-.3-.1-.2-.1-.3-.1-.2-.1-.3-.1a.37.37,0,0,1-.3-.1.37.37,0,0,1-.3-.1H246.5c-.3,0-.6.1-.9.1h-.1c-.2,0-.5.1-.7.1h-.2a1.45,1.45,0,0,0-.7.2h-.1c-.2.1-.4.1-.6.2s-.1,0-.2.1a1.42,1.42,0,0,1-.6.2h0a1.38,1.38,0,0,0-.4.3l-.1.1-.3.3h0a8.79,8.79,0,0,0-.6,1,1.42,1.42,0,0,0-.2.6,8.47,8.47,0,0,0-.4,1.7V256c.2,2.1,1.7,4.1,6.5,4.2h11.8a.9.9,0,0,0,.5-.1h.3a.6.6,0,0,0,.4-.1.37.37,0,0,0,.3-.1c.1,0,.3-.1.4-.1s.1,0,.2-.1.3-.1.4-.2h0c.1,0,.1-.1.2-.1h0l.1-.1a.1.1,0,0,1,.1-.1l.1-.1a.1.1,0,0,1,.1-.1l.1-.1.1-.1a.35.35,0,0,0,.1-.2l.1-.1c0-.1.1-.1.1-.2a.1.1,0,0,1,.1-.1c0-.1.1-.1.1-.2s0-.1.1-.2.1-.1.1-.2,0-.1.1-.2,0-.1.1-.2,0-.1.1-.2,0-.1.1-.2,0-.1.1-.2v-1.8C263.1,254.8,263.1,254.7,263.1,254.6Zm-18.5,2.8a.5.5,0,0,1-1,0V252a.5.5,0,0,1,1,0Zm3.7-.2a.47.47,0,0,1-.5.5h0a.47.47,0,0,1-.5-.5l.2-4.8a.54.54,0,0,1,.5-.5.47.47,0,0,1,.5.5Zm3,.2a.5.5,0,0,1-1,0v-5a.5.5,0,0,1,1,0Zm3.6.5h0a.47.47,0,0,1-.5-.5l-.2-4.8a.5.5,0,1,1,1,0l.2,4.8A.47.47,0,0,1,254.9,257.9Zm3.9-.5a.5.5,0,0,1-1,0v-4.3a.5.5,0,1,1,1,0Z" transform="translate(-26.19 -41.88)"/><path d="M239.8,250.6a1.21,1.21,0,0,1,.5-.5l-5.5-9.3a2,2,0,1,0-3.4,2l7,11.6A9.43,9.43,0,0,1,239.8,250.6Z" transform="translate(-26.19 -41.88)"/><path d="M244.6,257.2v.2a.5.5,0,0,1-1,0v-1.9l-2.2-3.7c-1.5,2.3-2.9,8.1,5,8.4Z" transform="translate(-26.19 -41.88)"/><path d="M363.6,414.7c-2.7.9-10.8,4.1-10.8,4.1l4.6,12.1,11.6-4.1C369.1,426.9,368.8,417.2,363.6,414.7Zm-1.5,12-1.2-3.2-3.2,1.2-.7-1.8,3.2-1.2-1.2-3.2,1.8-.7L362,421l3.2-1.2.7,1.8-3.2,1.2,1.2,3.2Z" transform="translate(-26.19 -41.88)"/><path d="M379.3,408.7c-3.7,1.4-11.3,4.6-11.3,4.6l4.7,11.5,11.5-4.8C384.2,419.9,384.3,411.6,379.3,408.7Zm-2.4,8.7-1.5,3.3-1.9-.8,1.5-3.3-3.3-1.5.8-1.9,3.3,1.5,1.5-3.3,1.9.8-1.5,3.3L381,417l-.8,1.9Z" transform="translate(-26.19 -41.88)"/><path d="M370,429.7c-1.4.6-11.1,4.1-11.1,4.1l5,13.8,11.4-4.4S373.5,432.8,370,429.7Zm-6.3,11-.7-1.9,8.4-3.3.7,1.9Z" transform="translate(-26.19 -41.88)"/><path d="M385.1,423.8c-2.7.9-11,4.5-11,4.5l5.3,13.3,10.8-4.1C390.2,437.6,389.1,428.9,385.1,423.8Zm-4.6,4a1.55,1.55,0,1,1-.9,2A1.55,1.55,0,0,1,380.5,427.8Zm-1.7,7.2-.6-1.7,7.5-2.7.6,1.7Zm5.2,2.8a1.55,1.55,0,1,1,.9-2A1.41,1.41,0,0,1,384,437.8Z" transform="translate(-26.19 -41.88)"/><path d="M359,403.3c-.3.1-.5.4,0,1.6s.8,1.3,1.1,1.2.4-.4,0-1.6S359.3,403.2,359,403.3Z" transform="translate(-26.19 -41.88)"/><path d="M366.7,400.3c-.3.1-.5.4,0,1.6s.8,1.3,1.1,1.2.4-.4,0-1.6S367,400.2,366.7,400.3Z" transform="translate(-26.19 -41.88)"/><path d="M351.4,406.4c-.3.1-.5.4,0,1.6s.8,1.3,1.1,1.2.4-.4,0-1.6S351.7,406.3,351.4,406.4Z" transform="translate(-26.19 -41.88)"/><path d="M371.1,391.5S350,397.6,346,402.8l5.1,13.2,27.2-9.8C378.4,406.2,371.9,391.5,371.1,391.5Zm-18.2,18.6c-1,.4-2-.1-2.6-1.7s-.2-2.6.8-3,2,.1,2.6,1.6S353.9,409.7,352.9,410.1Zm2.3-1-.4-1,1-.4-.9-2.3-.9.3-.3-.8a4.5,4.5,0,0,0,1-.9l.9-.4,1.4,3.5.8-.3.4,1Zm5.3-2c-1,.4-2-.1-2.6-1.7s-.2-2.6.8-3,2,.1,2.6,1.6S361.5,406.7,360.5,407.1Zm2.4-1.1-.4-1,1-.4-.9-2.3-.9.3-.3-.8a4.5,4.5,0,0,0,1-.9l.9-.4,1.4,3.5.8-.3.4,1Zm5.3-2c-1,.4-2-.1-2.6-1.7s-.2-2.6.8-3,2,.1,2.6,1.6S369.2,403.6,368.2,404Zm1.9-2,1-.4-.9-2.3-.9.3-.3-.8a4.5,4.5,0,0,0,1-.9l.9-.4,1.4,3.5.8-.3.4,1-3,1.2Z" transform="translate(-26.19 -41.88)"/><path d="M252.3,292.1a2,2,0,0,1-2-2v-9.4a2,2,0,0,1,4,0v9.4A2,2,0,0,1,252.3,292.1Z" transform="translate(-26.19 -41.88)"/><path d="M243.9,265.2c.4-1.2-.1-4.1,2.6-4s11.9-.8,12.5.5a18.23,18.23,0,0,1,1,3.3Z" transform="translate(-26.19 -41.88)"/><path d="M303.4,248.5a1.93,1.93,0,0,0,1.8-.6,1.87,1.87,0,0,0,.4-1.9l-1.5-5.3c-.2.3-.3.6-.5.9a4.23,4.23,0,0,0-.7-.5,5.37,5.37,0,0,0-2.1-.5,2.77,2.77,0,0,0-.9.1l.9,3.3-7.8-1.4a8,8,0,0,0,.5,3.6c-.1.1-.2.3-.3.4Z" transform="translate(-26.19 -41.88)"/><path d="M299.2,237.8a21.65,21.65,0,0,1,1.8-3,4.37,4.37,0,0,0,2.2,2.4l-3.7-13.1a26.69,26.69,0,0,0,0,4,19,19,0,0,0-2,3.5Z" transform="translate(-26.19 -41.88)"/><path d="M291.4,245.9a9.73,9.73,0,0,1-.3-3.7l-25.3-4.4,26-25.6,4.7,16.6c.3-.4.5-.9.8-1.3a31.35,31.35,0,0,1,.7-8.2l-3.3-11.5a2,2,0,0,0-1.4-1.4,1.9,1.9,0,0,0-1.9.5l-31.2,30.7c-.1.1-.2.3-.3.4l-6.1,9.9h2.9a9.15,9.15,0,0,1,1.7.1l4.2-6.8,28.5,5A.27.27,0,0,0,291.4,245.9Z" transform="translate(-26.19 -41.88)"/><path d="M301.4,238.6c-.1-.1-.2-.2-.3-.2s-.1.1-.1.2Z" transform="translate(-26.19 -41.88)"/><path d="M346.4,457s5.1-2.6,12.8-6.6l-15.9-41.8-9.9,5.8Z" transform="translate(-26.19 -41.88)"/><path d="M358.2,447.7c-14.5,7-26.9,12.8-31.9,15.2l-7.1-41.3c3.4-1.6,12.6-6.2,24.3-12.2l-1.4-3.8c-1.3.7-2.6,1.4-3.9,2-3.9-95.9-2.8-117.5-2-122.2,4.8,1.3,22,9.7,41.3,22.3,24.8,16.2,40.7,31.2,44.9,42.3.8,2-.5,10.7-48.3,38.1a36.61,36.61,0,0,1,2.3,3.3c48.5-27.9,51.7-37.8,49.8-42.8-10.8-28.6-83-67.1-90.8-67.4a2.29,2.29,0,0,0-2.5,1.4c-2.3,5-1.9,47.8,1.4,127-10.7,5.5-18,9-18.1,9l-1.4.7,8.4,49.4,2.4-1.1c.3-.1,15.3-7.2,34-16.2Z" transform="translate(-26.19 -41.88)"/><path d="M477,353.9c-1.7-28.9-27.6-58.3-49-77.9-23.4-21.3-50.2-38.9-60.9-44.1-9.7-4.6-25.5-9.5-33.3-11.6-3.9-1.1-10.5-2.4-17.6-3.8-8.3-1.7-17-3.4-20.6-4.6-5.1-1.7-8.4-5.5-10.2-11.7-1.1-4,.6-15.8,1.4-19.9a2,2,0,1,0-3.9-.7c-.3,1.6-2.9,16.1-1.3,21.8,2.1,7.4,6.4,12.3,12.8,14.4,3.9,1.3,12.7,3.1,21.1,4.7,7,1.4,13.6,2.7,17.3,3.7,7.7,2.1,23.2,6.8,32.6,11.4,21,10,104.6,67.6,107.6,118.5,1.8,31.6-22.7,47.1-54.9,64-6.3,3.3-14.8,7.6-24,12.1q.6,2.1,1.2,3.9c9.5-4.7,18.2-9.1,24.7-12.5C452.3,404.7,478.9,387.8,477,353.9Z" transform="translate(-26.19 -41.88)"/><path d="M303.1,345.9c6.6-18.7,5.1-41.9-7.6-57-1-1.2-2.1-2.4-3.2-3.5l-2,.6,12,32-4.5,27.5-6.7,5.5a36.57,36.57,0,0,1-7.3,7.4l.1,10.3A41.16,41.16,0,0,0,303.1,345.9Z" transform="translate(-26.19 -41.88)"/><path d="M145,453.5c14.5,7,26.9,12.8,31.9,15.2l7.1-41.3c-3.4-1.6-12.6-6.2-24.3-12.2l1.4-3.8c1.3.7,2.6,1.4,3.9,2,3.9-95.9,2.8-117.5,2-122.2-4.8,1.3-22,9.7-41.3,22.3-24.8,16.2-40.7,31.2-44.9,42.3-.8,2,.5,10.7,48.3,38.1a36.61,36.61,0,0,0-2.3,3.3C78.3,369.3,75.1,359.4,77,354.4c10.8-28.6,83-67.1,90.8-67.4a2.29,2.29,0,0,1,2.5,1.4c2.3,5,1.9,47.8-1.4,127,10.7,5.5,18,9,18.1,9l1.4.7L180,474.5l-2.4-1.1c-.3-.1-15.3-7.2-34-16.2Z" transform="translate(-26.19 -41.88)"/><path d="M182,223.3c-5.1,1-9.6,2-12.5,2.8-7.8,2.1-23.6,7-33.3,11.6-10.8,5.2-37.6,22.7-60.9,44.1-21.4,19.6-47.3,49-49,77.9-2,34,24.6,50.8,57,67.8,6.5,3.4,15.2,7.8,24.7,12.5q.45-1.8,1.2-3.9c-9.2-4.6-17.7-8.8-24-12.1C53,407.1,28.5,391.6,30.3,360c2.9-50.9,86.6-108.5,107.7-118.6,9.4-4.5,24.9-9.3,32.6-11.4,3-.8,7.7-1.8,13.1-2.9Z" transform="translate(-26.19 -41.88)"/><path class="cls-2" d="M214.5,511.8s61,1.4,76.3-1.9" transform="translate(-26.19 -41.88)"/><path class="cls-2" d="M215,527.2s47.8,1.9,79.8-.8" transform="translate(-26.19 -41.88)"/><path d="M212.3,181.3a2,2,0,1,0-3.9.9c1.1,4.9,3.7,18.7,2.2,23.5-1.8,5.3-15.6,13.5-21.9,15.6-1.5.5-4.3,1.3-8,2.3-4,1.1-8.6,2.4-13.3,3.8l.1,4.2c5.1-1.6,10.2-3,14.3-4.1,3.7-1,6.6-1.9,8.2-2.4,6.2-2.1,21.9-10.7,24.4-18.1C216.6,200.2,212.8,183.2,212.3,181.3Z" transform="translate(-26.19 -41.88)"/><path d="M167.7,287.1a553.73,553.73,0,0,0-6.4,59.3c-2,34.7-1.7,68.8-1.7,68.8l21.7,4.5-5.3-134Z" transform="translate(-26.19 -41.88)"/><path d="M348,285.7s3.5,62.9,4,80.4a256.51,256.51,0,0,1-.6,28.9l-10,4.7-.7,9.3-10.1,2.8-8.7-134.3Z" transform="translate(-26.19 -41.88)"/><path d="M474.9,348c-.5-9-20-41-23.5-46s-43-40-43-40l-42.2-28.3-32.9-11.5-13.7-3a35.48,35.48,0,0,1-2.2,5.8c-.4.9-.8,1.9-1.3,2.9-.2.4-.4.9-.6,1.3.5,5.8-4.7,16-7.5,20.4a29.6,29.6,0,0,1-3,13.6,15.32,15.32,0,0,1-1.6,2.5c.4,3.6-1.1,5.7-2.9,8.5a39.31,39.31,0,0,0-2.4,3.9,26.49,26.49,0,0,1-2.4,3.5c1.3,1.3,2.6,2.7,3.8,4.1,6.6,7.9,10.8,18.2,12.2,29.8a73,73,0,0,1-3.7,32.1,46.18,46.18,0,0,1-18.1,23.5,62.15,62.15,0,0,1-5.6,3.2l1.1,166.4s7.5.7,23.2-1.6,33.6-9.5,33.6-9.5l-1.2-71-15.9,7.3-7.7-45.3,19.3-9.7s-2.7-111.5-2.5-117.8c.5-13,4-8.5,11-6.5s40,23.5,52,32.5,26.5,26,27.5,30.4-4,8.1-7.5,13.1-26,18-26,18l-15.6,9.2c5.3,7.8,14.2,27.2,16.6,34.3,1,2.9,2,5.6,2.7,8.1,20.4-10.6,40.7-21.2,45.7-24.1,11-6.5,24-19.5,29.5-29.5S475.4,357,474.9,348Z" transform="translate(-26.19 -41.88)"/><path d="M111.3,429.8c2.5-7.2,11.3-26.5,16.6-34.3l-15.6-9.2s-22.5-13-26-18-8.5-8.7-7.5-13.1,15.5-21.4,27.5-30.4,45-30.5,52-32.5,10.5-6.5,11,6.5c.2,6.3-2.5,117.8-2.5,117.8l19.3,9.7-7.7,45.3-15.9-7.3-.9,54.5S173,530.4,188.7,535s29.4,7,29.4,7L221,370.2c-2-1-6.7-6.5-8.2-8-14-14.2-15-32.5-14.8-43.9.3-11.7,2.5-21.6,9.7-31a26.49,26.49,0,0,1-2.4-3.5c-.9-1.6-1.7-2.8-2.4-3.9-1.8-2.7-3.3-4.9-2.9-8.5a21.28,21.28,0,0,1-1.6-2.5,29.31,29.31,0,0,1-3-13.6c-2.9-4.5-8-14.6-7.5-20.4-.2-.4-.4-.8-.6-1.3-.5-1.1-.9-2-1.3-2.9a28.2,28.2,0,0,1-2.2-5.8l-13.7,3L137,239.5,94.8,267.8s-39.5,35-43,40-23,37-23.5,46-.5,20.5,5,30.5,18.5,23,29.5,29.5c5.1,3,25.3,13.6,45.7,24.1C109.3,435.4,110.3,432.7,111.3,429.8Z" transform="translate(-26.19 -41.88)"/><path d="M150.7,285.7s-8,120.5,1.3,126.3,30-4.5,30.5-8,0-129,0-129Z" transform="translate(-26.19 -41.88)"/><polygon points="133.41 373.32 119.81 419.12 74.11 394.12 97.81 351.12 102.81 352.12 134.91 369.52 133.41 373.32"/><line class="cls-3" x1="140.61" y1="374.72" x2="129.81" y2="418.62"/><polygon points="155.11 377.82 142.31 440.12 162.31 446.12 174.31 380.62 155.11 377.82"/><path d="M151.5,459.5s-2.9,49.1,10.1,59.3,27.9-5.8,27.9-5.8V482Z" transform="translate(-26.19 -41.88)"/><path d="M357,451s-3.5,38.2-6,52.7-4.6,24.8-9.1,25.8-17.4,3-16.9-1-1-36.5-1-36.5l5.5-29,12.2-4.5Z" transform="translate(-26.19 -41.88)"/><path class="cls-3" d="M166.8,522.8l-.8,10s11,8,22.8,12,27.8,5,27.8,5l-.5-9.4a141.4,141.4,0,0,1-27.3-5.3A61.51,61.51,0,0,1,166.8,522.8Z" transform="translate(-26.19 -41.88)"/><path class="cls-3" d="M287.5,536.8l-.5,9.8s17.9,1.5,33.2-1.5,22-6.8,22-6.8l1.1-11.9" transform="translate(-26.19 -41.88)"/><path d="M172.2,595.7l.3-58.2a2,2,0,0,0-2-2h0a2,2,0,0,0-2,2l-.3,58.2Z" transform="translate(-26.19 -41.88)"/><path d="M257.7,595.7l-.3-12.1a2,2,0,0,0-2.1-1.9,1.89,1.89,0,0,0-1.9,2.1l.3,11.9Z" transform="translate(-26.19 -41.88)"/><path d="M343.1,595.7,341,539.5a2,2,0,1,0-4,.2l2.1,56.1,4-.1Z" transform="translate(-26.19 -41.88)"/></svg>