<?xml version="1.0" encoding="utf-8"?>
<!-- Generator: Adobe Illustrator 20.1.0, SVG Export Plug-In . SVG Version: 6.00 Build 0)  -->
<svg version="1.1" id="Calque_1" xmlns="http://www.w3.org/2000/svg" xmlns:xlink="http://www.w3.org/1999/xlink" x="0px" y="0px"
	 viewBox="0 0 841.9 595.3" enable-background="new 0 0 841.9 595.3" xml:space="preserve">
<circle cx="223.8" cy="124.6" r="2.9"/>
<circle cx="269.5" cy="124.6" r="2.9"/>
<path d="M226.5,133.2c-0.8,0-1.6,0-2.4-0.1c-11.2-1-18-6.6-18.3-6.9l-1.4-1.2l1.1-1.5c0.2-0.3,6-7.8,18.6-7.6
	c12.9,0.2,16.5,8.7,16.6,9.1l0.4,0.9l-0.5,0.9C240.5,127.1,236.6,133.2,226.5,133.2z M210.2,124.5c2.5,1.5,7.5,4.1,14.2,4.7
	c7,0.7,10.7-2.1,12.1-3.6c-1.2-1.8-4.6-5.5-12.4-5.6C216.9,119.8,212.4,122.6,210.2,124.5z"/>
<path d="M267.3,133.2c-10,0-13.9-6.1-14.1-6.4l-0.5-0.9l0.4-0.9c0.1-0.4,3.8-8.9,16.6-9.1c12.5-0.2,18.4,7.3,18.6,7.6l1.1,1.5
	l-1.4,1.2c-0.3,0.2-7,5.8-18.3,6.9C268.9,133.2,268.1,133.2,267.3,133.2z M257.3,125.6c1.4,1.5,5.1,4.2,12.1,3.6
	c6.8-0.6,11.8-3.1,14.3-4.7c-2.1-1.8-6.6-4.6-13.9-4.5C261.9,120,258.5,123.7,257.3,125.6z M254.9,125.8L254.9,125.8L254.9,125.8z"
	/>
<path d="M246.1,157.8c-1.2,0-2.7-0.5-4.4-2.2c-2.2-2.2-1.6-5.4-0.7-9.7c0.7-3.5,1.8-8.3,1.9-14.9c0-1.1,0.9-2,2-2c0,0,0,0,0,0
	c1.1,0,2,0.9,2,2c-0.1,7-1.2,12-2,15.7c-0.7,3.1-1.1,5.3-0.4,6c0.9,0.9,1.5,1.1,1.6,1c0.1,0,0.4-0.3,0.7-1.1c0.3-1,1.5-1.6,2.5-1.3
	c1,0.3,1.6,1.5,1.3,2.5c-0.7,2-1.9,3.3-3.6,3.7C246.8,157.7,246.5,157.8,246.1,157.8z"/>
<path d="M247.5,200.1c-23.2,0-42.2-20-47.5-27.7c-3.7-5.3-4-16.6-4.3-24.8l-0.1-1.8c-0.3-7.7-1.6-35.6-1.6-35.9
	c-0.1-1.1,0.8-2,1.9-2.1c1.1-0.1,2,0.8,2.1,1.9c0,0.3,1.3,28.2,1.6,36l0.1,1.8c0.2,6.8,0.6,18.3,3.6,22.6c0.2,0.3,18.7,26,44.2,26
	c22.8,0,32.1-12.7,35.7-17.4c5.4-7.3,9.9-18.3,10.9-26.9c1.1-9.5,1-29.9,0.9-39.7c0-1.7,0-3.2,0-4.2c0-1.1,0.9-2,2-2s2,0.9,2,2
	c0,1,0,2.4,0,4.1c0.1,9.9,0.2,30.5-1,40.2c-1.1,9.4-5.8,20.9-11.6,28.8C282.5,186.3,272.3,200.1,247.5,200.1z"/>
<path d="M234.1,112.5c3.2,2,4.8,1.2,4.8-1.2c0-2.5-5.7-6.7-12.9-7s-16.8,2.2-20.7,7.6c-3.5,4.8-1.4,3.9,1,2.5
	c2.5-1.4,11.4-4,15.9-4.3C226.9,109.6,231.9,111,234.1,112.5z"/>
<path d="M259.4,111.8c-3.2,2.1-5.4,1-5.4-1.6c0-2.6,5.8-6.5,13.1-6.8c7.3-0.2,16.8,2.4,20.8,7.4c3.8,4.8,1.6,3.7-1,2.6
	c-4-1.7-10.8-4.2-16-4.6C266.3,108.5,261.7,110.2,259.4,111.8z"/>
<path d="M245.6,175.7c-12.7,0-19.5-10.2-19.8-10.6c-0.6-0.9-0.4-2.2,0.6-2.8c0.9-0.6,2.2-0.4,2.8,0.6l0,0c0.1,0.1,6,8.8,16.5,8.8
	c8.4,0,14.2-5.9,15.2-8.9c0.4-1,1.5-1.6,2.6-1.2c1,0.4,1.6,1.5,1.2,2.6C263,168.8,255.8,175.7,245.6,175.7z"/>
<path d="M245.7,181.7c-2.1,0-4.2-0.2-5.9-0.8c-1-0.3-1.6-1.5-1.3-2.5c0.3-1,1.5-1.6,2.5-1.3c2.8,0.9,7.4,0.7,9.1,0
	c1-0.4,2.2,0.1,2.6,1.2c0.4,1-0.1,2.2-1.2,2.6C250.2,181.4,248,181.7,245.7,181.7z"/>
<path d="M195.3,153.7c-0.5,0-1-0.2-1.4-0.6l-2.3-2.3c-3.5-3.5-3.7-19.9-3.7-21.7c0-3,1.3-4.5,2.3-5.1c2.7-1.7,6.3,0.1,6.7,0.3
	c1,0.5,1.4,1.7,0.9,2.7c-0.5,1-1.7,1.4-2.7,0.9c-0.8-0.4-2.3-0.8-2.8-0.4c-0.2,0.1-0.4,0.7-0.4,1.7c0,8.6,1.2,17.6,2.5,18.9l2.3,2.3
	c0.8,0.8,0.8,2,0,2.8C196.3,153.5,195.8,153.7,195.3,153.7z"/>
<path d="M296.1,155.5l-0.1-4.7c0,0,2.3-4.1,3.9-6.8c0.4-0.7,1.1-4,0.9-17.4c0-0.3,0-0.6,0-0.9c-0.4,0.1-1,0.3-1.4,0.4
	c-1,0.5-2.2,0-2.6-1c-0.5-1,0-2.2,1-2.6c0.8-0.4,3.7-1.5,5.6-0.3c0.5,0.4,1.5,1.2,1.5,2.9c0,0.3,0,0.8,0,1.5
	c0.1,12-0.3,17.4-1.4,19.5C301.9,148.6,296.1,155.5,296.1,155.5z"/>
<path d="M339.4,477c-1.1,0-1.9-0.8-2-1.9c0,0-0.3-5.1-0.7-13.6c-0.1-1.1,0.8-2,1.9-2.1c1.1,0,2,0.8,2.1,1.9
	c0.4,8.5,0.7,13.6,0.7,13.6c0.1,1.1-0.8,2-1.9,2.1C339.4,477,339.4,477,339.4,477z"/>
<g>
	<line fill="#FFFFFF" x1="225.5" y1="300.6" x2="230.6" y2="302.9"/>
	<path d="M230.6,304.9c-0.3,0-0.6-0.1-0.8-0.2l-5.1-2.3c-1-0.5-1.5-1.6-1-2.6s1.6-1.5,2.6-1l5.1,2.3c1,0.5,1.5,1.6,1,2.6
		C232.1,304.4,231.4,304.9,230.6,304.9z"/>
</g>
<g>
	<line fill="#FFFFFF" x1="236.7" y1="287.1" x2="238.8" y2="292.3"/>
	<path d="M238.8,294.3c-0.8,0-1.5-0.5-1.9-1.3l-2.1-5.2c-0.4-1,0.1-2.2,1.1-2.6c1-0.4,2.2,0.1,2.6,1.1l2.1,5.2
		c0.4,1-0.1,2.2-1.1,2.6C239.3,294.3,239,294.3,238.8,294.3z"/>
</g>
<g>
	<line fill="#FFFFFF" x1="283.8" y1="299.9" x2="278.7" y2="302.2"/>
	<path d="M278.7,304.2c-0.8,0-1.5-0.4-1.8-1.2c-0.5-1,0-2.2,1-2.6l5.1-2.3c1-0.5,2.2,0,2.6,1c0.5,1,0,2.2-1,2.6l-5.1,2.3
		C279.3,304.2,279,304.2,278.7,304.2z"/>
</g>
<g>
	<line fill="#FFFFFF" x1="272.6" y1="286.5" x2="270.5" y2="291.6"/>
	<path d="M270.5,293.6c-0.2,0-0.5,0-0.7-0.1c-1-0.4-1.5-1.6-1.1-2.6l2.1-5.2c0.4-1,1.6-1.5,2.6-1.1c1,0.4,1.5,1.6,1.1,2.6l-2.1,5.2
		C272,293.2,271.3,293.6,270.5,293.6z"/>
</g>
<g>
	<line fill="#FFFFFF" x1="226.2" y1="336.1" x2="231.3" y2="333.8"/>
	<path d="M226.2,338.1c-0.8,0-1.5-0.4-1.8-1.2c-0.5-1,0-2.2,1-2.6l5.1-2.3c1-0.5,2.2,0,2.6,1c0.5,1,0,2.2-1,2.6l-5.1,2.3
		C226.7,338,226.4,338.1,226.2,338.1z"/>
</g>
<g>
	<line fill="#FFFFFF" x1="237.4" y1="349.5" x2="239.5" y2="344.4"/>
	<path d="M237.4,351.5c-0.2,0-0.5,0-0.7-0.1c-1-0.4-1.5-1.6-1.1-2.6l2.1-5.2c0.4-1,1.6-1.5,2.6-1.1c1,0.4,1.5,1.6,1.1,2.6l-2.1,5.2
		C238.9,351.1,238.2,351.5,237.4,351.5z"/>
</g>
<g>
	<line fill="#FFFFFF" x1="284.5" y1="336.8" x2="279.4" y2="334.5"/>
	<path d="M284.5,338.8c-0.3,0-0.6-0.1-0.8-0.2l-5.1-2.3c-1-0.5-1.5-1.6-1-2.6c0.5-1,1.6-1.5,2.6-1l5.1,2.3c1,0.5,1.5,1.6,1,2.6
		C285.9,338.3,285.2,338.8,284.5,338.8z"/>
</g>
<g>
	<line fill="#FFFFFF" x1="273.2" y1="350.2" x2="271.2" y2="345"/>
	<path d="M273.2,352.2c-0.8,0-1.5-0.5-1.9-1.3l-2.1-5.2c-0.4-1,0.1-2.2,1.1-2.6c1-0.4,2.2,0.1,2.6,1.1l2.1,5.2
		c0.4,1-0.1,2.2-1.1,2.6C273.7,352.2,273.5,352.2,273.2,352.2z"/>
</g>
<g>
	<line fill="#FFFFFF" x1="255.3" y1="344.8" x2="255.3" y2="354.2"/>
	<path d="M255.3,356.2c-1.1,0-2-0.9-2-2v-9.4c0-1.1,0.9-2,2-2s2,0.9,2,2v9.4C257.3,355.3,256.4,356.2,255.3,356.2z"/>
</g>
<path d="M283.2,320.7c-1.1,0-1.9-0.8-2-1.9c-0.1-1.1,0.8-2,1.9-2.1l8.9-0.5c1.1,0,2,0.8,2.1,1.9s-0.8,2-1.9,2.1l-8.9,0.5
	C283.3,320.7,283.2,320.7,283.2,320.7z"/>
<path d="M220.1,319.7c-1.1,0-1.9-0.8-2-1.9c-0.1-1.1,0.8-2,1.9-2.1l8.9-0.5c1.1,0,2,0.8,2.1,1.9c0.1,1.1-0.8,2-1.9,2.1l-8.9,0.5
	C220.2,319.7,220.1,319.7,220.1,319.7z"/>
<path d="M255.7,317.1c-1.8-4.7-0.3-34.4-3.1-34.5c-2.7-0.2-0.5,28.7-2.9,37.4c-0.6,4.5,1.5,8.2,3.6,8.1
	C257.2,327.7,257.5,321.7,255.7,317.1z M253.1,324.5c0,0-1.8-3.1-0.5-4.2C253.9,319.2,254.4,322.5,253.1,324.5z"/>
<path d="M257.3,323.5c2.6-2.5,22.1-5.9,21.5-8.6c-0.6-2.7-18.7,4.2-24.9,3.3c-3.1,0.1-5,2.8-4.3,4.8
	C250.8,326.6,254.7,326,257.3,323.5z M251.9,322.2c0,0,1.5-2.2,2.6-1.2C255.5,322.1,253.5,323.1,251.9,322.2z"/>
<path fill="none" stroke="#000000" stroke-width="4" stroke-linecap="round" stroke-miterlimit="10" d="M346.4,457"/>
<path fill="none" stroke="#000000" stroke-width="4" stroke-linecap="round" stroke-miterlimit="10" d="M331.9,413"/>
<path d="M338.7,463.5c-0.9,0-1.7-0.6-1.9-1.4L324,417.5c-0.3-1.1,0.3-2.2,1.4-2.5c1.1-0.3,2.2,0.3,2.5,1.4l12.8,44.5
	c0.3,1.1-0.3,2.2-1.4,2.5C339.1,463.4,338.9,463.5,338.7,463.5z"/>
<path d="M327.1,488.5c-1,0-1.8-0.7-2-1.7l-12.7-78.7c-0.2-1.1,0.6-2.1,1.7-2.3c1.1-0.2,2.1,0.6,2.3,1.7l12.7,78.7
	c0.2,1.1-0.6,2.1-1.7,2.3C327.3,488.5,327.2,488.5,327.1,488.5z"/>
<path d="M251.9,513.5c-1.1,0-2-0.9-2-2l-2.8-140.7c0-1.1,0.8-2,1.9-2c1.1-0.1,2,0.8,2,1.9l2.8,140.7
	C253.9,512.5,253.1,513.5,251.9,513.5C251.9,513.5,251.9,513.5,251.9,513.5z"/>
<g>
	<path d="M205.4,263.5c0.2-0.1,0.5-0.2,0.8-0.2c0-0.6-0.1-1.1-0.2-1.6c-0.2,0.1-0.5,0.2-0.8,0.3c0,0.3,0,0.5,0.1,0.8
		C205.4,263,205.4,263.3,205.4,263.5z"/>
	<path d="M187.7,236.4c2,5.3,1.7,7.8,5.2,9.7c0.2,1.2,0.4,2.5,0.7,4c1.3,5.8,1.4,9.1,4.6,10.1c0.3,5.9,1.7,15,5,16.1
		c0.7,0.2,1.4,0.3,2.2,0.3c0.1,0,0.3,0,0.4,0c0.2,0.5,0.5,1,0.8,1.6c2.8,5.6,3.6,8.7,7.4,8.7c0.5,0,1-0.1,1.6-0.2l1.2-3.3l-0.3-13.4
		c-1.4-1.3-2.9-2.4-4.3-3.3c-0.1-0.8-0.2-1.6-0.4-2.6c-1.2-5.6-0.4-7.9-3.5-10.4c0-0.9-0.1-1.9-0.4-3c-0.1-0.3-0.2-0.6-0.2-0.9
		l-5.8,1.3c0.1,0.3,0.1,0.6,0.2,0.9c-1.2,0.3-2.2,0.9-2.9,1.8c-0.1-0.2-0.3-0.3-0.4-0.5c-0.2-0.3-0.4-0.8-0.7-1.4l-1.8,0.4l0.8-3.5
		c-0.2-0.6-0.3-1.2-0.4-1.8c0,0,0.1,0,0.1,0c0.2,0,0.4,0,0.6,0l3.1-13.5c-1.2-4.1-2.9-8.2-5-9.9c-0.1-0.5-0.3-1-0.5-1.5
		c-0.2-0.6-0.4-1.1-0.5-1.7l-3.5,1.5c0.2,0.3,0.3,0.7,0.4,1.1c-1.3,0.3-2.6,1-3.6,2.1c-0.2-0.5-0.4-1-0.6-1.5l-4.4,2l-0.7,0.2
		c1.1,1.9,2.6,3.8,4.1,5.3C186.6,232.8,187,234.5,187.7,236.4z M211.8,272.1c1.2,1.3,2.5,3.6,3.8,6.4c1,2.2,0.5,2.9-0.4,2.9
		c-0.8,0-1.9-0.6-2.6-1.2c-0.7-0.7-2.2-2.8-3.2-4.8C210.4,274.7,211.3,273.6,211.8,272.1z M207,258.4c1,1.6,1.3,4.5,1.2,6.8
		c-0.3,0-0.6-0.1-0.8-0.1c-0.6,0-1,0.1-1.4,0.3c-0.9,0.5-1.5,1.2-1.8,2.1c-0.4-0.7-0.7-1.6-0.6-2.5c0-1.2-0.3-3-0.3-4.6
		C204.8,260.2,206.1,259.5,207,258.4z M193.2,235.2c0.3,0,0.6,0,0.9-0.2c0.7-0.3,1.3-0.7,1.7-1.3c0,0.2,0.1,0.3,0.1,0.5
		c0.1,0.9,0.5,2,0.8,3.2c0,0,0,0,0,0c-0.2,0-0.4,0-0.6,0.1c-1.6,0.4-2.5,1.5-3,3.2c-1-1.6-1.6-4-1.8-6.1
		C191.9,235,192.6,235.2,193.2,235.2z"/>
	<path d="M212,275.8C211.9,275.8,211.9,275.8,212,275.8c0.2,0.5,0.5,0.9,0.7,1.3C212.4,276.6,212.2,276.2,212,275.8z"/>
	<path d="M209.7,249.6c0.1,0.3,0.2,0.6,0.2,0.9c0.2,0.8,0.3,1.7,0.4,2.5c2.2,2.1,2.5,4.3,2.9,7.1c0.1,1.1,0.3,2.4,0.6,3.8
		c0.1,0.6,0.2,1.2,0.3,1.8c0.8,0.5,1.6,1.1,2.4,1.7l-0.1-4.3v-15L209.7,249.6z"/>
	<path d="M197.1,221.7c0.1,0.4,0.2,0.7,0.3,1c1.5,1.4,2.8,3.8,4.1,7.2l3.1-13.7l-8.1,3.6C196.7,220.4,196.9,221,197.1,221.7z"/>
</g>
<g>
	<path d="M199.7,250.5c-0.1-0.3-0.2-0.7-0.2-1l-0.1,0C199.5,249.9,199.6,250.2,199.7,250.5z"/>
	<path d="M202.1,252.2c-1,0.2-1.9,0.8-2.6,1.5l8.5-2.5c0-0.1,0-0.2-0.1-0.3c-0.3-1.2-0.7-2.3-1.3-3.5l-5.3,1.5
		C201.7,249.9,201.9,251,202.1,252.2z"/>
	<path d="M234.6,240.6L210,209.3c-0.5-0.6-1.2-0.9-2-0.7c-0.7,0.1-1.3,0.7-1.5,1.4l-5.4,18.9c0.3,0.7,0.6,1.5,0.8,2.3
		c0.5,1.6,1,3.2,1.4,4.6l6-20.9l20.4,25.9l-21,6.1c0.6,1.2,1,2.5,1.3,3.6c0,0.1,0,0.1,0,0.2l23.7-6.9c0.6-0.2,1.1-0.7,1.3-1.3
		C235.2,241.8,235,241.1,234.6,240.6z"/>
	<path d="M199.2,248.9c0,0.2,0.1,0.3,0.1,0.5l0-0.2C199.4,249.1,199.3,249,199.2,248.9C199.3,248.9,199.3,248.9,199.2,248.9z"/>
	<path d="M194.5,251.9c-0.2,0.7,0,1.5,0.5,2c0.4,0.4,0.9,0.6,1.4,0.6c0.2,0,0.4,0,0.6-0.1l2.2-0.6c-0.1-0.1-0.2-0.2-0.2-0.3
		c-0.6-0.9-1.7-3.9-2-6.2c0,0,0.1,0,0.1,0c1.2,0,2.4-0.3,3.3-0.9l1.9-6.5c-0.4-2.1-1.1-5-2-7.7L194.5,251.9z"/>
</g>
<path d="M360,458l-20.6-54c-0.6-3.3,1.8-6.7,7.2-10.2c6.8-4.4,23.7-11.3,27.3-8.8c5.1,3.5,17.4,30.8,20,38.4l0.4,1.1
	c3.3,9.5,5.7,16.4,1.9,19.3c-2.9,2.1-29,11.7-34.2,13.6L360,458z M343.3,403.1l19,49.8c14.3-5.2,29.7-11.2,31.4-12.4
	c1.5-1.1-1.5-9.7-3.2-14.8l-0.4-1.1c-3.4-9.8-14.7-33.2-18.3-36.2c-2.9-0.3-20.2,5.3-26.6,11.5C343.9,401.2,343.3,402.3,343.3,403.1
	z"/>
<path d="M220.8,275.5c-1.7-3.4-5.2-6.7-8.5-8.6c-0.1-0.8-0.2-1.6-0.4-2.6c-1.2-5.6-0.4-7.9-3.5-10.4c0-0.9-0.1-1.9-0.4-3
	c-0.8-3.5-3.1-7.3-5.7-10c-0.6-4.5-3.2-14.4-6.6-17.1c-0.1-0.5-0.3-1-0.5-1.5c-2.2-6.8-2.3-10.1-8-9.8c-5.7,0.3-8.4,3.9-6.3,10.4
	c1,3,3.2,6.1,5.6,8.5c0.1,1.5,0.5,3.1,1.2,5.1c2,5.3,1.7,7.8,5.2,9.7c0.2,1.2,0.4,2.5,0.7,4c1.3,5.8,1.4,9.1,4.6,10.1
	c0.3,5.9,1.7,15,5,16.1c0.8,0.3,1.7,0.4,2.6,0.3c0.2,0.5,0.5,1,0.8,1.6c3.2,6.4,3.8,9.6,9.4,8.5
	C221.7,285.5,223.9,281.5,220.8,275.5z M198.9,253.5c-0.6-0.9-1.7-3.9-2-6.2c1.4,0,2.7-0.4,3.7-1.1c0.6,1.5,1.2,3.6,1.6,6
	c-1.2,0.3-2.2,0.9-2.9,1.8C199.1,253.8,199,253.6,198.9,253.5z M189.7,219.5c0.5,0.6,1.3,2.1,1.9,3.8c-1.3,0.3-2.6,1-3.6,2.1
	c-0.6-1.3-1.1-2.9-1.5-4.6C185.3,216.3,188.5,217.9,189.7,219.5z M191.2,234.7c1.1,0.5,2.1,0.6,2.8,0.3c0.7-0.3,1.3-0.7,1.7-1.3
	c0,0.2,0.1,0.3,0.1,0.5c0.1,0.9,0.5,2,0.8,3.2c-0.2,0-0.5,0-0.7,0.1c-1.6,0.4-2.5,1.5-3,3.2C192,239.3,191.4,236.8,191.2,234.7z
	 M203.2,260.5c1.6-0.3,2.9-1,3.8-2.1c1,1.6,1.3,4.5,1.2,6.8c-0.9-0.1-1.7-0.1-2.3,0.3c-0.9,0.5-1.5,1.2-1.8,2.1
	c-0.4-0.7-0.7-1.6-0.6-2.5C203.5,263.9,203.2,262.1,203.2,260.5z M212.6,280.2c-0.7-0.7-2.2-2.8-3.2-4.8c1-0.7,1.9-1.8,2.4-3.4
	c1.2,1.3,2.5,3.6,3.8,6.4C217.4,282.6,214.1,281.5,212.6,280.2z"/>
<path d="M314.8,212.1c-5.3-4.2-10.5-3.1-13.6,4.2c-1.5,3.4-2,7.9-1.7,11.8c-1,1.4-2,3.2-2.8,5.4c-2.4,6.3-4.6,8.2-3,12.6
	c-0.8,1.2-1.6,2.5-2.5,4.1c-3.4,6.2-5.9,9.1-3.8,12.6c-4.3,5.4-10.1,14.6-8.1,18.1c2.6,4.5,10.4,7.6,16.9-3.9
	c3.3-5.8,5.8-7.3,5-11.9c0.7-0.8,1.4-1.8,2-2.9c2-3.7,2.9-8.9,2.8-13.2c2.9-4.4,8.3-15.2,7.5-20.2c0.3-0.6,0.5-1.1,0.8-1.7
	C317.5,219.3,320,216.3,314.8,212.1z M311.5,220.2c0,0.9-0.5,2.9-1.2,4.9c-1.4-0.8-3.1-1.2-4.8-0.9c0.5-1.6,1.3-3.4,2.3-5.3
	C310.2,214,311.6,217.9,311.5,220.2z M303.3,237.4c0.9,0.3,1.7,0.4,2.5,0.2c-0.1,0.2-0.2,0.4-0.3,0.5c-0.6,0.8-1.2,2.2-1.8,3.4
	c-0.2-0.2-0.4-0.3-0.7-0.5c-1.7-0.8-3.4-0.6-5.1,0.6c0.3-2.2,1.7-4.8,3.2-6.8C301.6,236.1,302.4,237,303.3,237.4z M296.2,250.3
	c1.2,1.1,2.6,1.8,4,1.9c-0.6,1.8-1.7,4.1-3.2,6.5c-1.2-0.7-2.6-0.9-3.9-0.7c0-0.2,0-0.5,0-0.7C293.3,256.1,294.6,252.6,296.2,250.3z
	 M288.7,277.2c-2.7,0.3-2.6-3.8-0.6-6c0.9-1,2.1-2.9,3.3-4.3c1.7,1,3.4,1.4,5,1.1C295.9,271.7,290.8,277,288.7,277.2z"/>
<g>
	<path d="M309.1,222.4c0.3-1.1,0.5-1.9,0.5-2.3c0-0.1,0-0.2,0-0.4c-0.4,0.9-0.8,1.7-1.2,2.5C308.6,222.3,308.8,222.4,309.1,222.4z"
		/>
	<path d="M317.6,218.7l-6.7-1.5c0.5,0.8,0.7,2,0.7,3c0,0.9-0.5,2.9-1.2,4.9c-1.1-0.6-2.4-1-3.7-1c-0.3,0-0.7,0-1,0.1
		c0.5-1.6,1.3-3.4,2.3-5.3c0.5-1,1-1.6,1.4-2l-7.5-1.6c-0.2,0.4-0.4,0.7-0.5,1.1c-1.5,3.4-2,7.9-1.7,11.8c-0.2,0.2-0.3,0.5-0.5,0.7
		l1.7,6.4c0.1-0.1,0.2-0.3,0.3-0.4c0.6,1.2,1.4,2.1,2.3,2.5c0.6,0.2,1.1,0.3,1.7,0.3c0.3,0,0.6,0,0.8-0.1c-0.1,0.2-0.2,0.4-0.3,0.5
		c-0.6,0.8-1.2,2.2-1.8,3.4c-0.2-0.2-0.4-0.3-0.7-0.5c-0.3-0.1-0.5-0.2-0.8-0.3l1.5,5.7l-10.5-1.6c0.1,0.4,0.2,0.9,0.4,1.4
		c-0.8,1.2-1.6,2.5-2.5,4.1c-3.4,6.2-5.9,9.1-3.8,12.6c-1.6,2-3.3,4.4-4.8,6.9l-2,4.2l12.1,7.9c1.2-1.2,2.4-2.8,3.6-4.8
		c3.3-5.8,5.8-7.3,5-11.9c0.7-0.8,1.4-1.8,2-2.9c2-3.7,2.9-8.9,2.8-13.2c2.9-4.4,8.3-15.2,7.5-20.2c0.3-0.6,0.5-1.1,0.8-1.7
		C315.7,223.4,317.1,220.9,317.6,218.7z M288.7,277.2c-0.1,0-0.2,0-0.3,0c-2.4,0-2.3-3.9-0.3-6c0.9-1,2.1-2.9,3.3-4.3
		c1.3,0.8,2.7,1.2,4,1.2c0.3,0,0.7,0,1-0.1C295.9,271.7,290.8,277,288.7,277.2z M297,258.7c-0.9-0.5-1.9-0.8-2.9-0.8
		c-0.3,0-0.7,0-1,0.1c0-0.2,0-0.5,0-0.7c0.2-1.3,1.5-4.8,3-7.1c1.2,1.1,2.6,1.8,4,1.9C299.6,254,298.5,256.3,297,258.7z"/>
	<path d="M291.3,270.4c-0.6,0.8-1.2,1.6-1.7,2.2c-0.8,0.9-1,2.1-0.9,2.6c1.1-0.5,3.6-3,4.9-5.3c-0.5-0.1-1.1-0.3-1.6-0.5
		C291.8,269.7,291.6,270.1,291.3,270.4z"/>
	<path d="M296.1,256.2c0.6-1,1-1.9,1.4-2.7c-0.2-0.1-0.5-0.2-0.7-0.4c-0.5,1-1,2.1-1.3,2.9C295.7,256.1,295.9,256.2,296.1,256.2z"/>
	<path d="M287.9,252.1c0.5-0.8,1-1.7,1.5-2.7c0.7-1.2,1.4-2.4,2-3.4c-0.1-0.5-0.2-1-0.3-1.4l-2.4-0.4l-1.9,9.8
		C287.1,253.3,287.5,252.7,287.9,252.1z"/>
	<path d="M299.3,215.6c0.1-0.3,0.2-0.5,0.4-0.8l-4.7-1l2.6,9.6C297.7,220.5,298.4,217.8,299.3,215.6z"/>
</g>
<path d="M295.5,288.9c-12.7-15.1-31.9-24.1-58.5-17.5c-11.8,3-18.1,8.4-25.3,16.9c-7.2,8.4-17.5,36.2-3,60.9
	c14.5,24.7,37.8,27.2,52.3,26.1c19.6-1.5,35.6-11,42.1-29.4C309.7,327.2,308.2,303.9,295.5,288.9z M298.5,333.1
	c-3.3,24.3-26.5,37-50.4,35.2c-23.8-1.8-40.4-20.5-39.4-51s29.8-42.9,46.3-41.2C288.9,279.6,301.8,308.8,298.5,333.1z"/>
<path d="M294.8,59.7c-5.7-7.3-15.5-14.2-23.4-15.9c-7.9-1.7-18.1-2.6-24.6-1.3c-6.4,1.3-15.8,8.4-16.5,17c-0.3,3.4,0.4,8.6,0.3,12
	c-0.2,5.1-0.8,12.3,18.6,11.2c3.8-0.2,12.5-4.6,16.2-5.4c7.3-1.5,8.1,6.8,14.2,7.7s6.9,8.6,9.2,13.7c2.3,5.2,1.2,4,4.2,6.2
	c3,2.2-0.4,37.2,5,17.6c0.4-1.3,2,4.5,3.8-0.8c2.4-6.9,5.6-25.2,6.3-30.3C309.2,82.5,300.5,67,294.8,59.7z M261.4,62
	c4.4-0.9,10.1-1.6,12.4,0.3c1,0.8,2.4,2.3,3.7,3.6c1.8,1.8,3.6,3.7,4.5,4.2c0.2,0.1,0.3,0.4,0.2,0.7c-0.1,0.2-0.3,0.3-0.4,0.3
	c-0.1,0-0.2,0-0.2-0.1c-1.1-0.6-2.9-2.4-4.8-4.4c-1.3-1.4-2.7-2.8-3.7-3.5c-1.6-1.3-5.7-1.3-11.6-0.1c-0.3,0.1-0.5-0.1-0.6-0.4
	S261.1,62,261.4,62z M282.4,75.6c-0.1,0.2-0.3,0.4-0.5,0.4c0,0-0.1,0-0.1,0c-0.4-0.1-1.7-0.4-7.6-6.9c-2.8-3.1-11-2-13.2-1.1
	c-0.3,0.1-0.5,0-0.7-0.3c-0.1-0.3,0-0.5,0.3-0.7c2.4-1,11.1-2.2,14.3,1.3c5.1,5.6,6.6,6.5,7.1,6.6C282.3,75.1,282.5,75.4,282.4,75.6
	z M283.1,65.9c-0.1,0.1-0.2,0.2-0.4,0.2c-0.1,0-0.2,0-0.3-0.1c-0.6-0.5-1.5-1.5-2.6-2.6c-2.1-2.3-5-5.4-7.1-6.3
	c-3.1-1.3-10.1,0.4-10.2,0.4c-0.3,0.1-0.5-0.1-0.6-0.4c-0.1-0.3,0.1-0.5,0.4-0.6c0.3-0.1,7.4-1.8,10.8-0.3c2.3,1,5.2,4,7.5,6.5
	c1,1.1,1.9,2.1,2.5,2.5C283.3,65.3,283.3,65.7,283.1,65.9z M284.6,61.2c-0.1,0.1-0.2,0.2-0.4,0.2c-0.1,0-0.2,0-0.3-0.1
	c-0.6-0.5-1.9-1.7-3.3-3c-2.6-2.4-5.8-5.4-7.4-6.5c-2.2-1.5-6.5-0.9-8.9-0.5l-0.6,0.1c-0.3,0-0.5-0.2-0.6-0.4c0-0.3,0.2-0.5,0.4-0.6
	l0.5-0.1c2.5-0.3,7.1-1,9.6,0.7c1.7,1.1,4.9,4.1,7.5,6.6c1.4,1.3,2.6,2.5,3.2,3C284.8,60.7,284.8,61,284.6,61.2z"/>
<path d="M228.8,59.8c-1.3-3.6-6.6-2.7-13.2-2.3c-6.5,0.4-13,4.2-18.4,10c-5.4,5.7-6.5,11.1-8,18.8c-1.1,5.3-0.1,27.5,2.3,37.5
	c1.1,4.6,4.4,1.8,4.6,2.3c0.8,1.5,2.3,10.3,3.1,8.4s2-26.7,3.6-34.1c1.3-5.9,3.9-10.9,9.4-12.8c10.7-3.6,11.2-4.6,13.8-8.3
	c2.3-3.3,2.2-5.5,2.6-8.6C228.9,67.7,229.6,61.9,228.8,59.8z M195.6,81.2c0,0.3-0.2,0.5-0.5,0.5c0,0,0,0,0,0c-0.3,0-0.5-0.3-0.5-0.5
	c0.2-3.5,4.6-6.4,4.8-6.5c0.2-0.2,0.5-0.1,0.7,0.2c0.1,0.2,0.1,0.5-0.2,0.7C199.9,75.5,195.8,78.2,195.6,81.2z M198.6,83.1
	c-0.1,0.2-0.3,0.4-0.5,0.4c0,0-0.1,0-0.1,0c-0.3-0.1-0.4-0.3-0.3-0.6c1.1-4.1,5-5.1,5.1-5.2c0.3-0.1,0.5,0.1,0.6,0.4
	c0.1,0.3-0.1,0.5-0.4,0.6C202.9,78.7,199.6,79.6,198.6,83.1z M206.5,81.5c0,0-4.5,1.5-5.7,5.2c-0.1,0.2-0.3,0.4-0.5,0.4
	c0,0-0.1,0-0.1,0c-0.3-0.1-0.4-0.4-0.3-0.6c1.3-4.2,6.1-5.8,6.3-5.8c0.3-0.1,0.5,0.1,0.6,0.3C207,81.1,206.8,81.4,206.5,81.5z"/>
<path d="M256.7,250c-0.4,0-0.7,0-1.1,0c-0.9,0-1.9,0-2.9,0l-1.4,2.3c0,0,0,0,0,0.1v5c0,0.3-0.2,0.5-0.5,0.5s-0.5-0.2-0.5-0.5V254
	l-2,3.2l0,0.1c0,0.2-0.1,0.4-0.3,0.4l-1.6,2.5c0.1,0,0.2,0,0.3,0c1.4,0,2.8,0.1,4.3,0.1l3.2-5.2l-0.1-2.4c0-0.3,0.2-0.5,0.5-0.5
	c0.3,0,0.5,0.2,0.5,0.5l0,1l2.2-3.5c-0.2,0-0.3,0-0.5,0C256.8,250,256.7,250,256.7,250z"/>
<path d="M263.1,254.6c0-0.1,0-0.1,0-0.2c0-0.1,0-0.2,0-0.2c0-0.1,0-0.1,0-0.2c0-0.1,0-0.2-0.1-0.2c0-0.1,0-0.1,0-0.2
	c0-0.1,0-0.2-0.1-0.2c0-0.1,0-0.1-0.1-0.2c0-0.1-0.1-0.1-0.1-0.2c0-0.1,0-0.1-0.1-0.2c0-0.1-0.1-0.1-0.1-0.2c0-0.1-0.1-0.1-0.1-0.2
	c0-0.1-0.1-0.1-0.1-0.2c0-0.1-0.1-0.1-0.1-0.2c0-0.1-0.1-0.1-0.2-0.2c0-0.1-0.1-0.1-0.1-0.2c-0.1-0.1-0.1-0.1-0.2-0.2
	c-0.1,0-0.1-0.1-0.2-0.1c-0.1-0.1-0.1-0.1-0.2-0.2c-0.1,0-0.1-0.1-0.2-0.1c-0.1,0-0.2-0.1-0.2-0.1c-0.1,0-0.1-0.1-0.2-0.1
	c-0.1,0-0.2-0.1-0.3-0.1c-0.1,0-0.2-0.1-0.2-0.1c-0.1,0-0.2-0.1-0.3-0.1c-0.1,0-0.2-0.1-0.3-0.1c-0.1,0-0.2-0.1-0.3-0.1
	c-0.1,0-0.2-0.1-0.3-0.1c-0.1,0-0.2,0-0.3-0.1c-0.1,0-0.2,0-0.3-0.1c-0.1,0-0.2,0-0.4,0c-0.1,0-0.2,0-0.4,0c-0.1,0-0.3,0-0.4,0
	c-0.2,0-0.3,0-0.5,0c0,0,0,0,0,0c-0.4,0-0.7,0-1.1,0c0,0,0,0,0,0c0,0,0,0,0,0c-0.8,0-1.6,0-2.4,0c-0.8,0-1.6,0-2.3,0
	c-0.3,0-0.7,0-1,0c-0.1,0-0.1,0-0.2,0c-0.3,0-0.6,0-0.8,0c-0.1,0-0.2,0-0.2,0c-0.3,0-0.7,0-1,0c-0.1,0-0.1,0-0.2,0
	c-0.3,0-0.5,0-0.8,0c-0.1,0-0.1,0-0.2,0c-0.3,0-0.6,0.1-0.9,0.1c-0.1,0-0.1,0-0.1,0c-0.2,0-0.5,0.1-0.7,0.1c-0.1,0-0.1,0-0.2,0
	c-0.3,0-0.5,0.1-0.7,0.2c0,0-0.1,0-0.1,0c-0.2,0.1-0.4,0.1-0.6,0.2c-0.1,0-0.1,0-0.2,0.1c-0.2,0.1-0.4,0.2-0.6,0.2c0,0,0,0,0,0
	c-0.2,0.1-0.3,0.2-0.4,0.3c0,0-0.1,0.1-0.1,0.1c-0.1,0.1-0.2,0.2-0.3,0.3l0,0c-0.2,0.3-0.4,0.6-0.6,1c-0.1,0.2-0.2,0.4-0.2,0.6
	c-0.2,0.5-0.3,1.1-0.4,1.7c0,0.1,0,0.2,0,0.4c0,0.2,0,0.5,0,0.7c0.2,2.1,1.7,4.1,6.5,4.2c0.6,0,1.2,0,1.8,0c0.1,0,0.2,0,0.3,0
	c0,0,0,0,0,0c0.5,0,0.9,0,1.4,0c0.1,0,0.3,0,0.4,0c0.6,0,1.2,0,1.7,0c0.1,0,0.2,0,0.3,0c0.6,0,1.1,0,1.7,0c0.1,0,0.3,0,0.4,0
	c0.2,0,0.4,0,0.6,0c0.2,0,0.3,0,0.4,0c0.2,0,0.4,0,0.6,0c0.1,0,0.3,0,0.4,0c0.2,0,0.4,0,0.5,0c0.1,0,0.3,0,0.4,0c0.2,0,0.3,0,0.5,0
	c0.1,0,0.2,0,0.4,0c0.2,0,0.3,0,0.5-0.1c0.1,0,0.2,0,0.3,0c0.1,0,0.3,0,0.4-0.1c0.1,0,0.2,0,0.3-0.1c0.1,0,0.3-0.1,0.4-0.1
	c0.1,0,0.1,0,0.2-0.1c0.2-0.1,0.3-0.1,0.4-0.2c0,0,0,0,0,0c0.1,0,0.1-0.1,0.2-0.1c0,0,0,0,0,0c0,0,0.1-0.1,0.1-0.1
	c0,0,0-0.1,0.1-0.1c0,0,0.1-0.1,0.1-0.1c0,0,0-0.1,0.1-0.1c0,0,0.1-0.1,0.1-0.1c0,0,0.1-0.1,0.1-0.1c0,0,0.1-0.1,0.1-0.2
	c0,0,0.1-0.1,0.1-0.1c0-0.1,0.1-0.1,0.1-0.2c0,0,0-0.1,0.1-0.1c0-0.1,0.1-0.1,0.1-0.2c0-0.1,0-0.1,0.1-0.2c0-0.1,0.1-0.1,0.1-0.2
	c0-0.1,0-0.1,0.1-0.2c0-0.1,0-0.1,0.1-0.2c0-0.1,0-0.1,0.1-0.2c0-0.1,0-0.1,0.1-0.2c0-0.1,0-0.1,0.1-0.2c0-0.1,0-0.1,0-0.2
	c0-0.1,0-0.2,0-0.2c0-0.1,0-0.1,0-0.2c0-0.1,0-0.2,0-0.2c0-0.1,0-0.1,0-0.2c0-0.1,0-0.2,0-0.2c0-0.1,0-0.1,0-0.2c0-0.1,0-0.2,0-0.2
	c0-0.1,0-0.1,0-0.2C263.1,254.8,263.1,254.7,263.1,254.6z M244.6,257.4c0,0.3-0.2,0.5-0.5,0.5s-0.5-0.2-0.5-0.5V252
	c0-0.3,0.2-0.5,0.5-0.5s0.5,0.2,0.5,0.5V257.4z M248.3,257.2c0,0.3-0.2,0.5-0.5,0.5c0,0,0,0,0,0c-0.3,0-0.5-0.2-0.5-0.5l0.2-4.8
	c0-0.3,0.3-0.5,0.5-0.5c0.3,0,0.5,0.2,0.5,0.5L248.3,257.2z M251.3,257.4c0,0.3-0.2,0.5-0.5,0.5s-0.5-0.2-0.5-0.5v-5
	c0-0.3,0.2-0.5,0.5-0.5s0.5,0.2,0.5,0.5V257.4z M254.9,257.9C254.9,257.9,254.9,257.9,254.9,257.9c-0.3,0-0.5-0.2-0.5-0.5l-0.2-4.8
	c0-0.3,0.2-0.5,0.5-0.5c0.3,0,0.5,0.2,0.5,0.5l0.2,4.8C255.4,257.7,255.2,257.9,254.9,257.9z M258.8,257.4c0,0.3-0.2,0.5-0.5,0.5
	s-0.5-0.2-0.5-0.5v-4.3c0-0.3,0.2-0.5,0.5-0.5s0.5,0.2,0.5,0.5V257.4z"/>
<g>
	<path d="M239.8,250.6c0.1-0.2,0.3-0.4,0.5-0.5l-5.5-9.3c-0.6-0.9-1.8-1.3-2.7-0.7c-0.9,0.6-1.3,1.8-0.7,2.7l7,11.6
		C238.6,252.9,239.2,251.5,239.8,250.6z"/>
	<path d="M244.6,257.2v0.2c0,0.3-0.2,0.5-0.5,0.5s-0.5-0.2-0.5-0.5v-1.9l-2.2-3.7c-1.5,2.3-2.9,8.1,5,8.4L244.6,257.2z"/>
</g>
<path d="M363.6,414.7c-2.7,0.9-10.8,4.1-10.8,4.1l4.6,12.1l11.6-4.1C369.1,426.9,368.8,417.2,363.6,414.7z M362.1,426.7l-1.2-3.2
	l-3.2,1.2l-0.7-1.8l3.2-1.2l-1.2-3.2l1.8-0.7l1.2,3.2l3.2-1.2l0.7,1.8l-3.2,1.2l1.2,3.2L362.1,426.7z"/>
<path d="M379.3,408.7c-3.7,1.4-11.3,4.6-11.3,4.6l4.7,11.5l11.5-4.8C384.2,419.9,384.3,411.6,379.3,408.7z M376.9,417.4l-1.5,3.3
	l-1.9-0.8l1.5-3.3l-3.3-1.5l0.8-1.9l3.3,1.5l1.5-3.3l1.9,0.8l-1.5,3.3l3.3,1.5l-0.8,1.9L376.9,417.4z"/>
<path d="M370,429.7c-1.4,0.6-11.1,4.1-11.1,4.1l5,13.8l11.4-4.4C375.3,443.2,373.5,432.8,370,429.7z M363.7,440.7l-0.7-1.9l8.4-3.3
	l0.7,1.9L363.7,440.7z"/>
<path d="M385.1,423.8c-2.7,0.9-11,4.5-11,4.5l5.3,13.3l10.8-4.1C390.2,437.6,389.1,428.9,385.1,423.8z M380.5,427.8
	c0.8-0.3,1.7,0.1,2,0.9s-0.1,1.7-0.9,2c-0.8,0.3-1.7-0.1-2-0.9C379.3,429,379.7,428.1,380.5,427.8z M378.8,435l-0.6-1.7l7.5-2.7
	l0.6,1.7L378.8,435z M384,437.8c-0.8,0.3-1.7-0.1-2-0.9c-0.3-0.8,0.1-1.7,0.9-2s1.7,0.1,2,0.9C385.3,436.6,384.9,437.5,384,437.8z"
	/>
<g>
	<path d="M359,403.3c-0.3,0.1-0.5,0.4,0,1.6c0.5,1.2,0.8,1.3,1.1,1.2c0.3-0.1,0.4-0.4,0-1.6C359.6,403.3,359.3,403.2,359,403.3z"/>
	<path d="M366.7,400.3c-0.3,0.1-0.5,0.4,0,1.6c0.5,1.2,0.8,1.3,1.1,1.2c0.3-0.1,0.4-0.4,0-1.6C367.3,400.3,367,400.2,366.7,400.3z"
		/>
	<path d="M351.4,406.4c-0.3,0.1-0.5,0.4,0,1.6c0.5,1.2,0.8,1.3,1.1,1.2c0.3-0.1,0.4-0.4,0-1.6C352,406.4,351.7,406.3,351.4,406.4z"
		/>
	<path d="M371.1,391.5c0,0-21.1,6.1-25.1,11.3l5.1,13.2l27.2-9.8C378.4,406.2,371.9,391.5,371.1,391.5z M352.9,410.1
		c-1,0.4-2-0.1-2.6-1.7c-0.6-1.5-0.2-2.6,0.8-3c1-0.4,2,0.1,2.6,1.6C354.2,408.6,353.9,409.7,352.9,410.1z M355.2,409.1l-0.4-1
		l1-0.4l-0.9-2.3l-0.9,0.3l-0.3-0.8c0.5-0.3,0.7-0.6,1-0.9l0.9-0.4l1.4,3.5l0.8-0.3l0.4,1L355.2,409.1z M360.5,407.1
		c-1,0.4-2-0.1-2.6-1.7c-0.6-1.5-0.2-2.6,0.8-3c1-0.4,2,0.1,2.6,1.6C361.9,405.6,361.5,406.7,360.5,407.1z M362.9,406l-0.4-1l1-0.4
		l-0.9-2.3l-0.9,0.3l-0.3-0.8c0.5-0.3,0.7-0.6,1-0.9l0.9-0.4l1.4,3.5l0.8-0.3l0.4,1L362.9,406z M368.2,404c-1,0.4-2-0.1-2.6-1.7
		c-0.6-1.5-0.2-2.6,0.8-3c1-0.4,2,0.1,2.6,1.6C369.5,402.5,369.2,403.6,368.2,404z M370.1,402l1-0.4l-0.9-2.3l-0.9,0.3l-0.3-0.8
		c0.5-0.3,0.7-0.6,1-0.9l0.9-0.4l1.4,3.5l0.8-0.3l0.4,1l-3,1.2L370.1,402z"/>
</g>
<g>
	<line fill="#FFFFFF" x1="252.3" y1="280.7" x2="252.3" y2="290.1"/>
	<path d="M252.3,292.1c-1.1,0-2-0.9-2-2v-9.4c0-1.1,0.9-2,2-2s2,0.9,2,2v9.4C254.3,291.2,253.4,292.1,252.3,292.1z"/>
</g>
<path d="M243.9,265.2c0.4-1.2-0.1-4.1,2.6-4c2.7,0.1,11.9-0.8,12.5,0.5s1,3.3,1,3.3L243.9,265.2z"/>
<g>
	<path d="M303.4,248.5c0.7,0.1,1.4-0.1,1.8-0.6c0.5-0.5,0.6-1.2,0.4-1.9l-1.5-5.3c-0.2,0.3-0.3,0.6-0.5,0.9
		c-0.2-0.2-0.4-0.3-0.7-0.5c-0.7-0.3-1.4-0.5-2.1-0.5c-0.3,0-0.6,0-0.9,0.1l0.9,3.3l-7.8-1.4c-0.1,1.1,0,2.2,0.5,3.6
		c-0.1,0.1-0.2,0.3-0.3,0.4L303.4,248.5z"/>
	<path d="M299.2,237.8c0.5-1.1,1.2-2.1,1.8-3c0.6,1.2,1.3,2.1,2.2,2.4l-3.7-13.1c-0.1,1.4-0.1,2.7,0,4c-0.7,1-1.4,2.1-2,3.5
		L299.2,237.8z"/>
	<path d="M291.4,245.9c-0.4-1.4-0.4-2.6-0.3-3.7l-25.3-4.4l26-25.6l4.7,16.6c0.3-0.4,0.5-0.9,0.8-1.3c-0.1-2.8,0.1-5.7,0.7-8.2
		l-3.3-11.5c-0.2-0.7-0.7-1.2-1.4-1.4c-0.7-0.2-1.4,0-1.9,0.5l-31.2,30.7c-0.1,0.1-0.2,0.3-0.3,0.4l-6.1,9.9c0.6,0,1.1,0,1.6,0
		c0.4,0,0.7,0,1.1,0l0.2,0c0.6,0,1.2,0,1.7,0.1l4.2-6.8l28.5,5C291.3,246.2,291.4,246.1,291.4,245.9z"/>
	<path d="M301.4,238.6c-0.1-0.1-0.2-0.2-0.3-0.2c0,0.1-0.1,0.1-0.1,0.2C301.2,238.6,301.3,238.6,301.4,238.6z"/>
</g>
<path d="M346.4,457c0,0,5.1-2.6,12.8-6.6l-15.9-41.8l-9.9,5.8L346.4,457z"/>
<g>
	<path d="M358.2,447.7c-14.5,7-26.9,12.8-31.9,15.2l-7.1-41.3c3.4-1.6,12.6-6.2,24.3-12.2l-1.4-3.8c-1.3,0.7-2.6,1.4-3.9,2
		c-3.9-95.9-2.8-117.5-2-122.2c4.8,1.3,22,9.7,41.3,22.3c24.8,16.2,40.7,31.2,44.9,42.3c0.8,2-0.5,10.7-48.3,38.1
		c0.7,0.9,1.5,2,2.3,3.3c48.5-27.9,51.7-37.8,49.8-42.8c-10.8-28.6-83-67.1-90.8-67.4c-1.7-0.1-2.3,0.9-2.5,1.4
		c-2.3,5-1.9,47.8,1.4,127c-10.7,5.5-18,9-18.1,9l-1.4,0.7l8.4,49.4l2.4-1.1c0.3-0.1,15.3-7.2,34-16.2L358.2,447.7z"/>
	<path d="M477,353.9c-1.7-28.9-27.6-58.3-49-77.9c-23.4-21.3-50.2-38.9-60.9-44.1c-9.7-4.6-25.5-9.5-33.3-11.6
		c-3.9-1.1-10.5-2.4-17.6-3.8c-8.3-1.7-17-3.4-20.6-4.6c-5.1-1.7-8.4-5.5-10.2-11.7c-1.1-4,0.6-15.8,1.4-19.9
		c0.2-1.1-0.5-2.1-1.6-2.3c-1.1-0.2-2.1,0.5-2.3,1.6c-0.3,1.6-2.9,16.1-1.3,21.8c2.1,7.4,6.4,12.3,12.8,14.4
		c3.9,1.3,12.7,3.1,21.1,4.7c7,1.4,13.6,2.7,17.3,3.7c7.7,2.1,23.2,6.8,32.6,11.4C386.4,245.6,470,303.2,473,354.1
		c1.8,31.6-22.7,47.1-54.9,64c-6.3,3.3-14.8,7.6-24,12.1c0.4,1.4,0.8,2.7,1.2,3.9c9.5-4.7,18.2-9.1,24.7-12.5
		C452.3,404.7,478.9,387.8,477,353.9z"/>
</g>
<path d="M303.1,345.9c6.6-18.7,5.1-41.9-7.6-57c-1-1.2-2.1-2.4-3.2-3.5l-2,0.6l12,32l-4.5,27.5l-6.7,5.5c-2.1,2.8-4.5,5.3-7.3,7.4
	l0.1,10.3C292.7,363.8,299.4,356.3,303.1,345.9z"/>
<g>
	<path d="M145,453.5c14.5,7,26.9,12.8,31.9,15.2l7.1-41.3c-3.4-1.6-12.6-6.2-24.3-12.2l1.4-3.8c1.3,0.7,2.6,1.4,3.9,2
		c3.9-95.9,2.8-117.5,2-122.2c-4.8,1.3-22,9.7-41.3,22.3c-24.8,16.2-40.7,31.2-44.9,42.3c-0.8,2,0.5,10.7,48.3,38.1
		c-0.7,0.9-1.5,2-2.3,3.3c-48.5-27.9-51.7-37.8-49.8-42.8c10.8-28.6,83-67.1,90.8-67.4c1.7-0.1,2.3,0.9,2.5,1.4
		c2.3,5,1.9,47.8-1.4,127c10.7,5.5,18,9,18.1,9l1.4,0.7l-8.4,49.4l-2.4-1.1c-0.3-0.1-15.3-7.2-34-16.2L145,453.5z"/>
	<path d="M182,223.3c-5.1,1-9.6,2-12.5,2.8c-7.8,2.1-23.6,7-33.3,11.6c-10.8,5.2-37.6,22.7-60.9,44.1c-21.4,19.6-47.3,49-49,77.9
		c-2,34,24.6,50.8,57,67.8c6.5,3.4,15.2,7.8,24.7,12.5c0.3-1.2,0.7-2.5,1.2-3.9c-9.2-4.6-17.7-8.8-24-12.1
		c-32.2-16.9-56.7-32.4-54.9-64c2.9-50.9,86.6-108.5,107.7-118.6c9.4-4.5,24.9-9.3,32.6-11.4c3-0.8,7.7-1.8,13.1-2.9L182,223.3z"/>
</g>
<path fill="none" stroke="#000000" stroke-width="4" stroke-linecap="round" stroke-miterlimit="10" d="M214.5,511.8
	c0,0,61,1.4,76.3-1.9"/>
<path fill="none" stroke="#000000" stroke-width="4" stroke-linecap="round" stroke-miterlimit="10" d="M215,527.2
	c0,0,47.8,1.9,79.8-0.8"/>
<g>
	<path d="M212.3,181.3c-0.2-1.1-1.3-1.7-2.4-1.5c-1.1,0.2-1.7,1.3-1.5,2.4c1.1,4.9,3.7,18.7,2.2,23.5c-1.8,5.3-15.6,13.5-21.9,15.6
		c-1.5,0.5-4.3,1.3-8,2.3c-4,1.1-8.6,2.4-13.3,3.8l0.1,4.2c5.1-1.6,10.2-3,14.3-4.1c3.7-1,6.6-1.9,8.2-2.4
		c6.2-2.1,21.9-10.7,24.4-18.1C216.6,200.2,212.8,183.2,212.3,181.3z"/>
</g>
<path d="M167.7,287.1c0,0-4.4,24.6-6.4,59.3s-1.7,68.8-1.7,68.8l21.7,4.5l-5.3-134L167.7,287.1z"/>
<path d="M348,285.7c0,0,3.5,62.9,4,80.4c0.5,17.5-0.6,28.9-0.6,28.9l-10,4.7l-0.7,9.3l-10.1,2.8l-8.7-134.3L348,285.7z"/>
<path d="M474.9,348c-0.5-9-20-41-23.5-46s-43-40-43-40l-42.2-28.3l-32.9-11.5l-13.7-3c-0.4,1.8-1.3,3.7-2.2,5.8
	c-0.4,0.9-0.8,1.9-1.3,2.9c-0.2,0.4-0.4,0.9-0.6,1.3c0.5,5.8-4.7,16-7.5,20.4c0.1,4.8-1.1,10-3,13.6c-0.5,0.9-1,1.8-1.6,2.5
	c0.4,3.6-1.1,5.7-2.9,8.5c-0.7,1.1-1.6,2.3-2.4,3.9c-0.8,1.4-1.6,2.5-2.4,3.5c1.3,1.3,2.6,2.7,3.8,4.1c6.6,7.9,10.8,18.2,12.2,29.8
	c1.2,10.6-0.1,22-3.7,32.1c-3.5,9.9-9.6,17.8-18.1,23.5c-1.8,1.2-3.7,2.2-5.6,3.2l1.1,166.4c0,0,7.5,0.7,23.2-1.6
	c15.7-2.3,33.6-9.5,33.6-9.5l-1.2-71l-15.9,7.3l-7.7-45.3l19.3-9.7c0,0-2.7-111.5-2.5-117.8c0.5-13,4-8.5,11-6.5s40,23.5,52,32.5
	s26.5,26,27.5,30.4c1,4.4-4,8.1-7.5,13.1s-26,18-26,18l-15.6,9.2c5.3,7.8,14.2,27.2,16.6,34.3c1,2.9,2,5.6,2.7,8.1
	c20.4-10.6,40.7-21.2,45.7-24.1c11-6.5,24-19.5,29.5-29.5S475.4,357,474.9,348z"/>
<path d="M111.3,429.8c2.5-7.2,11.3-26.5,16.6-34.3l-15.6-9.2c0,0-22.5-13-26-18s-8.5-8.7-7.5-13.1c1-4.4,15.5-21.4,27.5-30.4
	s45-30.5,52-32.5s10.5-6.5,11,6.5c0.2,6.3-2.5,117.8-2.5,117.8l19.3,9.7l-7.7,45.3l-15.9-7.3l-0.9,54.5c0,0,11.4,11.6,27.1,16.2
	s29.4,7,29.4,7l2.9-171.8c-2-1-6.7-6.5-8.2-8c-14-14.2-15-32.5-14.8-43.9c0.3-11.7,2.5-21.6,9.7-31c-0.8-1-1.6-2.1-2.4-3.5
	c-0.9-1.6-1.7-2.8-2.4-3.9c-1.8-2.7-3.3-4.9-2.9-8.5c-0.6-0.8-1.1-1.6-1.6-2.5c-1.9-3.6-3.1-8.7-3-13.6c-2.9-4.5-8-14.6-7.5-20.4
	c-0.2-0.4-0.4-0.8-0.6-1.3c-0.5-1.1-0.9-2-1.3-2.9c-1-2.1-1.8-4-2.2-5.8l-13.7,3L137,239.5l-42.2,28.3c0,0-39.5,35-43,40
	s-23,37-23.5,46s-0.5,20.5,5,30.5s18.5,23,29.5,29.5c5.1,3,25.3,13.6,45.7,24.1C109.3,435.4,110.3,432.7,111.3,429.8z"/>
<path d="M150.7,285.7c0,0-8,120.5,1.3,126.3s30-4.5,30.5-8s0-129,0-129L150.7,285.7z"/>
<polygon points="159.6,415.2 146,461 100.3,436 124,393 129,394 161.1,411.4 "/>
<line fill="none" stroke="#000000" stroke-width="4" stroke-linecap="round" stroke-linejoin="round" stroke-miterlimit="10" x1="166.8" y1="416.6" x2="156" y2="460.5"/>
<polygon points="181.3,419.7 168.5,482 188.5,488 200.5,422.5 "/>
<path d="M151.5,459.5c0,0-2.9,49.1,10.1,59.3s27.9-5.8,27.9-5.8v-31L151.5,459.5z"/>
<path d="M357,451c0,0-3.5,38.2-6,52.7c-2.5,14.5-4.6,24.8-9.1,25.8s-17.4,3-16.9-1s-1-36.5-1-36.5l5.5-29l12.2-4.5L357,451z"/>
<path fill="none" stroke="#000000" stroke-width="4" stroke-linecap="round" stroke-linejoin="round" stroke-miterlimit="10" d="
	M166.8,522.8l-0.8,10c0,0,11,8,22.8,12s27.8,5,27.8,5l-0.5-9.4c0,0-13.9-1.1-27.3-5.3C175.2,530.8,166.8,522.8,166.8,522.8z"/>
<path fill="none" stroke="#000000" stroke-width="4" stroke-linecap="round" stroke-linejoin="round" stroke-miterlimit="10" d="
	M287.5,536.8l-0.5,9.8c0,0,17.9,1.5,33.2-1.5s22-6.8,22-6.8l1.1-11.9"/>
<path d="M172.2,595.7l0.3-58.2c0-1.1-0.9-2-2-2c0,0,0,0,0,0c-1.1,0-2,0.9-2,2l-0.3,58.2H172.2z"/>
<path d="M257.7,595.7l-0.3-12.1c0-1.1-1-2-2.1-1.9c-1.1,0-2,0.9-1.9,2.1l0.3,11.9H257.7z"/>
<path d="M343.1,595.7l-2.1-56.2c0-1.1-1-2-2.1-1.9c-1.1,0-2,1-1.9,2.1l2.1,56.1H343.1z"/>
</svg>
