<?xml version="1.0" encoding="utf-8"?>
<!-- Generator: Adobe Illustrator 21.0.0, SVG Export Plug-In . SVG Version: 6.00 Build 0)  -->
<svg version="1.1" id="Calque_1" xmlns="http://www.w3.org/2000/svg" xmlns:xlink="http://www.w3.org/1999/xlink" x="0px" y="0px"
	 viewBox="0 0 331 380" style="enable-background:new 0 0 331 380;" xml:space="preserve">
<style type="text/css">
	.st0{fill:#1D1D1B;}
</style>
<polygon class="st0" points="214.7,196.2 206.8,204.2 206.8,348 214.7,356 270.7,356 278.7,348 278.7,204.2 270.7,196.2 "/>
<polygon class="st0" points="214.7,20.5 206.8,28.5 206.8,172.3 214.7,180.2 270.7,180.2 278.7,172.3 278.7,28.5 270.7,20.5 "/>
<polygon class="st0" points="39,196.2 31,204.2 31,260.1 39,268.1 182.8,268.1 190.8,260.1 190.8,204.2 182.8,196.2 "/>
<polygon class="st0" points="182.8,180.2 190.8,172.3 190.8,56.4 182.8,48.4 174.8,48.4 59,164.3 59,172.3 66.9,180.2 "/>
</svg>
