<?xml version="1.0" encoding="utf-8"?>
<!-- Generator: Adobe Illustrator 21.0.0, SVG Export Plug-In . SVG Version: 6.00 Build 0)  -->
<svg version="1.1" id="Calque_1" xmlns="http://www.w3.org/2000/svg" xmlns:xlink="http://www.w3.org/1999/xlink" x="0px" y="0px"
	 viewBox="0 0 841.9 595.3" style="enable-background:new 0 0 841.9 595.3;" xml:space="preserve">
<style type="text/css">
	.st0{fill:none;stroke:#000000;stroke-width:4;stroke-linecap:round;stroke-miterlimit:10;}
	.st1{fill:none;stroke:#000000;stroke-width:4;stroke-linecap:round;stroke-linejoin:round;stroke-miterlimit:10;}
	.st2{fill:#FFFFFF;stroke:#000000;stroke-width:4;stroke-linecap:round;stroke-linejoin:round;stroke-miterlimit:10;}
</style>
<g>
	<g>
		<g>
			<circle cx="209.8" cy="173.2" r="2.9"/>
			<path class="st0" d="M224.3,175.2c0,0-2.2-7.7-13.3-8.8c-11.7-1.2-17.5,4-17.5,4s5.5,9.5,16.2,10.5S224.3,175.2,224.3,175.2z"/>
			<path class="st0" d="M232.2,175c-0.7,7-4.6,21.2-3.8,23.3c0.7,1.7,2.2,3.4,6.8,1.9"/>
			<path class="st0" d="M279.4,153.5c0,6.8-1.2,30.5-2.7,41.8c-3.7,29-27,50.7-43.8,50.7c-18.2,0-44.9-24-46.4-52.8
				c-0.4-7.8-1.6-35.9-1.6-35.9"/>
			<path d="M219,148.4c1.8,0.8,5.2,2.7,5.7,1.9c1.9-3.1-5.9-6.3-14.2-6.8c-13.6-0.9-20.1,7.5-19.4,9.2c0.7,1.8,2.9-7.1,16.9-6.9
				C212.8,145.8,216.6,147.3,219,148.4z"/>
			<path class="st0" d="M185.3,175.3c0,0-7.7-6.3-7.7-0.2s1,20.5,3.3,22.8s6.7,4.7,6.7,4.7"/>
			<path class="st0" d="M278.6,174.7c0,0,4.1-4.2,6.2-2.5c2,1.7-1.3,18-2,21c-1.7,7.7-6.2,9.2-6.2,9.2"/>
			<line class="st0" x1="194.1" y1="164.8" x2="196.6" y2="168.5"/>
			<path class="st0" d="M200.8,160.3c0,0.7,2,5.3,2,5.3"/>
			<line class="st0" x1="209.8" y1="159" x2="210.7" y2="165.3"/>
			<line class="st0" x1="219.6" y1="163.3" x2="218.8" y2="166.6"/>
			<circle cx="254.8" cy="173.5" r="2.9"/>
			<path class="st0" d="M240.3,175.5c0,0,2.2-7.7,13.3-8.8c11.7-1.2,17.5,4,17.5,4s-5.5,9.5-16.2,10.5
				C244.2,182.2,240.3,175.5,240.3,175.5z"/>
			<path d="M245.8,149.2c-1.8,0.8-5.2,2.7-5.7,1.9c-1.9-3.1,5.9-6.3,14.2-6.8c13.6-0.9,20.1,7.5,19.4,9.2c-0.7,1.8-2.9-7.1-16.9-6.9
				C252,146.6,248.2,148.1,245.8,149.2z"/>
			<line class="st0" x1="270.8" y1="165" x2="268.3" y2="168.7"/>
			<path class="st0" d="M263.8,160.7c0,0.7-2,5.3-2,5.3"/>
			<line class="st0" x1="254.8" y1="159.3" x2="253.9" y2="165.6"/>
			<line class="st0" x1="244.9" y1="164" x2="245.7" y2="167.3"/>
			<path class="st0" d="M217.8,216.2c0,0,9.7,2.2,13.8,2c4.5-0.2,10-1,13.2-2.3"/>
			<path class="st0" d="M225,216.5c0,0,0.5-3.3,2.3-3.5c3.8-0.5,4.2,4.3,4.2,4.3"/>
			<path class="st0" d="M230.1,218.2c0,0,3.2-5.5,5.2-5.5s3.2,3.8,3.2,3.8"/>
			<path class="st0" d="M223.1,217c0,0,1.3,9.8,8.3,9.5c7.5-0.3,8.3-8.7,8.3-8.7"/>
			<path d="M205.7,108.3c0,0,3.8-9.3,15.1-11.3s11.6,15,11.6,15l-5,9.3l-17.7-0.3L205.7,108.3z"/>
			<path d="M200.9,109.7c0,0-12.5-0.8-17.9-3.6c-7.5-3.9-20.3-15.5-15.5-17.1c4.5-1.5,15,2.6,19.3,5.2
				C191.1,96.8,197.5,102.1,200.9,109.7z"/>
			<path d="M201.8,112.9c-0.4-0.9-9.8-19.1-7.8-27.7c1.9-8.7,6-8.8,7.8-8.9c4.5-0.3,5.8,13.3,5.2,20S201.8,112.9,201.8,112.9z"/>
			<path d="M196,115c0,0-11.1-2.9-7.2-8c4.8-6.2,9.3-8,11.6-9c5.4-2.3,8.9,0.1,10.9,3.2S209,109,209,109L196,115z"/>
			<path d="M206.8,99.2c0,0,1-2.5,14-2.2s14.5,8,14.5,8l-25,5.8L206.8,99.2z"/>
			<path class="st0" d="M165.5,331c-9.8,30.2-5.5,38.2-2.2,44c3.4,6,12.4,9.8,12.8,12.5c13.3,104,2,139.8,2,139.8s26,7.3,57.3,9.3
				s55-12.3,55-12.3"/>
			<path class="st0" d="M211.8,238c0,0,1.7,13.7-3.6,20.5c-16.6,21.5-53.3,22.3-68.7,35c-7.8,6.4-13,36-15.5,76
				c-4,63-4.5,210.5-4.5,210.5l28.7,0.8c0,0,8.3-133.5,14.4-207.6"/>
			<path d="M119.5,580c0,0-3-25.9,0-26.3s4.8,4.8,5.5,7.5s0.2-8.5,3.5-8.5s3.8,7.2,3.8,7.2s1.8-7.3,4.8-7s3.5,7.8,3.5,7.8
				s2.5-7.8,6.8-6.8s0.8,26.8,0.8,26.8L119.5,580z"/>
			<path class="st1" d="M306.2,340.2c0,0-6.5-15.8-7.2-25.2s-1.5-37.5-1.5-37.5l9.8,3.8l-4.5,46.7c9.8,30.2,5.5,38.2,2.2,44
				c-3.4,6-12.4,9.8-12.8,12.5l-0.6,7.8"/>
			<path class="st1" d="M290.3,524.3c0,0-6.3-19.8-4-72.6"/>
			<path class="st0" d="M345,374.8c-2.5-40-8.3-77.8-16.1-84.2c-15.3-12.7-52-13.5-68.7-35c-5.3-6.8-3.6-20.5-3.6-20.5"/>
			<path class="st0" d="M305.8,370.2c6.1,74.1,14.4,207.6,14.4,207.6l28.7-0.8c0,0-0.2-72.8-1.8-138"/>
			<path d="M348.9,577c0,0,3-25.9,0-26.3s-4.8,4.8-5.5,7.5s-0.2-8.5-3.5-8.5s-3.8,7.2-3.8,7.2s-1.8-7.3-4.8-7s-3.5,7.8-3.5,7.8
				s-2.5-7.8-6.8-6.8s-0.8,26.8-0.8,26.8L348.9,577z"/>
			<circle class="st1" cx="208.2" cy="172.3" r="20"/>
			<circle class="st1" cx="257.2" cy="172.3" r="20"/>
			<line class="st1" x1="228.5" y1="174.2" x2="236.2" y2="174.8"/>
			<circle class="st0" cx="211.7" cy="267.7" r="7"/>
			<circle class="st0" cx="226.3" cy="270" r="7"/>
			<circle class="st0" cx="241.3" cy="270.7" r="7"/>
			<circle class="st0" cx="255.7" cy="267" r="7"/>
			<path class="st0" d="M189.7,273.7c0,0,8,22.3,42.7,24s47-25,47-25"/>
			<path d="M232.3,297.7c0,0-2.3,11.8-15.8,8.8s-11-14-11-14c-5.5,3-12.5,4-17.5-2s1-13.5,1-13.5s13.3,11,18.3,13.3
				C212.3,292.7,229.3,297.5,232.3,297.7z"/>
			<path d="M280.7,273.5c0,0,6.7,6.9,2.4,13.3c-4.4,6.5-11.4,6.2-17.2,3.8c0,0,3.6,10.7-9.5,15c-13.1,4.4-16.7-7.2-16.7-7.2
				s14.3-5.5,22.3-9.7C270,284.7,278.6,276.7,280.7,273.5z"/>
			<path d="M296.2,278.2c-0.6,7.9,5.4,45.8,5.4,45.8s5.5-37,7-42C310.3,276.5,296.8,270.8,296.2,278.2z"/>
			<path class="st0" d="M178,527.3c0,0-6,7.2-11,28.2s-4.3,46.2,2.3,79.2C172.8,651.6,180,694,180,694"/>
			<path class="st0" d="M297.7,529.3c0,0,6,7.2,11,28.2s4.3,46.2-2.3,79.2c-3.4,16.9-10.7,59.3-10.7,59.3"/>
			<path class="st0" d="M148.1,580.8c0,0,1.4,12.7,2.4,19.7s2,10,1.5,17s-0.5,11.5-2,13s-5.5,1.5-6.5-5s-4-19-4-19s-3.5,6-3.5,14
				s-1,1.5,0.5,17.5s3,19,1.5,20.5"/>
			<path class="st0" d="M124,608.5c0,5,1.5,22,2,27.5s2,20,2,20s-6.5-19-10-30.5s-3-23-2.5-28.5l4-17"/>
			<path class="st0" d="M321,578.5c0,0-1.4,12.7-2.4,19.7s-2,10-1.5,17s0.5,11.5,2,13s5.5,1.5,6.5-5s4-19,4-19s3.5,6,3.5,14
				s1,1.5-0.5,17.5s-3,19-1.5,20.5"/>
			<path class="st0" d="M345.1,606.2c0,5-1.5,22-2,27.5s-2,20-2,20s6.5-19,10-30.5s3-23,2.5-28.5l-4-17"/>
			<g>
				<polyline class="st1" points="291,454.5 268.7,468.2 250.2,418 252.2,408.7 289.5,389.3 300.9,422.6 				"/>
				<polygon class="st1" points="289.5,389.3 282.7,387.8 244.9,408.5 243,416.7 250.2,418 252.1,409.1 				"/>
				<polygon class="st1" points="258.8,403.6 265,419.1 287.4,405 282.6,390.3 				"/>
				<line class="st1" x1="273" y1="395.9" x2="278.1" y2="410.1"/>
				<polygon class="st2" points="265.3,404.7 267.9,411.8 271.3,409.5 268.4,403 				"/>
				<path class="st1" d="M289.6,426.8c-1.4-5.4-6.5-6.9-10.9-4.8c-3.6,1.8-6.4,6.8-4.4,13c1.5,4.6,5.7,5.4,9.2,4.7"/>
				<path d="M281.5,428.1c-1,0.5-1.8,1.9-1.2,3.6c0.5,1.7,2.5,1.5,3.4,0.9c1.1-0.7,1.1-2.5,0.7-3.5
					C283.9,428.1,282.7,427.6,281.5,428.1z"/>
				<line class="st1" x1="252.1" y1="409.1" x2="246.2" y2="408.7"/>
				<polygon class="st1" points="243,416.7 261.1,466.1 268.7,468.2 250.2,418 				"/>
				<polygon points="278.5,426.5 280,427.1 278.6,429.7 277.1,429 				"/>
			</g>
			<g>
				<path class="st1" d="M325.3,442.2c4.1-9.1,18.2-35.1,18.2-35.1l0.2-13.9l12.5-16l5.5,27.5L324,476.4l-12.9-29.2l9.4-14.7
					L325.3,442.2z"/>
				<polygon class="st1" points="343.7,393.2 320.2,388.2 331.4,372.7 356.2,377.2 				"/>
				<path class="st1" d="M320.2,388.2l0.7,14.7l22,5.7c0.6-1.5,0.2-14.7,0.2-14.7L320.2,388.2z"/>
				<polygon class="st1" points="311.1,447.2 284,436.8 294.8,422.6 320.5,432.5 				"/>
				<polygon class="st1" points="323.9,476.4 292.3,461.8 284,436.8 311.1,447.2 				"/>
				<path class="st1" d="M320.9,402.9c0,0-13.1,22.7-13.8,23.7l13.4,5.9l4.8,9.7l17.6-33.7L320.9,402.9z"/>
				<path d="M360.2,401.5l12.8-27.9c0.4-0.9,1.3-1.3,2.1-1.1l0,0c1.1,0.3,1.7,1.7,1.2,2.9l-12.6,29c-0.8,1.8-3.2,1.4-3.5-0.5
					l-0.2-1.1C360,402.3,360,401.9,360.2,401.5z"/>
				<line class="st1" x1="321.5" y1="410.7" x2="323.3" y2="411.3"/>
				<line class="st1" x1="326.9" y1="412.1" x2="328.6" y2="412.6"/>
				<line class="st1" x1="332.4" y1="413.7" x2="334.2" y2="414.3"/>
				<line class="st1" x1="319.3" y1="415.1" x2="321.1" y2="415.7"/>
				<line class="st1" x1="324.7" y1="416.5" x2="326.5" y2="417"/>
				<line class="st1" x1="330.2" y1="418.1" x2="332" y2="418.7"/>
				<line class="st1" x1="316.8" y1="419.6" x2="318.6" y2="420.1"/>
				<line class="st1" x1="322.2" y1="421" x2="324" y2="421.5"/>
				<line class="st1" x1="327.8" y1="422.6" x2="329.5" y2="423.1"/>
				<line class="st1" x1="314.5" y1="423.7" x2="316.3" y2="424.2"/>
				<line class="st1" x1="319.9" y1="425.1" x2="321.7" y2="425.6"/>
				<line class="st1" x1="325.4" y1="426.7" x2="327.2" y2="427.2"/>
				<g>
					<ellipse transform="matrix(0.3829 -0.9238 0.9238 0.3829 -142.7444 544.7985)" cx="336.4" cy="379.2" rx="0.9" ry="0.9"/>
					<ellipse transform="matrix(0.3829 -0.9238 0.9238 0.3829 -140.8612 548.0549)" cx="339.8" cy="379.5" rx="0.9" ry="0.9"/>
					<ellipse transform="matrix(0.6483 -0.7614 0.7614 0.6483 -172.1075 391.3795)" cx="337.6" cy="382" rx="0.9" ry="0.9"/>
					<ellipse transform="matrix(0.6483 -0.7614 0.7614 0.6483 -171.3259 393.6978)" cx="340.5" cy="382.3" rx="0.9" ry="0.9"/>
					<ellipse transform="matrix(0.5016 -0.8651 0.8651 0.5016 -163.5126 479.7728)" cx="334.6" cy="381.8" rx="0.9" ry="0.9"/>
					<ellipse transform="matrix(0.8466 -0.5322 0.5322 0.8466 -153.2155 237.5891)" cx="335.6" cy="384.6" rx="0.9" ry="0.9"/>
					<ellipse transform="matrix(0.8466 -0.5322 0.5322 0.8466 -152.9516 239.4725)" cx="339" cy="385.1" rx="0.9" ry="0.9"/>
				</g>
				<g>
					<ellipse transform="matrix(0.3829 -0.9238 0.9238 0.3829 -212.5032 544.7038)" cx="301.5" cy="431.4" rx="0.9" ry="0.9"/>
					<ellipse transform="matrix(0.3829 -0.9238 0.9238 0.3829 -210.729 547.9821)" cx="304.8" cy="431.7" rx="0.9" ry="0.9"/>
					<ellipse transform="matrix(0.6483 -0.7614 0.7614 0.6483 -224.1975 383.1057)" cx="302.6" cy="434.2" rx="0.9" ry="0.9"/>
					<ellipse transform="matrix(0.6483 -0.7614 0.7614 0.6483 -223.4158 385.4242)" cx="305.5" cy="434.5" rx="0.9" ry="0.9"/>
					<ellipse transform="matrix(0.5016 -0.8651 0.8651 0.5016 -226.1614 475.5405)" cx="299.6" cy="434.1" rx="0.9" ry="0.9"/>
					<ellipse transform="matrix(0.8466 -0.5322 0.5322 0.8466 -186.3815 226.9698)" cx="300.6" cy="436.8" rx="0.9" ry="0.9"/>
					<ellipse transform="matrix(0.8466 -0.5322 0.5322 0.8466 -186.1176 228.8531)" cx="304" cy="437.3" rx="0.9" ry="0.9"/>
				</g>
			</g>
			<polygon points="238.7,435.9 297,451.5 358.1,432.1 318,554 272,555 			"/>
			<polygon points="248.4,431.5 238.7,435.9 251.2,439.2 			"/>
			<g>
				<path d="M320.5,432.5l-13.4-5.9c0.3-0.5,3.9-6.6,7.3-12.5l-6.4-2.6l-1.8-40l-13.9,13l-0.9,10.4l10.4,30.4L320.5,432.5z"/>
				<polygon points="345.1,436.2 358.1,432.1 349.2,428.4 				"/>
			</g>
			<path d="M289.3,202.7c-12.9,3.2-6.3,14-8.8,13.8c-5.3-0.4-1-14.3-1-14.3l-5-1L270,218l-9.8,13.2c0,0,9.9,10.9,25,9
				c7.1-0.9,18.4-6.1,19.8-19.5C305.7,213.4,300.4,199.9,289.3,202.7z M301.2,220.1c-0.5,8.8-6,14-15.9,15c-0.9,0.1-1.7,0.1-2.5,0.1
				c-5.3,0-9-1.7-11.2-3.3c-2.8-1.9-4-4-4.1-4.1c-0.1-0.2-0.1-0.5,0.2-0.7c0.2-0.1,0.5-0.1,0.7,0.2c0,0.1,4.7,7.9,16.9,6.8
				c9.5-0.9,14.5-5.6,15-14c0.2-3.4-0.7-8.3-3.2-11c-1-1.1-2.2-1.7-3.5-1.7c-0.3,0-0.5-0.2-0.5-0.5s0.3-0.5,0.5-0.5
				c1.6,0,3,0.7,4.2,2.1C300.4,211.3,301.4,216.5,301.2,220.1z"/>
			<path d="M188,199.7l-5,1c0,0,4.3,14-1,14.3c-2.5,0.2,4.1-10.7-8.8-13.8c-11.2-2.7-16.4,10.8-15.7,18.1
				c1.3,13.4,12.7,18.6,19.8,19.5c15.1,1.9,25-9,25-9l-9.8-13.2L188,199.7z M196,228.2c0.2,0.2,0.2,0.5,0,0.7
				c-0.3,0.3-6.8,6.2-14.7,6.2c-0.8,0-1.7-0.1-2.5-0.2c-8.9-1.5-15.7-7.5-16.2-14.3c-0.9-11,4.7-15.6,8.6-16c0.3,0,0.5,0.2,0.5,0.4
				c0,0.3-0.2,0.5-0.4,0.5c-6.4,0.7-8.1,9.5-7.7,15c0.5,6.3,7,11.9,15.4,13.4c8.5,1.4,16.3-5.6,16.4-5.7
				C195.5,227.9,195.8,228,196,228.2z"/>
			<path d="M270.5,134c0,0,7.2,13.5,7.5,25s-2,19-2,19l8.8-5.8c0,0,2.2-4.9,3.7-10.7c1.5-5.7,2.5-27.3-2.4-39
				c1.3-3.5,1.9-8.1,0.7-14c-2.5-12-9.5-14.4-17-14c-2.6,0.1-4.5,1-5.9,2.3c-0.7-4.7-2.5-9.5-6.6-13.1c-5.5-4.8-18.5-11-30.5-3
				c-4.8,3.2-11.1,16.6-7.8,22.9s5,9.3,5,9.3s-9.3,2.1-14.3,5.9c1.8-5.1,2.3-11.2-5.1-12c-13.1-1.4-22.2,8.7-28.9,19.9
				s-2.2,32.8-0.5,42.2s8.5,5.5,8.5,5.5s3.7,4,3.4-6s4.7-24.7,9.7-30.7s9.3-11.7,9.3-11.7s0.4-0.6,1-1.7c3,5.9,24.4,9.5,33.5,7.5
				c3.4-0.7,6.8-2.4,9.8-4.5l0,0C255,133.2,265.8,134.5,270.5,134z M182.3,137.9c-0.2,0.9-0.3,1.8-0.5,2.7c-0.1,0.2-0.3,0.4-0.5,0.4
				h-0.1c-0.3-0.1-0.4-0.3-0.4-0.6c0.2-0.8,0.3-1.7,0.5-2.6c0.6-3.3,1.2-6.6,3.1-9.3c2.7-3.9,7.5-8,7.8-8.2c0.2-0.2,0.5-0.2,0.7,0.1
				c0.2,0.2,0.2,0.5-0.1,0.7c0,0-4.9,4.2-7.6,8C183.5,131.5,182.9,134.8,182.3,137.9z M185.2,142.1l-0.1,0.5c0,0.2-0.3,0.4-0.5,0.4
				h-0.1c-0.3-0.1-0.4-0.3-0.4-0.6l0.1-0.5c0.5-2.7,1.5-7.7,3.1-10.8c1.7-3.4,8.3-8.5,8.6-8.7c0.2-0.2,0.5-0.1,0.7,0.1
				s0.1,0.5-0.1,0.7c-0.1,0.1-6.7,5.1-8.3,8.3C186.7,134.6,185.7,139.5,185.2,142.1z M199.3,125.2c-0.1,0-5.5,4.6-7.1,7.4
				c-1.6,2.6-3.8,10.2-3.8,11.6c0,0.3-0.2,0.5-0.5,0.5s-0.5-0.2-0.5-0.5c0-1.7,2.4-9.5,4-12.1c1.8-2.9,7.1-7.4,7.4-7.6
				c0.2-0.2,0.5-0.2,0.7,0.1C199.6,124.7,199.5,125,199.3,125.2z M257.7,102.4c-0.6,6-3.6,20.2-17.6,22.4c-0.8,0.1-1.6,0.2-2.4,0.2
				c-7.5,0-17-4.5-19.1-6.8c-0.2-0.2-0.2-0.5,0-0.7s0.5-0.2,0.7,0c1.8,2,12.9,7.5,20.6,6.3c13.3-2,16.1-15.7,16.7-21.5
				c0.9-8.9-3.5-16.4-11.1-18.5c-5.4-1.5-12.6,0.8-15.1,7.4c-1.6,4.1-1.7,8-0.5,10.8c0.7,1.6,1.9,2.8,3.5,3.3
				c0.3,0.1,0.4,0.4,0.3,0.6c-0.1,0.3-0.4,0.4-0.6,0.3c-1.8-0.7-3.2-2-4-3.9c-1.3-3-1.2-7.2,0.5-11.5c2.7-7.1,10.4-9.6,16.3-8
				C253.9,85.1,258.6,92.9,257.7,102.4z M247.9,90.6c-2.3-1.9-5-2.7-7.6-2.2c-1.7,0.3-3,1.3-4,2.9c-1.8,2.9-1.8,7-1.4,8.5
				c0.3,1.3,1.5,2.4,2.8,2.6c0.7,0.1,1.8,0,2.6-1.4c0.1-0.2,0.5-0.3,0.7-0.2c0.2,0.1,0.3,0.5,0.2,0.7c-0.9,1.4-2.2,2-3.6,1.8
				c-1.7-0.3-3.2-1.6-3.6-3.3c-0.4-1.7-0.5-6.1,1.5-9.3c1.1-1.8,2.7-2.9,4.7-3.3c2.9-0.6,5.9,0.3,8.4,2.4c2.9,2.5,4.6,6.1,4.5,10.1
				c-0.2,8.1-2.8,14.2-7.7,17.6c-0.1,0.1-0.2,0.1-0.3,0.1c-0.2,0-0.3-0.1-0.4-0.2c-0.2-0.2-0.1-0.5,0.1-0.7c4.6-3.2,7.1-9,7.3-16.8
				C252.1,96.2,250.6,92.8,247.9,90.6z M259.1,123.3c0.2-0.2,0.5-0.2,0.7,0c0.9,0.9,11.6,5.3,18-0.8c6.3-6.1,5.7-15.9,2.5-19.9
				c-2.2-2.8-6.6-5.2-11.6-2.6c-2.6,1.3-4.5,6.9-3.8,9.2c0.1,0.3-0.1,0.5-0.3,0.6c-0.3,0.1-0.5-0.1-0.6-0.3
				c-0.9-2.8,1.2-8.9,4.2-10.4c5.5-2.9,10.4-0.2,12.9,2.9c3.4,4.3,4.1,14.7-2.6,21.3c-2.7,2.7-6.1,3.5-9.3,3.5
				c-4.9,0-9.4-2.1-10-2.7C259,123.8,259,123.5,259.1,123.3z M268.9,107.5c0,0.3-0.2,0.5-0.5,0.5l0,0c-0.3,0-0.5-0.2-0.5-0.5
				c0-1.6,0.8-4.7,4-5.3c2.2-0.4,4,0.1,5.4,1.3c1.7,1.5,2.6,4.2,2.5,7.3c0,0.3-0.2,0.5-0.5,0.5l0,0c-0.3,0-0.5-0.2-0.5-0.5
				c0.1-2.8-0.7-5.2-2.2-6.5c-1.2-1-2.7-1.4-4.6-1.1C268.9,103.8,268.9,107.3,268.9,107.5z"/>
		</g>
	</g>
</g>
</svg>
