<svg id="Calque_1" data-name="Calque 1" xmlns="http://www.w3.org/2000/svg" viewBox="0 0 263.33 621.7"><defs><style>.cls-1,.cls-2{fill:none;}.cls-1,.cls-2,.cls-3{stroke:#000;stroke-linecap:round;stroke-width:4px;}.cls-1{stroke-miterlimit:10;}.cls-2,.cls-3{stroke-linejoin:round;}.cls-3{fill:#fff;}</style></defs><title>Vintage-01-2</title><circle cx="96.65" cy="96.9" r="2.9"/><path class="cls-1" d="M224.3,175.2s-2.2-7.7-13.3-8.8c-11.7-1.2-17.5,4-17.5,4s5.5,9.5,16.2,10.5S224.3,175.2,224.3,175.2Z" transform="translate(-113.15 -76.3)"/><path class="cls-1" d="M232.2,175c-.7,7-4.6,21.2-3.8,23.3.7,1.7,2.2,3.4,6.8,1.9" transform="translate(-113.15 -76.3)"/><path class="cls-1" d="M279.4,153.5c0,6.8-1.2,30.5-2.7,41.8-3.7,29-27,50.7-43.8,50.7-18.2,0-44.9-24-46.4-52.8-.4-7.8-1.6-35.9-1.6-35.9" transform="translate(-113.15 -76.3)"/><path d="M219,148.4c1.8.8,5.2,2.7,5.7,1.9,1.9-3.1-5.9-6.3-14.2-6.8-13.6-.9-20.1,7.5-19.4,9.2s2.9-7.1,16.9-6.9A26.06,26.06,0,0,1,219,148.4Z" transform="translate(-113.15 -76.3)"/><path class="cls-1" d="M185.3,175.3s-7.7-6.3-7.7-.2,1,20.5,3.3,22.8a36.42,36.42,0,0,0,6.7,4.7" transform="translate(-113.15 -76.3)"/><path class="cls-1" d="M278.6,174.7s4.1-4.2,6.2-2.5-1.3,18-2,21c-1.7,7.7-6.2,9.2-6.2,9.2" transform="translate(-113.15 -76.3)"/><line class="cls-1" x1="80.95" y1="88.5" x2="83.45" y2="92.2"/><path class="cls-1" d="M200.8,160.3a43,43,0,0,0,2,5.3" transform="translate(-113.15 -76.3)"/><line class="cls-1" x1="96.65" y1="82.7" x2="97.55" y2="89"/><line class="cls-1" x1="106.45" y1="87" x2="105.65" y2="90.3"/><circle cx="254.8" cy="173.5" r="2.9" transform="translate(-70.42 320.92) rotate(-80.78)"/><path class="cls-1" d="M240.3,175.5s2.2-7.7,13.3-8.8c11.7-1.2,17.5,4,17.5,4s-5.5,9.5-16.2,10.5S240.3,175.5,240.3,175.5Z" transform="translate(-113.15 -76.3)"/><path d="M245.8,149.2c-1.8.8-5.2,2.7-5.7,1.9-1.9-3.1,5.9-6.3,14.2-6.8,13.6-.9,20.1,7.5,19.4,9.2s-2.9-7.1-16.9-6.9A26.06,26.06,0,0,0,245.8,149.2Z" transform="translate(-113.15 -76.3)"/><line class="cls-1" x1="157.65" y1="88.7" x2="155.15" y2="92.4"/><path class="cls-1" d="M263.8,160.7a43,43,0,0,1-2,5.3" transform="translate(-113.15 -76.3)"/><line class="cls-1" x1="141.65" y1="83" x2="140.75" y2="89.3"/><line class="cls-1" x1="131.75" y1="87.7" x2="132.55" y2="91"/><path class="cls-1" d="M217.8,216.2s9.7,2.2,13.8,2c4.5-.2,10-1,13.2-2.3" transform="translate(-113.15 -76.3)"/><path class="cls-1" d="M225,216.5s.5-3.3,2.3-3.5c3.8-.5,4.2,4.3,4.2,4.3" transform="translate(-113.15 -76.3)"/><path class="cls-1" d="M230.1,218.2s3.2-5.5,5.2-5.5,3.2,3.8,3.2,3.8" transform="translate(-113.15 -76.3)"/><path class="cls-1" d="M223.1,217s1.3,9.8,8.3,9.5c7.5-.3,8.3-8.7,8.3-8.7" transform="translate(-113.15 -76.3)"/><path d="M205.7,108.3A20.46,20.46,0,0,1,220.8,97c11.3-2,11.6,15,11.6,15l-5,9.3-17.7-.3Z" transform="translate(-113.15 -76.3)"/><path d="M200.9,109.7s-12.5-.8-17.9-3.6c-7.5-3.9-20.3-15.5-15.5-17.1,4.5-1.5,15,2.6,19.3,5.2S197.5,102.1,200.9,109.7Z" transform="translate(-113.15 -76.3)"/><path d="M201.8,112.9c-.4-.9-9.8-19.1-7.8-27.7s6-8.8,7.8-8.9c4.5-.3,5.8,13.3,5.2,20S201.8,112.9,201.8,112.9Z" transform="translate(-113.15 -76.3)"/><path d="M196,115s-11.1-2.9-7.2-8a26.51,26.51,0,0,1,11.6-9c5.4-2.3,8.9.1,10.9,3.2S209,109,209,109Z" transform="translate(-113.15 -76.3)"/><path d="M206.8,99.2s1-2.5,14-2.2,14.5,8,14.5,8l-25,5.8Z" transform="translate(-113.15 -76.3)"/><path class="cls-1" d="M165.5,331c-9.8,30.2-5.5,38.2-2.2,44,3.4,6,12.4,9.8,12.8,12.5,13.3,104,2,139.8,2,139.8a310.15,310.15,0,0,0,57.3,9.3,103.46,103.46,0,0,0,55-12.3" transform="translate(-113.15 -76.3)"/><path class="cls-1" d="M211.8,238s1.7,13.7-3.6,20.5c-16.6,21.5-53.3,22.3-68.7,35-7.8,6.4-13,36-15.5,76-4,63-4.5,210.5-4.5,210.5l28.7.8s8.3-133.5,14.4-207.6" transform="translate(-113.15 -76.3)"/><path d="M119.5,580s-3-25.9,0-26.3,4.8,4.8,5.5,7.5.2-8.5,3.5-8.5,3.8,7.2,3.8,7.2,1.8-7.3,4.8-7,3.5,7.8,3.5,7.8,2.5-7.8,6.8-6.8.8,26.8.8,26.8Z" transform="translate(-113.15 -76.3)"/><path class="cls-2" d="M306.2,340.2s-6.5-15.8-7.2-25.2-1.5-37.5-1.5-37.5l9.8,3.8L302.8,328c9.8,30.2,5.5,38.2,2.2,44-3.4,6-12.4,9.8-12.8,12.5l-.6,7.8" transform="translate(-113.15 -76.3)"/><path class="cls-2" d="M290.3,524.3s-6.3-19.8-4-72.6" transform="translate(-113.15 -76.3)"/><path class="cls-1" d="M345,374.8c-2.5-40-8.3-77.8-16.1-84.2-15.3-12.7-52-13.5-68.7-35-5.3-6.8-3.6-20.5-3.6-20.5" transform="translate(-113.15 -76.3)"/><path class="cls-1" d="M305.8,370.2c6.1,74.1,14.4,207.6,14.4,207.6l28.7-.8s-.2-72.8-1.8-138" transform="translate(-113.15 -76.3)"/><path d="M348.9,577s3-25.9,0-26.3-4.8,4.8-5.5,7.5-.2-8.5-3.5-8.5-3.8,7.2-3.8,7.2-1.8-7.3-4.8-7-3.5,7.8-3.5,7.8-2.5-7.8-6.8-6.8-.8,26.8-.8,26.8Z" transform="translate(-113.15 -76.3)"/><circle class="cls-2" cx="95.05" cy="96" r="20"/><circle class="cls-2" cx="144.05" cy="96" r="20"/><line class="cls-2" x1="115.35" y1="97.9" x2="123.05" y2="98.5"/><circle class="cls-1" cx="98.55" cy="191.4" r="7"/><circle class="cls-1" cx="113.15" cy="193.7" r="7"/><circle class="cls-1" cx="128.15" cy="194.4" r="7"/><circle class="cls-1" cx="255.7" cy="267" r="7" transform="translate(-161.96 400.33) rotate(-80.78)"/><path class="cls-1" d="M189.7,273.7s8,22.3,42.7,24,47-25,47-25" transform="translate(-113.15 -76.3)"/><path d="M232.3,297.7s-2.3,11.8-15.8,8.8-11-14-11-14c-5.5,3-12.5,4-17.5-2s1-13.5,1-13.5,13.3,11,18.3,13.3S229.3,297.5,232.3,297.7Z" transform="translate(-113.15 -76.3)"/><path d="M280.7,273.5s6.7,6.9,2.4,13.3-11.4,6.2-17.2,3.8c0,0,3.6,10.7-9.5,15s-16.7-7.2-16.7-7.2,14.3-5.5,22.3-9.7C270,284.7,278.6,276.7,280.7,273.5Z" transform="translate(-113.15 -76.3)"/><path d="M296.2,278.2c-.6,7.9,5.4,45.8,5.4,45.8s5.5-37,7-42C310.3,276.5,296.8,270.8,296.2,278.2Z" transform="translate(-113.15 -76.3)"/><path class="cls-1" d="M178,527.3s-6,7.2-11,28.2-4.3,46.2,2.3,79.2C172.8,651.6,180,694,180,694" transform="translate(-113.15 -76.3)"/><path class="cls-1" d="M297.7,529.3s6,7.2,11,28.2,4.3,46.2-2.3,79.2C303,653.6,295.7,696,295.7,696" transform="translate(-113.15 -76.3)"/><path class="cls-1" d="M148.1,580.8s1.4,12.7,2.4,19.7,2,10,1.5,17-.5,11.5-2,13-5.5,1.5-6.5-5-4-19-4-19a30.46,30.46,0,0,0-3.5,14c0,8-1,1.5.5,17.5s3,19,1.5,20.5" transform="translate(-113.15 -76.3)"/><path class="cls-1" d="M124,608.5c0,5,1.5,22,2,27.5s2,20,2,20-6.5-19-10-30.5-3-23-2.5-28.5l4-17" transform="translate(-113.15 -76.3)"/><path class="cls-1" d="M321,578.5s-1.4,12.7-2.4,19.7-2,10-1.5,17,.5,11.5,2,13,5.5,1.5,6.5-5,4-19,4-19a30.46,30.46,0,0,1,3.5,14c0,8,1,1.5-.5,17.5s-3,19-1.5,20.5" transform="translate(-113.15 -76.3)"/><path class="cls-1" d="M345.1,606.2c0,5-1.5,22-2,27.5s-2,20-2,20,6.5-19,10-30.5,3-23,2.5-28.5l-4-17" transform="translate(-113.15 -76.3)"/><polyline class="cls-2" points="177.85 378.2 155.55 391.9 137.05 341.7 139.05 332.4 176.35 313 187.75 346.31"/><polygon class="cls-2" points="176.35 313 169.55 311.5 131.75 332.2 129.85 340.4 137.05 341.7 138.95 332.81 176.35 313"/><polygon class="cls-2" points="145.65 327.31 151.85 342.81 174.25 328.7 169.45 314 145.65 327.31"/><line class="cls-2" x1="159.85" y1="319.6" x2="164.95" y2="333.8"/><polygon class="cls-3" points="152.15 328.4 154.75 335.5 158.15 333.2 155.25 326.7 152.15 328.4"/><path class="cls-2" d="M289.6,426.8c-1.4-5.4-6.5-6.9-10.9-4.8-3.6,1.8-6.4,6.8-4.4,13,1.5,4.6,5.7,5.4,9.2,4.7" transform="translate(-113.15 -76.3)"/><path d="M281.5,428.1a2.86,2.86,0,0,0-1.2,3.6c.5,1.7,2.5,1.5,3.4.9,1.1-.7,1.1-2.5.7-3.5A2.21,2.21,0,0,0,281.5,428.1Z" transform="translate(-113.15 -76.3)"/><line class="cls-2" x1="138.95" y1="332.8" x2="133.05" y2="332.4"/><polygon class="cls-2" points="129.85 340.4 147.95 389.81 155.55 391.9 137.05 341.7 129.85 340.4"/><polygon points="165.35 350.2 166.85 350.81 165.45 353.4 163.95 352.7 165.35 350.2"/><path class="cls-2" d="M325.3,442.2c4.1-9.1,18.2-35.1,18.2-35.1l.2-13.9,12.5-16,5.5,27.5L324,476.4l-12.9-29.2,9.4-14.7Z" transform="translate(-113.15 -76.3)"/><polygon class="cls-2" points="230.55 316.9 207.05 311.9 218.25 296.4 243.05 300.9 230.55 316.9"/><path class="cls-2" d="M320.2,388.2l.7,14.7,22,5.7c.6-1.5.2-14.7.2-14.7Z" transform="translate(-113.15 -76.3)"/><polygon class="cls-2" points="197.95 370.9 170.85 360.5 181.65 346.31 207.35 356.2 197.95 370.9"/><polygon class="cls-2" points="210.75 400.11 179.15 385.5 170.85 360.5 197.95 370.9 210.75 400.11"/><path class="cls-2" d="M320.9,402.9s-13.1,22.7-13.8,23.7l13.4,5.9,4.8,9.7,17.6-33.7Z" transform="translate(-113.15 -76.3)"/><path d="M360.2,401.5,373,373.6a1.83,1.83,0,0,1,2.1-1.1h0a2.14,2.14,0,0,1,1.2,2.9l-12.6,29a1.82,1.82,0,0,1-3.5-.5l-.2-1.1A2.74,2.74,0,0,1,360.2,401.5Z" transform="translate(-113.15 -76.3)"/><line class="cls-2" x1="208.35" y1="334.4" x2="210.15" y2="335"/><line class="cls-2" x1="213.75" y1="335.8" x2="215.45" y2="336.3"/><line class="cls-2" x1="219.25" y1="337.4" x2="221.05" y2="338"/><line class="cls-2" x1="206.15" y1="338.8" x2="207.95" y2="339.4"/><line class="cls-2" x1="211.55" y1="340.2" x2="213.35" y2="340.7"/><line class="cls-2" x1="217.05" y1="341.8" x2="218.85" y2="342.4"/><line class="cls-2" x1="203.65" y1="343.3" x2="205.45" y2="343.8"/><line class="cls-2" x1="209.05" y1="344.7" x2="210.85" y2="345.2"/><line class="cls-2" x1="214.65" y1="346.3" x2="216.35" y2="346.8"/><line class="cls-2" x1="201.35" y1="347.4" x2="203.15" y2="347.9"/><line class="cls-2" x1="206.75" y1="348.8" x2="208.55" y2="349.3"/><line class="cls-2" x1="212.25" y1="350.4" x2="214.05" y2="350.9"/><circle cx="223.22" cy="302.93" r="0.9"/><circle cx="226.68" cy="303.16" r="0.9"/><circle cx="224.47" cy="305.69" r="0.9"/><circle cx="227.36" cy="305.99" r="0.9"/><circle cx="221.47" cy="305.53" r="0.9"/><circle cx="222.44" cy="308.29" r="0.9"/><circle cx="225.85" cy="308.79" r="0.9"/><circle cx="188.32" cy="355.07" r="0.9"/><circle cx="191.64" cy="355.41" r="0.9"/><circle cx="189.43" cy="357.9" r="0.9"/><circle cx="192.32" cy="358.21" r="0.9"/><circle cx="186.51" cy="357.81" r="0.9"/><circle cx="187.42" cy="360.49" r="0.9"/><circle cx="190.83" cy="360.99" r="0.9"/><polygon points="125.55 359.61 183.85 375.2 244.95 355.81 204.85 477.7 158.85 478.7 125.55 359.61"/><polygon points="135.25 355.2 125.55 359.61 138.05 362.9 135.25 355.2"/><path d="M320.5,432.5l-13.4-5.9c.3-.5,3.9-6.6,7.3-12.5l-6.4-2.6-1.8-40-13.9,13-.9,10.4,10.4,30.4Z" transform="translate(-113.15 -76.3)"/><polygon points="231.95 359.9 244.95 355.81 236.05 352.11 231.95 359.9"/><path d="M289.3,202.7c-12.9,3.2-6.3,14-8.8,13.8-5.3-.4-1-14.3-1-14.3l-5-1L270,218l-9.8,13.2s9.9,10.9,25,9c7.1-.9,18.4-6.1,19.8-19.5C305.7,213.4,300.4,199.9,289.3,202.7Zm11.9,17.4c-.5,8.8-6,14-15.9,15a21.75,21.75,0,0,1-2.5.1,18.83,18.83,0,0,1-11.2-3.3,14.79,14.79,0,0,1-4.1-4.1.51.51,0,0,1,.9-.5c0,.1,4.7,7.9,16.9,6.8,9.5-.9,14.5-5.6,15-14,.2-3.4-.7-8.3-3.2-11a4.71,4.71,0,0,0-3.5-1.7.47.47,0,0,1-.5-.5.54.54,0,0,1,.5-.5,5.4,5.4,0,0,1,4.2,2.1C300.4,211.3,301.4,216.5,301.2,220.1Z" transform="translate(-113.15 -76.3)"/><path d="M188,199.7l-5,1s4.3,14-1,14.3c-2.5.2,4.1-10.7-8.8-13.8-11.2-2.7-16.4,10.8-15.7,18.1,1.3,13.4,12.7,18.6,19.8,19.5,15.1,1.9,25-9,25-9l-9.8-13.2Zm8,28.5a.48.48,0,0,1,0,.7c-.3.3-6.8,6.2-14.7,6.2a21.05,21.05,0,0,1-2.5-.2c-8.9-1.5-15.7-7.5-16.2-14.3-.9-11,4.7-15.6,8.6-16a.45.45,0,0,1,.1.9c-6.4.7-8.1,9.5-7.7,15,.5,6.3,7,11.9,15.4,13.4s16.3-5.6,16.4-5.7C195.5,227.9,195.8,228,196,228.2Z" transform="translate(-113.15 -76.3)"/><path d="M270.5,134s7.2,13.5,7.5,25a65.18,65.18,0,0,1-2,19l8.8-5.8a75.54,75.54,0,0,0,3.7-10.7c1.5-5.7,2.5-27.3-2.4-39a25.17,25.17,0,0,0,.7-14c-2.5-12-9.5-14.4-17-14a8.84,8.84,0,0,0-5.9,2.3c-.7-4.7-2.5-9.5-6.6-13.1-5.5-4.8-18.5-11-30.5-3-4.8,3.2-11.1,16.6-7.8,22.9s5,9.3,5,9.3-9.3,2.1-14.3,5.9c1.8-5.1,2.3-11.2-5.1-12-13.1-1.4-22.2,8.7-28.9,19.9s-2.2,32.8-.5,42.2,8.5,5.5,8.5,5.5,3.7,4,3.4-6,4.7-24.7,9.7-30.7,9.3-11.7,9.3-11.7.4-.6,1-1.7c3,5.9,24.4,9.5,33.5,7.5a27.2,27.2,0,0,0,9.8-4.5h0C255,133.2,265.8,134.5,270.5,134Zm-88.2,3.9c-.2.9-.3,1.8-.5,2.7a.66.66,0,0,1-.5.4h-.1a.55.55,0,0,1-.4-.6c.2-.8.3-1.7.5-2.6.6-3.3,1.2-6.6,3.1-9.3a48.47,48.47,0,0,1,7.8-8.2.5.5,0,1,1,.6.8,55.62,55.62,0,0,0-7.6,8C183.5,131.5,182.9,134.8,182.3,137.9Zm2.9,4.2-.1.5c0,.2-.3.4-.5.4h-.1a.55.55,0,0,1-.4-.6l.1-.5c.5-2.7,1.5-7.7,3.1-10.8,1.7-3.4,8.3-8.5,8.6-8.7a.5.5,0,1,1,.6.8c-.1.1-6.7,5.1-8.3,8.3S185.7,139.5,185.2,142.1Zm14.1-16.9c-.1,0-5.5,4.6-7.1,7.4-1.6,2.6-3.8,10.2-3.8,11.6a.5.5,0,0,1-1,0c0-1.7,2.4-9.5,4-12.1,1.8-2.9,7.1-7.4,7.4-7.6a.43.43,0,0,1,.7.1C199.6,124.7,199.5,125,199.3,125.2Zm58.4-22.8c-.6,6-3.6,20.2-17.6,22.4a19.42,19.42,0,0,1-2.4.2c-7.5,0-17-4.5-19.1-6.8a.49.49,0,1,1,.7-.7c1.8,2,12.9,7.5,20.6,6.3,13.3-2,16.1-15.7,16.7-21.5.9-8.9-3.5-16.4-11.1-18.5-5.4-1.5-12.6.8-15.1,7.4-1.6,4.1-1.7,8-.5,10.8a5.71,5.71,0,0,0,3.5,3.3.47.47,0,0,1-.3.9,7,7,0,0,1-4-3.9c-1.3-3-1.2-7.2.5-11.5,2.7-7.1,10.4-9.6,16.3-8C253.9,85.1,258.6,92.9,257.7,102.4Zm-9.8-11.8a9.17,9.17,0,0,0-7.6-2.2,5.83,5.83,0,0,0-4,2.9,12.82,12.82,0,0,0-1.4,8.5,3.55,3.55,0,0,0,2.8,2.6,2.45,2.45,0,0,0,2.6-1.4.51.51,0,1,1,.9.5,3.57,3.57,0,0,1-3.6,1.8A4.52,4.52,0,0,1,234,100a14,14,0,0,1,1.5-9.3,6.92,6.92,0,0,1,4.7-3.3,9.9,9.9,0,0,1,8.4,2.4,12.79,12.79,0,0,1,4.5,10.1c-.2,8.1-2.8,14.2-7.7,17.6a.37.37,0,0,1-.3.1.52.52,0,0,1-.4-.2.49.49,0,0,1,.1-.7c4.6-3.2,7.1-9,7.3-16.8A11.85,11.85,0,0,0,247.9,90.6Zm11.2,32.7a.48.48,0,0,1,.7,0c.9.9,11.6,5.3,18-.8s5.7-15.9,2.5-19.9a9.05,9.05,0,0,0-11.6-2.6c-2.6,1.3-4.5,6.9-3.8,9.2a.47.47,0,0,1-.9.3c-.9-2.8,1.2-8.9,4.2-10.4,5.5-2.9,10.4-.2,12.9,2.9,3.4,4.3,4.1,14.7-2.6,21.3a12.67,12.67,0,0,1-9.3,3.5c-4.9,0-9.4-2.1-10-2.7A.8.8,0,0,1,259.1,123.3Zm9.8-15.8a.47.47,0,0,1-.5.5h0a.47.47,0,0,1-.5-.5c0-1.6.8-4.7,4-5.3a6.21,6.21,0,0,1,5.4,1.3c1.7,1.5,2.6,4.2,2.5,7.3a.47.47,0,0,1-.5.5h0a.47.47,0,0,1-.5-.5c.1-2.8-.7-5.2-2.2-6.5a5.48,5.48,0,0,0-4.6-1.1C268.9,103.8,268.9,107.3,268.9,107.5Z" transform="translate(-113.15 -76.3)"/></svg>